<svg width="32" height="32" viewBox="0 0 32 32" fill="none" xmlns="http://www.w3.org/2000/svg">
<mask id="mask0_96_321" style="mask-type:alpha" maskUnits="userSpaceOnUse" x="0" y="0" width="32" height="32">
<rect width="32" height="32" fill="#D9D9D9"/>
</mask>
<g mask="url(#mask0_96_321)">
<path d="M16.0661 26.6663C13.0883 26.6663 10.555 25.633 8.46608 23.5663C6.37719 21.4997 5.33275 18.9775 5.33275 15.9997V15.7663L4.13275 16.9663C3.8883 17.2108 3.57719 17.333 3.19941 17.333C2.82164 17.333 2.51053 17.2108 2.26608 16.9663C2.02164 16.7219 1.89941 16.4108 1.89941 16.033C1.89941 15.6552 2.02164 15.3441 2.26608 15.0997L5.73275 11.633C5.99941 11.3663 6.31052 11.233 6.66608 11.233C7.02164 11.233 7.33275 11.3663 7.59941 11.633L11.0661 15.0997C11.3105 15.3441 11.4327 15.6552 11.4327 16.033C11.4327 16.4108 11.3105 16.7219 11.0661 16.9663C10.8216 17.2108 10.5105 17.333 10.1327 17.333C9.75497 17.333 9.44386 17.2108 9.19941 16.9663L7.99941 15.7663V15.9997C7.99941 18.2219 8.78275 20.1108 10.3494 21.6663C11.9161 23.2219 13.8216 23.9997 16.0661 23.9997C16.4216 23.9997 16.7716 23.9775 17.1161 23.933C17.4605 23.8886 17.7994 23.8108 18.1327 23.6997C18.5105 23.5886 18.8661 23.5997 19.1994 23.733C19.5327 23.8663 19.7883 24.0997 19.9661 24.433C20.1439 24.7886 20.1605 25.1386 20.0161 25.483C19.8716 25.8275 19.6105 26.0552 19.2327 26.1663C18.7216 26.3441 18.1994 26.4719 17.6661 26.5497C17.1327 26.6275 16.5994 26.6663 16.0661 26.6663ZM15.9327 7.99967C15.5772 7.99967 15.2272 8.0219 14.8827 8.06634C14.5383 8.11079 14.1994 8.18856 13.8661 8.29967C13.4883 8.41079 13.1272 8.39967 12.7827 8.26634C12.4383 8.13301 12.1772 7.89967 11.9994 7.56634C11.8216 7.23301 11.805 6.89412 11.9494 6.54967C12.0939 6.20523 12.3439 5.97745 12.6994 5.86634C13.2327 5.68856 13.7661 5.55523 14.2994 5.46634C14.8327 5.37745 15.3772 5.33301 15.9327 5.33301C18.9105 5.33301 21.4439 6.36634 23.5327 8.43301C25.6216 10.4997 26.6661 13.0219 26.6661 15.9997V16.233L27.8661 15.033C28.1105 14.7886 28.4216 14.6663 28.7994 14.6663C29.1772 14.6663 29.4883 14.7886 29.7327 15.033C29.9772 15.2775 30.0994 15.5886 30.0994 15.9663C30.0994 16.3441 29.9772 16.6552 29.7327 16.8997L26.2661 20.3663C25.9994 20.633 25.6883 20.7663 25.3327 20.7663C24.9772 20.7663 24.6661 20.633 24.3994 20.3663L20.9327 16.8997C20.6883 16.6552 20.5661 16.3441 20.5661 15.9663C20.5661 15.5886 20.6883 15.2775 20.9327 15.033C21.1772 14.7886 21.4883 14.6663 21.8661 14.6663C22.2439 14.6663 22.555 14.7886 22.7994 15.033L23.9994 16.233V15.9997C23.9994 13.7775 23.2161 11.8886 21.6494 10.333C20.0827 8.77745 18.1772 7.99967 15.9327 7.99967Z" fill="#050317"/>
</g>
</svg>
