<svg width="32" height="32" viewBox="0 0 32 32" fill="none" xmlns="http://www.w3.org/2000/svg">
<mask id="mask0_104_270" style="mask-type:alpha" maskUnits="userSpaceOnUse" x="0" y="0" width="32" height="32">
<rect width="32" height="32" fill="#D9D9D9"/>
</mask>
<g mask="url(#mask0_104_270)">
<path d="M14.5999 16.9335L12.6666 15.0335C12.4222 14.789 12.1166 14.6668 11.7499 14.6668C11.3833 14.6668 11.0666 14.8002 10.7999 15.0668C10.5555 15.3113 10.4333 15.6224 10.4333 16.0002C10.4333 16.3779 10.5555 16.689 10.7999 16.9335L13.6666 19.8002C13.9333 20.0668 14.2444 20.2002 14.5999 20.2002C14.9555 20.2002 15.2666 20.0668 15.5333 19.8002L21.1999 14.1335C21.4666 13.8668 21.5944 13.5557 21.5833 13.2002C21.5722 12.8446 21.4444 12.5335 21.1999 12.2668C20.9333 12.0002 20.6166 11.8613 20.2499 11.8502C19.8833 11.839 19.5666 11.9668 19.2999 12.2335L14.5999 16.9335ZM10.8666 29.0002L8.93327 25.7335L5.2666 24.9335C4.93327 24.8668 4.6666 24.6946 4.4666 24.4168C4.2666 24.139 4.18882 23.8335 4.23327 23.5002L4.59993 19.7335L2.09993 16.8668C1.87771 16.6224 1.7666 16.3335 1.7666 16.0002C1.7666 15.6668 1.87771 15.3779 2.09993 15.1335L4.59993 12.2668L4.23327 8.50016C4.18882 8.16683 4.2666 7.86127 4.4666 7.58349C4.6666 7.30571 4.93327 7.13349 5.2666 7.06683L8.93327 6.26683L10.8666 3.00016C11.0444 2.71127 11.2888 2.51682 11.5999 2.41682C11.911 2.31682 12.2222 2.33349 12.5333 2.46682L15.9999 3.93349L19.4666 2.46682C19.7777 2.33349 20.0888 2.31682 20.3999 2.41682C20.711 2.51682 20.9555 2.71127 21.1333 3.00016L23.0666 6.26683L26.7333 7.06683C27.0666 7.13349 27.3333 7.30571 27.5333 7.58349C27.7333 7.86127 27.811 8.16683 27.7666 8.50016L27.3999 12.2668L29.8999 15.1335C30.1222 15.3779 30.2333 15.6668 30.2333 16.0002C30.2333 16.3335 30.1222 16.6224 29.8999 16.8668L27.3999 19.7335L27.7666 23.5002C27.811 23.8335 27.7333 24.139 27.5333 24.4168C27.3333 24.6946 27.0666 24.8668 26.7333 24.9335L23.0666 25.7335L21.1333 29.0002C20.9555 29.289 20.711 29.4835 20.3999 29.5835C20.0888 29.6835 19.7777 29.6668 19.4666 29.5335L15.9999 28.0668L12.5333 29.5335C12.2222 29.6668 11.911 29.6835 11.5999 29.5835C11.2888 29.4835 11.0444 29.289 10.8666 29.0002ZM12.5999 26.6002L15.9999 25.1335L19.4666 26.6002L21.3333 23.4002L24.9999 22.5335L24.6666 18.8002L27.1333 16.0002L24.6666 13.1335L24.9999 9.40016L21.3333 8.60016L19.3999 5.40016L15.9999 6.86682L12.5333 5.40016L10.6666 8.60016L6.99993 9.40016L7.33327 13.1335L4.8666 16.0002L7.33327 18.8002L6.99993 22.6002L10.6666 23.4002L12.5999 26.6002Z" fill="#1C1B1F"/>
</g>
</svg>
