<svg width="32" height="32" viewBox="0 0 32 32" fill="none" xmlns="http://www.w3.org/2000/svg">
<mask id="mask0_84_421" style="mask-type:alpha" maskUnits="userSpaceOnUse" x="0" y="0" width="32" height="32">
<rect width="32" height="32" fill="#D9D9D9"/>
</mask>
<g mask="url(#mask0_84_421)">
<path d="M11.9993 19.0003C11.5327 19.0003 11.1382 18.8392 10.816 18.517C10.4938 18.1948 10.3327 17.8003 10.3327 17.3337C10.3327 16.867 10.4938 16.4725 10.816 16.1503C11.1382 15.8281 11.5327 15.667 11.9993 15.667C12.466 15.667 12.8605 15.8281 13.1827 16.1503C13.5049 16.4725 13.666 16.867 13.666 17.3337C13.666 17.8003 13.5049 18.1948 13.1827 18.517C12.8605 18.8392 12.466 19.0003 11.9993 19.0003ZM19.9993 19.0003C19.5327 19.0003 19.1382 18.8392 18.816 18.517C18.4938 18.1948 18.3327 17.8003 18.3327 17.3337C18.3327 16.867 18.4938 16.4725 18.816 16.1503C19.1382 15.8281 19.5327 15.667 19.9993 15.667C20.466 15.667 20.8605 15.8281 21.1827 16.1503C21.5049 16.4725 21.666 16.867 21.666 17.3337C21.666 17.8003 21.5049 18.1948 21.1827 18.517C20.8605 18.8392 20.466 19.0003 19.9993 19.0003ZM15.9993 26.667C18.9771 26.667 21.4993 25.6337 23.566 23.567C25.6327 21.5003 26.666 18.9781 26.666 16.0003C26.666 15.467 26.6327 14.9503 26.566 14.4503C26.4993 13.9503 26.3771 13.467 26.1993 13.0003C25.7327 13.1114 25.266 13.1948 24.7993 13.2503C24.3327 13.3059 23.8438 13.3337 23.3327 13.3337C21.3105 13.3337 19.3993 12.9003 17.5993 12.0337C15.7993 11.167 14.266 9.95588 12.9993 8.40033C12.2882 10.1337 11.2716 11.6392 9.94935 12.917C8.62713 14.1948 7.08824 15.1559 5.33268 15.8003V16.0003C5.33268 18.9781 6.36602 21.5003 8.43268 23.567C10.4993 25.6337 13.0216 26.667 15.9993 26.667ZM15.9993 29.3337C14.1549 29.3337 12.4216 28.9837 10.7993 28.2837C9.17713 27.5837 7.76602 26.6337 6.56602 25.4337C5.36602 24.2337 4.41602 22.8225 3.71602 21.2003C3.01602 19.5781 2.66602 17.8448 2.66602 16.0003C2.66602 14.1559 3.01602 12.4225 3.71602 10.8003C4.41602 9.1781 5.36602 7.76699 6.56602 6.56699C7.76602 5.36699 9.17713 4.41699 10.7993 3.71699C12.4216 3.01699 14.1549 2.66699 15.9993 2.66699C17.8438 2.66699 19.5771 3.01699 21.1993 3.71699C22.8216 4.41699 24.2327 5.36699 25.4327 6.56699C26.6327 7.76699 27.5827 9.1781 28.2827 10.8003C28.9827 12.4225 29.3327 14.1559 29.3327 16.0003C29.3327 17.8448 28.9827 19.5781 28.2827 21.2003C27.5827 22.8225 26.6327 24.2337 25.4327 25.4337C24.2327 26.6337 22.8216 27.5837 21.1993 28.2837C19.5771 28.9837 17.8438 29.3337 15.9993 29.3337Z" fill="#050317"/>
</g>
</svg>
