<svg width="32" height="32" viewBox="0 0 32 32" fill="none" xmlns="http://www.w3.org/2000/svg">
<mask id="mask0_84_321" style="mask-type:alpha" maskUnits="userSpaceOnUse" x="0" y="0" width="32" height="32">
<rect width="32" height="32" fill="#D9D9D9"/>
</mask>
<g mask="url(#mask0_84_321)">
<path d="M8.66634 21.333C9.71079 21.333 10.7275 21.4497 11.7163 21.683C12.7052 21.9163 13.6886 22.2663 14.6663 22.733V9.59967C13.7552 9.06634 12.7886 8.66634 11.7663 8.39967C10.7441 8.13301 9.71079 7.99967 8.66634 7.99967C7.86634 7.99967 7.0719 8.07745 6.28301 8.23301C5.49412 8.38856 4.73301 8.6219 3.99967 8.93301V22.133C4.77745 21.8663 5.54967 21.6663 6.31634 21.533C7.08301 21.3997 7.86634 21.333 8.66634 21.333ZM17.333 22.733C18.3108 22.2663 19.2941 21.9163 20.283 21.683C21.2719 21.4497 22.2886 21.333 23.333 21.333C24.133 21.333 24.9163 21.3997 25.683 21.533C26.4497 21.6663 27.2219 21.8663 27.9997 22.133V8.93301C27.2663 8.6219 26.5052 8.38856 25.7163 8.23301C24.9275 8.07745 24.133 7.99967 23.333 7.99967C22.2886 7.99967 21.2552 8.13301 20.233 8.39967C19.2108 8.66634 18.2441 9.06634 17.333 9.59967V22.733ZM15.9997 25.9663C15.6886 25.9663 15.3941 25.9275 15.1163 25.8497C14.8386 25.7719 14.5775 25.6663 14.333 25.533C13.4663 25.0219 12.5552 24.6386 11.5997 24.383C10.6441 24.1275 9.66634 23.9997 8.66634 23.9997C7.73301 23.9997 6.81634 24.1219 5.91634 24.3663C5.01634 24.6108 4.15523 24.9552 3.33301 25.3997C2.86634 25.6441 2.41634 25.633 1.98301 25.3663C1.54967 25.0997 1.33301 24.7108 1.33301 24.1997V8.13301C1.33301 7.88856 1.39412 7.65523 1.51634 7.43301C1.63856 7.21079 1.8219 7.04412 2.06634 6.93301C3.08856 6.39967 4.15523 5.99967 5.26634 5.73301C6.37745 5.46634 7.51079 5.33301 8.66634 5.33301C9.95523 5.33301 11.2163 5.49967 12.4497 5.83301C13.683 6.16634 14.8663 6.66634 15.9997 7.33301C17.133 6.66634 18.3163 6.16634 19.5497 5.83301C20.783 5.49967 22.0441 5.33301 23.333 5.33301C24.4886 5.33301 25.6219 5.46634 26.733 5.73301C27.8441 5.99967 28.9108 6.39967 29.933 6.93301C30.1775 7.04412 30.3608 7.21079 30.483 7.43301C30.6052 7.65523 30.6663 7.88856 30.6663 8.13301V24.1997C30.6663 24.7108 30.4497 25.0997 30.0163 25.3663C29.583 25.633 29.133 25.6441 28.6663 25.3997C27.8441 24.9552 26.983 24.6108 26.083 24.3663C25.183 24.1219 24.2663 23.9997 23.333 23.9997C22.333 23.9997 21.3552 24.1275 20.3997 24.383C19.4441 24.6386 18.533 25.0219 17.6663 25.533C17.4219 25.6663 17.1608 25.7719 16.883 25.8497C16.6052 25.9275 16.3108 25.9663 15.9997 25.9663ZM18.6663 11.6997C18.6663 11.4997 18.7386 11.2941 18.883 11.083C19.0275 10.8719 19.1886 10.733 19.3663 10.6663C20.0108 10.4441 20.6552 10.2775 21.2997 10.1663C21.9441 10.0552 22.6219 9.99967 23.333 9.99967C23.7775 9.99967 24.2163 10.0275 24.6497 10.083C25.083 10.1386 25.5108 10.2108 25.933 10.2997C26.133 10.3441 26.3052 10.4552 26.4497 10.633C26.5941 10.8108 26.6663 11.0108 26.6663 11.233C26.6663 11.6108 26.5441 11.8886 26.2997 12.0663C26.0552 12.2441 25.7441 12.2886 25.3663 12.1997C25.0552 12.133 24.7275 12.083 24.383 12.0497C24.0386 12.0163 23.6886 11.9997 23.333 11.9997C22.7552 11.9997 22.1886 12.0552 21.633 12.1663C21.0775 12.2775 20.5441 12.4219 20.033 12.5997C19.633 12.7552 19.3052 12.7441 19.0497 12.5663C18.7941 12.3886 18.6663 12.0997 18.6663 11.6997ZM18.6663 19.033C18.6663 18.833 18.7386 18.6275 18.883 18.4163C19.0275 18.2052 19.1886 18.0663 19.3663 17.9997C20.0108 17.7775 20.6552 17.6108 21.2997 17.4997C21.9441 17.3886 22.6219 17.333 23.333 17.333C23.7775 17.333 24.2163 17.3608 24.6497 17.4163C25.083 17.4719 25.5108 17.5441 25.933 17.633C26.133 17.6775 26.3052 17.7886 26.4497 17.9663C26.5941 18.1441 26.6663 18.3441 26.6663 18.5663C26.6663 18.9441 26.5441 19.2219 26.2997 19.3997C26.0552 19.5775 25.7441 19.6219 25.3663 19.533C25.0552 19.4663 24.7275 19.4163 24.383 19.383C24.0386 19.3497 23.6886 19.333 23.333 19.333C22.7552 19.333 22.1886 19.383 21.633 19.483C21.0775 19.583 20.5441 19.7219 20.033 19.8997C19.633 20.0552 19.3052 20.0497 19.0497 19.883C18.7941 19.7163 18.6663 19.433 18.6663 19.033ZM18.6663 15.3663C18.6663 15.1663 18.7386 14.9608 18.883 14.7497C19.0275 14.5386 19.1886 14.3997 19.3663 14.333C20.0108 14.1108 20.6552 13.9441 21.2997 13.833C21.9441 13.7219 22.6219 13.6663 23.333 13.6663C23.7775 13.6663 24.2163 13.6941 24.6497 13.7497C25.083 13.8052 25.5108 13.8775 25.933 13.9663C26.133 14.0108 26.3052 14.1219 26.4497 14.2997C26.5941 14.4775 26.6663 14.6775 26.6663 14.8997C26.6663 15.2775 26.5441 15.5552 26.2997 15.733C26.0552 15.9108 25.7441 15.9552 25.3663 15.8663C25.0552 15.7997 24.7275 15.7497 24.383 15.7163C24.0386 15.683 23.6886 15.6663 23.333 15.6663C22.7552 15.6663 22.1886 15.7219 21.633 15.833C21.0775 15.9441 20.5441 16.0886 20.033 16.2663C19.633 16.4219 19.3052 16.4108 19.0497 16.233C18.7941 16.0552 18.6663 15.7663 18.6663 15.3663Z" fill="#939394"/>
</g>
</svg>
