<svg width="32" height="32" viewBox="0 0 32 32" fill="none" xmlns="http://www.w3.org/2000/svg">
<mask id="mask0_84_415" style="mask-type:alpha" maskUnits="userSpaceOnUse" x="0" y="0" width="32" height="32">
<rect width="32" height="32" fill="#D9D9D9"/>
</mask>
<g mask="url(#mask0_84_415)">
<path d="M5.33301 25.3337V13.3337C5.33301 12.9114 5.42745 12.5114 5.61634 12.1337C5.80523 11.7559 6.06634 11.4448 6.39967 11.2003L14.3997 5.20033C14.8663 4.84477 15.3997 4.66699 15.9997 4.66699C16.5997 4.66699 17.133 4.84477 17.5997 5.20033L25.5997 11.2003C25.933 11.4448 26.1941 11.7559 26.383 12.1337C26.5719 12.5114 26.6663 12.9114 26.6663 13.3337V25.3337C26.6663 26.067 26.4052 26.6948 25.883 27.217C25.3608 27.7392 24.733 28.0003 23.9997 28.0003H19.9997C19.6219 28.0003 19.3052 27.8725 19.0497 27.617C18.7941 27.3614 18.6663 27.0448 18.6663 26.667V20.0003C18.6663 19.6225 18.5386 19.3059 18.283 19.0503C18.0275 18.7948 17.7108 18.667 17.333 18.667H14.6663C14.2886 18.667 13.9719 18.7948 13.7163 19.0503C13.4608 19.3059 13.333 19.6225 13.333 20.0003V26.667C13.333 27.0448 13.2052 27.3614 12.9497 27.617C12.6941 27.8725 12.3775 28.0003 11.9997 28.0003H7.99967C7.26634 28.0003 6.63856 27.7392 6.11634 27.217C5.59412 26.6948 5.33301 26.067 5.33301 25.3337Z" fill="#050317"/>
</g>
</svg>
