<svg width="25" height="25" viewBox="0 0 25 25" fill="none" xmlns="http://www.w3.org/2000/svg">
<mask id="mask0_23_325" style="mask-type:alpha" maskUnits="userSpaceOnUse" x="0" y="0" width="25" height="25">
<rect x="0.970215" y="0.970459" width="24" height="24" fill="#D9D9D9"/>
</mask>
<g mask="url(#mask0_23_325)">
<path d="M15.7988 17.2132L12.9704 20.0416C11.9922 21.0198 10.8137 21.5089 9.43484 21.5089C8.05598 21.5089 6.87747 21.0198 5.8993 20.0416C4.92114 19.0635 4.43206 17.885 4.43206 16.5061C4.43206 15.1272 4.92114 13.9487 5.8993 12.9706L8.72773 10.1421L10.1419 11.5564L7.31352 14.3848C6.72426 14.974 6.42963 15.6811 6.42963 16.5061C6.42963 17.3311 6.72426 18.0382 7.31352 18.6274C7.90277 19.2167 8.60988 19.5113 9.43484 19.5113C10.2598 19.5113 10.9669 19.2167 11.5562 18.6274L14.3846 15.799L15.7988 17.2132ZM10.8491 16.5061L9.43484 15.0919L15.0917 9.43504L16.5059 10.8492L10.8491 16.5061ZM17.213 15.799L15.7988 14.3848L18.6272 11.5564C19.2165 10.9671 19.5111 10.26 19.5111 9.43504C19.5111 8.61008 19.2165 7.90297 18.6272 7.31372C18.038 6.72446 17.3309 6.42983 16.5059 6.42983C15.6809 6.42983 14.9738 6.72446 14.3846 7.31372L11.5562 10.1421L10.1419 8.72793L12.9704 5.8995C13.9485 4.92134 15.127 4.43226 16.5059 4.43226C17.8848 4.43226 19.0633 4.92134 20.0414 5.8995C21.0196 6.87767 21.5087 8.05618 21.5087 9.43504C21.5087 10.8139 21.0196 11.9924 20.0414 12.9706L17.213 15.799Z" fill="#1C1B1F"/>
</g>
</svg>
