<svg width="80" height="80" viewBox="0 0 80 80" fill="none" xmlns="http://www.w3.org/2000/svg">
  <g stroke="#111" stroke-width="2.4" stroke-linecap="round" stroke-linejoin="round">
    <circle cx="40" cy="21" r="11" />
    <path d="M12 64c2-14 10-20 28-20s26 6 28 20" />
    <path d="M24 53c4 6 9 10 16 10s12-4 16-10" />
    <path d="M34 10c1-4 3-6 6-6s5 2 6 6" />
    <path d="M22 29c-5 3-8 7-10 12" />
    <path d="M58 29c5 3 8 7 10 12" />
    <path d="M14 71c8-8 18-11 26-11s18 3 26 11" />
  </g>
</svg>



