<svg width="126" height="46" viewBox="0 0 126 46" fill="none" xmlns="http://www.w3.org/2000/svg">
<path d="M119.076 45.184C116.431 45.184 114.425 44.5653 113.06 43.328C111.695 42.048 111.012 40.2347 111.012 37.888C111.012 36.864 111.14 35.7547 111.396 34.56L111.908 32.064C112.079 31.3387 112.164 30.5493 112.164 29.696C112.164 27.648 111.396 26.624 109.86 26.624C109.177 26.624 108.452 26.816 107.684 27.2C106.959 27.584 106.105 28.1813 105.124 28.992L101.796 44.8H92.5801L101.86 1.28L111.332 0L106.532 22.528L118.884 12.8H125.22L112.42 21.696C113.06 21.5253 113.764 21.44 114.532 21.44C116.836 21.44 118.585 22.144 119.78 23.552C120.975 24.96 121.572 26.752 121.572 28.928C121.572 29.824 121.487 30.6347 121.316 31.36L120.612 34.56C120.399 35.328 120.292 36.0107 120.292 36.608C120.292 38.1867 121.124 38.976 122.788 38.976C123.727 38.976 124.324 38.912 124.58 38.784C124.836 38.656 124.985 38.592 125.028 38.592C124.943 40 124.537 41.1947 123.812 42.176C123.129 43.1573 122.319 43.904 121.38 44.416C120.484 44.928 119.716 45.184 119.076 45.184Z" fill="#050317"/>
<path d="M75.3016 12.8H84.5176L83.6856 16.768C85.1362 15.488 86.4376 14.5067 87.5896 13.824C88.7842 13.1414 90.0642 12.8 91.4296 12.8C92.7949 12.8 93.8616 13.2694 94.6296 14.208C95.4402 15.1467 95.8456 16.2774 95.8456 17.6C95.8456 18.8374 95.4402 19.9254 94.6296 20.864C93.8189 21.8027 92.6882 22.272 91.2376 22.272C90.2989 22.272 89.6589 22.0587 89.3176 21.632C89.0189 21.1627 88.7842 20.5014 88.6136 19.648C88.4856 19.0934 88.3576 18.688 88.2296 18.432C88.1016 18.176 87.8669 18.048 87.5256 18.048C86.6296 18.048 85.8616 18.24 85.2216 18.624C84.6242 18.9654 83.8349 19.584 82.8536 20.48L77.7336 44.8H68.5176L75.3016 12.8Z" fill="#050317"/>
<path d="M52.1685 45.0561C49.0111 45.0561 46.5151 44.2455 44.6805 42.6241C42.8458 41.0028 41.9285 38.4428 41.9285 34.9441C41.9285 32.0428 42.5258 28.8215 43.7205 25.2801C44.9151 21.7388 46.8351 18.6881 49.4805 16.1281C52.1258 13.5255 55.4538 12.2241 59.4645 12.2241C64.9258 12.2241 67.6565 15.6375 67.6565 22.4641V22.5281C67.7845 22.5708 68.0191 22.5921 68.3605 22.5921C69.7685 22.5921 71.3898 22.2295 73.2245 21.5041C75.0591 20.7361 76.7231 19.8188 78.2165 18.7521L78.7925 20.4801C77.5551 21.8028 75.9338 22.9335 73.9285 23.8721C71.9658 24.7681 69.8111 25.4081 67.4645 25.7921C67.1231 29.6748 66.2485 33.0668 64.8405 35.9681C63.4325 38.8695 61.6191 41.1095 59.4005 42.6881C57.1818 44.2668 54.7711 45.0561 52.1685 45.0561ZM54.7285 39.2961C55.7525 39.2961 56.7765 38.7201 57.8005 37.5681C58.8245 36.3735 59.7205 34.7735 60.4885 32.7681C61.2565 30.7201 61.8111 28.4588 62.1525 25.9841C61.0005 25.7281 60.4245 24.8321 60.4245 23.2961C60.4245 21.5468 61.0858 20.3948 62.4085 19.8401C62.3231 18.4321 62.1098 17.4721 61.7685 16.9601C61.4271 16.4055 60.8298 16.1281 59.9765 16.1281C58.5685 16.1281 57.2031 17.1521 55.8805 19.2001C54.5578 21.2481 53.4911 23.7015 52.6805 26.5601C51.8698 29.4188 51.4645 31.9361 51.4645 34.1121C51.4645 36.1601 51.6991 37.5468 52.1685 38.2721C52.6378 38.9548 53.4911 39.2961 54.7285 39.2961Z" fill="#050317"/>
<path d="M6.848 45.184C4.8 45.184 3.136 44.544 1.856 43.264C0.618667 41.984 0 40.064 0 37.504C0 36.4374 0.170667 35.0507 0.512 33.344L4.864 12.8H14.08L9.472 34.56C9.344 35.072 9.28 35.6054 9.28 36.16C9.28 38.0374 9.92 38.976 11.2 38.976C12.3947 38.976 13.4187 38.4854 14.272 37.504C15.1253 36.48 15.808 35.0934 16.32 33.344L20.672 12.8H29.888L25.28 34.56C25.0667 35.6267 24.96 36.3947 24.96 36.864C24.96 38.272 25.6853 38.976 27.136 38.976C29.0987 38.976 30.912 37.7387 32.576 35.264C34.2827 32.7894 35.648 29.8454 36.672 26.432C37.696 23.0187 38.208 20.0747 38.208 17.6C38.1227 17.8134 37.8453 17.984 37.376 18.112C36.9067 18.1974 36.5013 18.24 36.16 18.24C35.4347 18.24 34.8587 17.8987 34.432 17.216C34.048 16.5334 33.856 15.7867 33.856 14.976C33.856 13.952 34.176 13.12 34.816 12.48C35.4987 11.84 36.5013 11.52 37.824 11.52C39.232 11.52 40.256 12.0534 40.896 13.12C41.536 14.144 41.856 15.4667 41.856 17.088C41.856 20.928 41.1947 25.0454 39.872 29.44C38.5493 33.792 36.5227 37.504 33.792 40.576C31.0613 43.648 27.6693 45.184 23.616 45.184C21.5253 45.184 19.8187 44.736 18.496 43.84C17.1733 42.944 16.32 41.6 15.936 39.808C13.5467 43.392 10.5173 45.184 6.848 45.184Z" fill="#050317"/>
</svg>
