<svg width="139" height="73" viewBox="0 0 139 73" fill="none" xmlns="http://www.w3.org/2000/svg">
<path d="M119.253 72.6321C117.248 72.6321 115.477 71.9707 113.941 70.6481C112.448 69.3681 111.701 67.7254 111.701 65.7201C111.701 63.8427 112.171 62.3068 113.109 61.1121C114.048 59.9174 115.264 58.9787 116.757 58.2961C118.251 57.6134 120.256 56.8881 122.773 56.1201L123.413 53.3041C121.237 55.7787 118.635 57.0161 115.605 57.0161C113.557 57.0161 111.893 56.3761 110.613 55.0961C109.376 53.8161 108.757 51.8961 108.757 49.3361C108.757 48.2694 108.928 46.8827 109.269 45.1761L113.621 24.6321H122.837L118.229 46.3921C118.101 46.9041 118.037 47.4374 118.037 47.9921C118.037 49.8694 118.677 50.8081 119.957 50.8081C121.152 50.8081 122.176 50.3174 123.029 49.3361C123.883 48.3121 124.565 46.9254 125.077 45.1761L129.429 24.6321H138.709L130.901 61.7521C130.048 65.8481 128.533 68.6854 126.357 70.2641C124.224 71.8427 121.856 72.6321 119.253 72.6321ZM117.781 66.9361C118.549 66.9361 119.275 66.5307 119.957 65.7201C120.64 64.9521 121.173 63.6934 121.557 61.9441L122.325 58.1681C120.064 58.9361 118.315 59.8321 117.077 60.8561C115.84 61.8801 115.221 63.2027 115.221 64.8241C115.221 65.3361 115.477 65.8054 115.989 66.2321C116.501 66.7014 117.099 66.9361 117.781 66.9361Z" fill="#050317"/>
<path d="M89.5589 24.6321H98.7749L97.9429 28.6001C99.3936 27.3201 100.695 26.3387 101.847 25.6561C103.042 24.9734 104.322 24.6321 105.687 24.6321C107.052 24.6321 108.119 25.1014 108.887 26.0401C109.698 26.9787 110.103 28.1094 110.103 29.4321C110.103 30.6694 109.698 31.7574 108.887 32.6961C108.076 33.6347 106.946 34.1041 105.495 34.1041C104.556 34.1041 103.916 33.8907 103.575 33.4641C103.276 32.9947 103.042 32.3334 102.871 31.4801C102.743 30.9254 102.615 30.5201 102.487 30.2641C102.359 30.0081 102.124 29.8801 101.783 29.8801C100.887 29.8801 100.119 30.0721 99.4789 30.4561C98.8816 30.7974 98.0922 31.4161 97.1109 32.3121L91.9909 56.6321H82.7749L89.5589 24.6321Z" fill="#050317"/>
<path d="M59.1995 57.016C56.7675 57.016 54.7408 56.184 53.1195 54.52C51.4982 52.856 50.6875 50.2533 50.6875 46.712C50.6875 43.5547 51.3062 40.248 52.5435 36.792C53.8235 33.2933 55.7008 30.3493 58.1755 27.96C60.6928 25.528 63.6795 24.312 67.1355 24.312C68.8848 24.312 70.1862 24.6107 71.0395 25.208C71.8928 25.8053 72.3195 26.5947 72.3195 27.576V28.024L73.0235 24.632H82.2395L77.6315 46.392C77.4608 47.032 77.3755 47.7147 77.3755 48.44C77.3755 50.2747 78.2502 51.192 79.9995 51.192C81.1942 51.192 82.2182 50.6373 83.0715 49.528C83.9675 48.4187 84.6715 46.968 85.1835 45.176H87.8715C86.2928 49.784 84.3302 52.92 81.9835 54.584C79.6795 56.2053 77.3542 57.016 75.0075 57.016C73.2155 57.016 71.7648 56.5253 70.6555 55.544C69.5888 54.52 68.9488 53.048 68.7355 51.128C67.4982 52.8773 66.1115 54.3067 64.5755 55.416C63.0822 56.4827 61.2902 57.016 59.1995 57.016ZM63.3595 50.808C64.4262 50.808 65.4715 50.3173 66.4955 49.336C67.5622 48.312 68.2875 46.9253 68.6715 45.176L71.7435 30.712C71.7435 30.1573 71.5302 29.624 71.1035 29.112C70.6768 28.5573 70.0155 28.28 69.1195 28.28C67.4128 28.28 65.8768 29.2827 64.5115 31.288C63.1462 33.2507 62.0795 35.64 61.3115 38.456C60.5435 41.2293 60.1595 43.6827 60.1595 45.816C60.1595 47.9493 60.4582 49.3147 61.0555 49.912C61.6955 50.5093 62.4635 50.808 63.3595 50.808Z" fill="#050317"/>
<path d="M45.1448 21.176C43.7368 21.176 42.5422 20.6853 41.5608 19.704C40.5795 18.7227 40.0888 17.528 40.0888 16.12C40.0888 14.712 40.5795 13.5173 41.5608 12.536C42.5422 11.512 43.7368 11 45.1448 11C46.5528 11 47.7475 11.512 48.7288 12.536C49.7528 13.5173 50.2648 14.712 50.2648 16.12C50.2648 17.528 49.7528 18.7227 48.7288 19.704C47.7475 20.6853 46.5528 21.176 45.1448 21.176ZM40.7928 57.016C38.7448 57.016 37.0808 56.376 35.8008 55.096C34.5635 53.816 33.9448 51.896 33.9448 49.336C33.9448 48.2693 34.1155 46.8827 34.4568 45.176L38.8088 24.632H48.0248L43.4168 46.392C43.2462 47.032 43.1608 47.7147 43.1608 48.44C43.1608 49.2933 43.3528 49.912 43.7368 50.296C44.1635 50.6373 44.8462 50.808 45.7848 50.808C47.0222 50.808 48.1742 50.296 49.2408 49.272C50.3075 48.2053 51.0755 46.84 51.5448 45.176H54.2328C52.6542 49.784 50.6275 52.92 48.1528 54.584C45.6782 56.2053 43.2248 57.016 40.7928 57.016Z" fill="#050317"/>
<path d="M8.512 57.016C6.08 57.016 4.05333 56.184 2.432 54.52C0.810667 52.856 0 50.2534 0 46.712C0 43.5547 0.618667 40.248 1.856 36.792C3.136 33.2934 5.01333 30.3494 7.488 27.96C10.0053 25.528 12.992 24.312 16.448 24.312C18.1973 24.312 19.4987 24.6107 20.352 25.208C21.2053 25.8054 21.632 26.5947 21.632 27.576V27.832L24.768 13.112L34.24 11.832L26.88 46.392C26.7093 47.032 26.624 47.7147 26.624 48.44C26.624 49.2934 26.816 49.912 27.2 50.296C27.6267 50.6374 28.3093 50.808 29.248 50.808C30.4427 50.808 31.4667 50.296 32.32 49.272C33.216 48.248 33.92 46.8827 34.432 45.176H37.12C34.5173 52.8134 30.2293 56.632 24.256 56.632C22.5067 56.632 21.0773 56.1627 19.968 55.224C18.9013 54.2854 18.24 52.92 17.984 51.128C16.8747 52.8347 15.5307 54.2427 13.952 55.352C12.416 56.4614 10.6027 57.016 8.512 57.016ZM12.672 50.808C13.696 50.808 14.72 50.3387 15.744 49.4C16.8107 48.4614 17.536 47.16 17.92 45.496V45.176L21.056 30.52C20.672 29.0267 19.7973 28.28 18.432 28.28C16.7253 28.28 15.1893 29.2827 13.824 31.288C12.4587 33.2507 11.392 35.64 10.624 38.456C9.856 41.2294 9.472 43.6827 9.472 45.816C9.472 47.9494 9.77067 49.3147 10.368 49.912C11.008 50.5094 11.776 50.808 12.672 50.808Z" fill="#050317"/>
</svg>
