<svg width="24" height="24" viewBox="0 0 24 24" fill="none" xmlns="http://www.w3.org/2000/svg">
<mask id="mask0_186_645" style="mask-type:alpha" maskUnits="userSpaceOnUse" x="0" y="0" width="24" height="24">
<rect width="24" height="24" fill="#D9D9D9"/>
</mask>
<g mask="url(#mask0_186_645)">
<path d="M7.46821 5.94827C9.30257 7.3254 11.2756 10.1176 12 11.6161C12.7245 10.1177 14.6975 7.32537 16.5319 5.94827C17.8555 4.9546 20 4.18575 20 6.63227C20 7.12087 19.7199 10.7368 19.5556 11.3238C18.9844 13.3648 16.9033 13.8853 15.0521 13.5702C18.288 14.121 19.1111 15.9452 17.3334 17.7694C13.9572 21.2339 12.4808 16.9001 12.1023 15.7896C12.0329 15.5861 12.0005 15.4908 12 15.5718C11.9995 15.4908 11.9671 15.5861 11.8977 15.7896C11.5194 16.9001 10.043 21.234 6.66658 17.7694C4.88882 15.9452 5.71196 14.1209 8.94786 13.5702C7.09662 13.8853 5.01547 13.3648 4.44444 11.3238C4.28013 10.7367 4 7.12082 4 6.63227C4 4.18575 6.14459 4.9546 7.46812 5.94827H7.46821Z" fill="#D0D0D1"/>
</g>
</svg>
