<svg width="24" height="24" viewBox="0 0 24 24" fill="none" xmlns="http://www.w3.org/2000/svg">
<mask id="mask0_63_333" style="mask-type:alpha" maskUnits="userSpaceOnUse" x="0" y="0" width="24" height="24">
<rect width="24" height="24" fill="#D9D9D9"/>
</mask>
<g mask="url(#mask0_63_333)">
<path d="M7.61923 6.17412C9.39245 7.50534 11.2998 10.2045 12 11.653C12.7003 10.2046 14.6075 7.50532 16.3808 6.17412C17.6603 5.21356 19.7334 4.47033 19.7334 6.83532C19.7334 7.30764 19.4626 10.803 19.3037 11.3705C18.7517 13.3434 16.7399 13.8466 14.9504 13.5421C18.0784 14.0744 18.8741 15.8378 17.1557 17.6013C13.8919 20.9503 12.4647 16.761 12.0989 15.6875C12.0318 15.4907 12.0004 15.3986 12 15.4769C11.9995 15.3986 11.9681 15.4907 11.9011 15.6875C11.5354 16.761 10.1082 20.9504 6.84431 17.6013C5.1258 15.8378 5.92151 14.0743 9.04956 13.5421C7.26002 13.8466 5.24823 13.3434 4.69623 11.3705C4.5374 10.803 4.2666 7.30758 4.2666 6.83532C4.2666 4.47033 6.33972 5.21356 7.61914 6.17412H7.61923Z" fill="#050317"/>
</g>
</svg>
