<svg width="24" height="24" viewBox="0 0 24 24" fill="none" xmlns="http://www.w3.org/2000/svg">
<mask id="mask0_186_691" style="mask-type:alpha" maskUnits="userSpaceOnUse" x="0" y="0" width="24" height="24">
<rect width="24" height="24" fill="#D9D9D9"/>
</mask>
<g mask="url(#mask0_186_691)">
<path d="M12.0001 4C7.58188 4 4 7.58178 4 12C4 16.4185 7.58188 20 12.0001 20C16.4189 20 20.0004 16.4185 20.0004 12C20.0004 7.58207 16.4189 4.00038 12 4.00038L12.0001 4ZM15.669 15.5384C15.5257 15.7734 15.218 15.8479 14.983 15.7036C13.1047 14.5563 10.7401 14.2964 7.95531 14.9327C7.68697 14.9938 7.41948 14.8257 7.35834 14.5573C7.29691 14.2888 7.46438 14.0213 7.73339 13.9602C10.7809 13.2637 13.3949 13.5637 15.5037 14.8524C15.7387 14.9967 15.8132 15.3034 15.669 15.5384ZM16.6482 13.3598C16.4676 13.6535 16.0836 13.7462 15.7903 13.5656C13.6399 12.2436 10.3619 11.8608 7.81832 12.6329C7.48845 12.7325 7.14004 12.5466 7.03993 12.2173C6.94057 11.8874 7.12657 11.5397 7.45587 11.4394C10.3613 10.5578 13.9733 10.9848 16.4428 12.5024C16.7361 12.6829 16.8287 13.0669 16.6482 13.3598ZM16.7322 11.0914C14.1538 9.55997 9.89977 9.41915 7.43801 10.1663C7.0427 10.2862 6.62465 10.063 6.50485 9.66773C6.38505 9.27222 6.60803 8.85446 7.00362 8.73428C9.82956 7.87641 14.5273 8.04215 17.4959 9.80443C17.8522 10.0155 17.9688 10.4747 17.7577 10.8298C17.5475 11.1853 17.087 11.3026 16.7326 11.0914H16.7322Z" fill="#D0D0D1"/>
</g>
</svg>
