<svg width="24" height="24" viewBox="0 0 24 24" fill="none" xmlns="http://www.w3.org/2000/svg">
<mask id="mask0_63_339" style="mask-type:alpha" maskUnits="userSpaceOnUse" x="0" y="0" width="24" height="24">
<rect width="24" height="24" fill="#D9D9D9"/>
</mask>
<g mask="url(#mask0_63_339)">
<path d="M15.7114 11.4157C15.6425 11.3827 15.5725 11.3509 15.5016 11.3204C15.3781 9.04485 14.1347 7.74208 12.0468 7.72875C12.0374 7.72869 12.028 7.72869 12.0185 7.72869C10.7697 7.72869 9.73109 8.26174 9.09183 9.23173L10.2401 10.0194C10.7176 9.29486 11.4671 9.1404 12.0191 9.1404C12.0254 9.1404 12.0318 9.1404 12.0381 9.14046C12.7256 9.14484 13.2443 9.34472 13.5801 9.7345C13.8244 10.0183 13.9878 10.4104 14.0688 10.9053C13.4592 10.8017 12.8001 10.7699 12.0954 10.8103C10.1104 10.9246 8.83426 12.0823 8.91997 13.691C8.96346 14.507 9.36998 15.209 10.0646 15.6676C10.6519 16.0553 11.4083 16.2448 12.1944 16.2019C13.2325 16.145 14.0469 15.7489 14.6151 15.0247C15.0466 14.4747 15.3195 13.7619 15.44 12.8638C15.9348 13.1624 16.3014 13.5553 16.5039 14.0277C16.8483 14.8306 16.8683 16.15 15.7918 17.2257C14.8485 18.168 13.7147 18.5757 12.0011 18.5883C10.1003 18.5742 8.66282 17.9646 7.72817 16.7764C6.85296 15.6638 6.40064 14.0568 6.38377 12C6.40064 9.94315 6.85296 8.33613 7.72817 7.22356C8.66282 6.03541 10.1003 5.42583 12.0011 5.41171C13.9157 5.42594 15.3783 6.03845 16.3487 7.23233C16.8245 7.8178 17.1833 8.55407 17.4198 9.41253L18.7653 9.05352C18.4787 7.99685 18.0276 7.08631 17.4138 6.33117C16.1697 4.80056 14.3502 4.01626 12.0058 4H11.9964C9.6568 4.01621 7.85768 4.80348 6.64903 6.33994C5.57349 7.7072 5.0187 9.60964 5.00006 11.9944L5 12L5.00006 12.0056C5.0187 14.3903 5.57349 16.2928 6.64903 17.6601C7.85768 19.1965 9.6568 19.9838 11.9964 20H12.0058C14.0858 19.9856 15.552 19.441 16.7598 18.2343C18.3401 16.6555 18.2925 14.6766 17.7717 13.4618C17.398 12.5906 16.6856 11.883 15.7114 11.4157ZM12.12 14.7923C11.25 14.8413 10.3462 14.4508 10.3016 13.6143C10.2686 12.9942 10.743 12.3022 12.1734 12.2197C12.3373 12.2103 12.498 12.2057 12.6559 12.2057C13.1755 12.2057 13.6616 12.2561 14.1035 12.3528C13.9387 14.4113 12.9718 14.7455 12.12 14.7923Z" fill="#050317"/>
</g>
</svg>
