<svg width="24" height="24" viewBox="0 0 24 24" fill="none" xmlns="http://www.w3.org/2000/svg">
<mask id="mask0_186_439" style="mask-type:alpha" maskUnits="userSpaceOnUse" x="0" y="0" width="24" height="24">
<rect width="24" height="24" fill="#D9D9D9"/>
</mask>
<g mask="url(#mask0_186_439)">
<path d="M7.03808 14.9205C6.63691 14.9219 6.24516 15.0422 5.91227 15.2661C5.57937 15.4899 5.32025 15.8074 5.16759 16.1784C5.01493 16.5494 4.97557 16.9573 5.05449 17.3506C5.1334 17.7439 5.32705 18.1051 5.611 18.3885C5.89496 18.6719 6.25648 18.8648 6.64997 18.9429C7.04346 19.0211 7.45127 18.9809 7.82196 18.8275C8.19264 18.6741 8.50959 18.4143 8.7328 18.081C8.95601 17.7477 9.07549 17.3557 9.07615 16.9545C9.07446 16.4149 8.85907 15.8979 8.4771 15.5167C8.09514 15.1355 7.57772 14.9211 7.03808 14.9205Z" fill="#050317"/>
<path d="M5 9.66678V12.5795C6.75 12.5795 8.43067 13.0975 9.66678 14.3332C10.9029 15.569 11.4168 17.2463 11.4168 19H14.3332C14.3332 13.8994 10.1043 9.66678 5 9.66678Z" fill="#050317"/>
<path d="M5 5V7.91308C11.2344 7.91308 16.0795 12.7619 16.0795 19H19C19 11.2818 12.7293 5 5 5Z" fill="#050317"/>
</g>
</svg>
