<svg width="24" height="24" viewBox="0 0 24 24" fill="none" xmlns="http://www.w3.org/2000/svg">
<mask id="mask0_61_328" style="mask-type:alpha" maskUnits="userSpaceOnUse" x="0" y="0" width="24" height="24">
<rect width="24" height="24" fill="#D9D9D9"/>
</mask>
<g mask="url(#mask0_61_328)">
<path d="M15.0484 4H12.3519V14.8985C12.3519 16.1971 11.3148 17.2638 10.0242 17.2638C8.73356 17.2638 7.69646 16.1971 7.69646 14.8985C7.69646 13.6232 8.71051 12.5797 9.95505 12.5333V9.79711C7.21248 9.84347 5 12.0928 5 14.8985C5 17.7276 7.25857 20 10.0472 20C12.8358 20 15.0944 17.7044 15.0944 14.8985V9.31013C16.1085 10.0522 17.353 10.4928 18.6667 10.516V7.77971C16.6386 7.71015 15.0484 6.04058 15.0484 4Z" fill="#050317"/>
</g>
</svg>
