<svg width="24" height="24" viewBox="0 0 24 24" fill="none" xmlns="http://www.w3.org/2000/svg">
<mask id="mask0_61_295" style="mask-type:alpha" maskUnits="userSpaceOnUse" x="0" y="0" width="24" height="24">
<rect width="24" height="24" fill="#D9D9D9"/>
</mask>
<g mask="url(#mask0_61_295)">
</g>
<g clip-path="url(#clip0_61_295)">
<path fill-rule="evenodd" clip-rule="evenodd" d="M20 11C20 15.4183 16.4183 19 12 19C7.58172 19 4 15.4183 4 11C4 6.58172 7.58172 3 12 3C16.4183 3 20 6.58172 20 11ZM11.9943 6.19995C14.9388 6.19995 17.3348 8.14395 17.3348 10.534L17.3358 10.5345C17.3358 11.491 16.9648 12.352 16.1908 13.201C15.0703 14.4905 12.5648 16.0615 11.9948 16.3015C11.44 16.5351 11.5048 16.1689 11.5303 16.0248C11.531 16.0208 11.5317 16.017 11.5323 16.0135C11.5458 15.9335 11.6083 15.5565 11.6083 15.5565C11.6258 15.42 11.6448 15.2085 11.5908 15.0735C11.5308 14.9245 11.2943 14.8475 11.1203 14.81C8.55381 14.4705 6.65381 12.6765 6.65381 10.534C6.65381 8.14445 9.04981 6.19995 11.9943 6.19995Z" fill="#050317"/>
<path d="M15.5581 11.914C15.6146 11.914 15.6601 11.8685 15.6601 11.812V11.433C15.6601 11.377 15.6141 11.331 15.5581 11.331H14.5386V10.9375H15.5581C15.6146 10.9375 15.6601 10.892 15.6601 10.8355V10.457C15.6601 10.401 15.6141 10.355 15.5581 10.355H14.5386V9.96153H15.5581C15.6146 9.96153 15.6601 9.91603 15.6601 9.85953V9.48103C15.6601 9.42503 15.6141 9.37903 15.5581 9.37903H14.0576C14.0011 9.37903 13.9556 9.42453 13.9556 9.48103V9.48303V11.81V11.812C13.9556 11.8685 14.0011 11.914 14.0576 11.914H15.5581Z" fill="#050317"/>
<path d="M10.0083 11.914C10.0648 11.914 10.1103 11.8685 10.1103 11.812V11.433C10.1103 11.377 10.0643 11.331 10.0083 11.331H8.98876V9.48103C8.98876 9.42503 8.94276 9.37903 8.88676 9.37903H8.50776C8.45126 9.37903 8.40576 9.42453 8.40576 9.48103V11.81V11.812C8.40576 11.8685 8.45126 11.914 8.50776 11.914H10.0083Z" fill="#050317"/>
<path d="M10.9112 9.37903H10.5327C10.4763 9.37903 10.4307 9.42469 10.4307 9.48103V11.8115C10.4307 11.8679 10.4763 11.9135 10.5327 11.9135H10.9112C10.9675 11.9135 11.0132 11.8679 11.0132 11.8115V9.48103C11.0132 9.42469 10.9675 9.37903 10.9112 9.37903Z" fill="#050317"/>
<path d="M13.4899 9.37903H13.1109C13.0544 9.37903 13.0089 9.42453 13.0089 9.48103V10.8655L11.9424 9.42553C11.9399 9.42203 11.9369 9.41853 11.9344 9.41503C11.9344 9.41503 11.9344 9.41503 11.9339 9.41453C11.9319 9.41253 11.9299 9.41003 11.9279 9.40803C11.9274 9.40753 11.9264 9.40703 11.9259 9.40653C11.9239 9.40503 11.9224 9.40353 11.9204 9.40203C11.9194 9.40153 11.9184 9.40053 11.9174 9.40003C11.9159 9.39853 11.9139 9.39753 11.9119 9.39653C11.9109 9.39603 11.9099 9.39503 11.9089 9.39453C11.9069 9.39353 11.9054 9.39253 11.9034 9.39153C11.9024 9.39103 11.9014 9.39053 11.9004 9.39003C11.8984 9.38903 11.8964 9.38803 11.8944 9.38753C11.8934 9.38753 11.8924 9.38653 11.8909 9.38653C11.8889 9.38603 11.8869 9.38503 11.8849 9.38453C11.8839 9.38453 11.8824 9.38403 11.8814 9.38353C11.8794 9.38353 11.8774 9.38253 11.8754 9.38203C11.8739 9.38203 11.8724 9.38203 11.8709 9.38153C11.8689 9.38153 11.8674 9.38103 11.8654 9.38103C11.8634 9.38103 11.8619 9.38103 11.8599 9.38103C11.8589 9.38103 11.8574 9.38103 11.8564 9.38103H11.4799C11.4234 9.38103 11.3779 9.42653 11.3779 9.48303V11.814C11.3779 11.8705 11.4234 11.916 11.4799 11.916H11.8589C11.9154 11.916 11.9609 11.8705 11.9609 11.814V10.43L13.0284 11.872C13.0359 11.8825 13.0449 11.891 13.0549 11.8975C13.0549 11.8975 13.0559 11.898 13.0559 11.8985C13.0579 11.9 13.0599 11.901 13.0624 11.9025C13.0634 11.903 13.0644 11.9035 13.0654 11.904C13.0669 11.905 13.0689 11.9055 13.0704 11.9065C13.0719 11.9075 13.0739 11.908 13.0754 11.9085C13.0764 11.9085 13.0774 11.9095 13.0784 11.9095C13.0809 11.9105 13.0829 11.911 13.0854 11.9115C13.0854 11.9115 13.0864 11.9115 13.0869 11.9115C13.0954 11.9135 13.1044 11.915 13.1134 11.915H13.4899C13.5464 11.915 13.5919 11.8695 13.5919 11.813V9.48203C13.5919 9.42553 13.5464 9.38003 13.4899 9.38003V9.37903Z" fill="#050317"/>
</g>
<defs>
<clipPath id="clip0_61_295">
<rect width="16" height="16" fill="white" transform="translate(4 3)"/>
</clipPath>
</defs>
</svg>
