<svg width="24" height="24" viewBox="0 0 24 24" fill="none" xmlns="http://www.w3.org/2000/svg">
<mask id="mask0_186_824" style="mask-type:alpha" maskUnits="userSpaceOnUse" x="0" y="0" width="24" height="24">
<rect width="24" height="24" fill="#D9D9D9"/>
</mask>
<g mask="url(#mask0_186_824)">
<path fill-rule="evenodd" clip-rule="evenodd" d="M4 11.7598C4 7.30191 7.4939 4 11.9998 4C16.5057 4 19.9996 7.30391 19.9996 11.7618C19.9996 16.2197 16.5057 19.5216 11.9998 19.5216C11.1898 19.5216 10.4138 19.4136 9.68384 19.2136C9.54185 19.1756 9.38985 19.1856 9.25585 19.2456L7.6679 19.9456C7.57199 19.9879 7.46716 20.006 7.36263 19.9983C7.25809 19.9906 7.15704 19.9573 7.06836 19.9014C6.97968 19.8455 6.90609 19.7687 6.85405 19.6777C6.80202 19.5867 6.77313 19.4844 6.76992 19.3796L6.72593 17.9556C6.72193 17.7796 6.64193 17.6156 6.51193 17.4996C4.95597 16.1077 4 14.0917 4 11.7598ZM9.54585 10.3018L7.19592 14.0297C6.96993 14.3877 7.40991 14.7897 7.7459 14.5337L10.2698 12.6178C10.3529 12.5547 10.4542 12.5204 10.5585 12.52C10.6628 12.5197 10.7643 12.5533 10.8478 12.6158L12.7178 14.0177C12.8504 14.1173 13.0022 14.1884 13.1637 14.2263C13.3252 14.2643 13.4928 14.2684 13.6559 14.2383C13.819 14.2082 13.9741 14.1447 14.1115 14.0516C14.2488 13.9586 14.3653 13.8381 14.4537 13.6977L16.8057 9.97184C17.0296 9.61385 16.5897 9.20986 16.2537 9.46585L13.7297 11.3818C13.6467 11.4449 13.5454 11.4792 13.4411 11.4795C13.3368 11.4799 13.2352 11.4463 13.1518 11.3838L11.2818 9.98184C11.1492 9.88223 10.9973 9.8112 10.8359 9.77323C10.6744 9.73527 10.5068 9.73119 10.3437 9.76126C10.1806 9.79133 10.0254 9.85489 9.88812 9.94793C9.7508 10.041 9.63426 10.1615 9.54585 10.3018Z" fill="#D0D0D1"/>
</g>
</svg>
