<svg width="24" height="24" viewBox="0 0 24 24" fill="none" xmlns="http://www.w3.org/2000/svg">
<mask id="mask0_186_694" style="mask-type:alpha" maskUnits="userSpaceOnUse" x="0" y="0" width="24" height="24">
<rect width="24" height="24" fill="#D9D9D9"/>
</mask>
<g mask="url(#mask0_186_694)">
<path d="M11.6824 16.9442C11.2802 17.1798 10.8229 17.3049 10.3569 17.307C9.89081 17.309 9.43247 17.1879 9.02818 16.9559C8.62389 16.7238 8.28796 16.3891 8.05434 15.9855C7.82073 15.5819 7.69771 15.1237 7.69771 14.6573C7.69771 14.1909 7.82073 13.7327 8.05434 13.3291C8.28796 12.9255 8.62389 12.5907 9.02818 12.3587C9.43247 12.1267 9.89081 12.0056 10.3569 12.0076C10.8229 12.0096 11.2802 12.1348 11.6824 12.3703V9.49993C10.8936 9.29339 10.0681 9.2706 9.26915 9.43332C8.47023 9.59603 7.71923 9.93993 7.07387 10.4386C6.42851 10.9372 5.90599 11.5773 5.54646 12.3096C5.18694 13.042 5 13.8471 5 14.6631C5 15.479 5.18694 16.2841 5.54646 17.0165C5.90599 17.7488 6.42851 18.3889 7.07387 18.8876C7.71923 19.3862 8.47023 19.7301 9.26915 19.8928C10.0681 20.0555 10.8936 20.0327 11.6824 19.8262V16.9442ZM19.6726 9.32684V13.5185C19.6726 14.2255 19.392 14.9035 18.8925 15.4034C18.393 15.9032 17.7156 16.1841 17.0092 16.1841V9.33261H15.6775V14.6696C15.6776 15.6052 15.4315 16.5244 14.9639 17.3347C14.4964 18.1449 13.8239 18.8177 13.0141 19.2853V14.6696V6.66558C13.0141 5.95863 13.2947 5.28062 13.7942 4.78073C14.2937 4.28084 14.9711 4 15.6775 4V4V6.66558H17.0092C17.3591 6.66558 17.7055 6.73458 18.0288 6.86863C18.352 7.00268 18.6457 7.19915 18.893 7.44682C19.1404 7.6945 19.3365 7.98852 19.4703 8.31209C19.604 8.63566 19.6728 8.98244 19.6726 9.33261V9.32684Z" fill="#D0D0D1"/>
</g>
</svg>
