<svg width="24" height="24" viewBox="0 0 24 24" fill="none" xmlns="http://www.w3.org/2000/svg">
<mask id="mask0_186_471" style="mask-type:alpha" maskUnits="userSpaceOnUse" x="0" y="0" width="24" height="24">
<rect width="24" height="24" fill="#D9D9D9"/>
</mask>
<g mask="url(#mask0_186_471)">
<path d="M13.2723 4.57996C13.0923 4.39634 12.8775 4.25046 12.6404 4.15088C12.4033 4.05129 12.1487 4 11.8915 4C11.6344 4 11.3798 4.05129 11.1427 4.15088C10.9056 4.25046 10.6908 4.39634 10.5107 4.57996L3.56895 11.6492C3.20402 12.0265 3 12.5308 3 13.0556C3 13.5805 3.20402 14.0848 3.56895 14.462L8.52293 19.5079C8.87795 19.8244 9.3369 19.9996 9.81256 20H13.9728C14.2314 19.9998 14.4875 19.9478 14.7257 19.8471C14.964 19.7464 15.1798 19.5991 15.3602 19.4137L20.2178 14.4664C20.5833 14.0895 20.7877 13.5851 20.7877 13.0601C20.7877 12.535 20.5833 12.0306 20.2178 11.6537L13.2731 4.57996H13.2723ZM13.0796 17.4926L12.3866 18.1967C12.3609 18.2235 12.3301 18.2447 12.2959 18.2592C12.2618 18.2737 12.2251 18.2812 12.188 18.2812H11.5951C11.5274 18.2805 11.4624 18.2552 11.412 18.2101L10.7049 17.4911C10.6529 17.4372 10.6237 17.3652 10.6237 17.2903C10.6237 17.2153 10.6529 17.1433 10.7049 17.0894L11.6959 16.0814C11.7214 16.0551 11.752 16.0342 11.7858 16.0199C11.8196 16.0056 11.856 15.9982 11.8927 15.9982C11.9294 15.9982 11.9657 16.0056 11.9995 16.0199C12.0333 16.0342 12.0639 16.0551 12.0894 16.0814L13.0804 17.0902C13.1329 17.144 13.1622 17.2162 13.1622 17.2914C13.1622 17.3666 13.1321 17.4388 13.0796 17.4926ZM13.0796 13.2598L10.3099 16.0822C10.2839 16.1084 10.253 16.1292 10.2189 16.1434C10.1848 16.1575 10.1482 16.1647 10.1113 16.1644H9.51906C9.45095 16.1649 9.38503 16.1404 9.33377 16.0955L8.62892 15.3766C8.57657 15.3225 8.5473 15.2502 8.5473 15.175C8.5473 15.0997 8.57657 15.0274 8.62892 14.9734L11.6966 11.8501C11.7223 11.8239 11.7529 11.8032 11.7867 11.789C11.8205 11.7748 11.8568 11.7675 11.8934 11.7675C11.93 11.7675 11.9663 11.7748 12.0001 11.789C12.0339 11.8032 12.0645 11.8239 12.0902 11.8501L13.0811 12.8596C13.1335 12.913 13.1628 12.9849 13.1628 13.0597C13.1628 13.1345 13.1335 13.2063 13.0811 13.2598H13.0796ZM13.0796 9.02995L8.23239 13.9661C8.2066 13.9927 8.17573 14.0138 8.1416 14.0282C8.10747 14.0426 8.07079 14.05 8.03376 14.0499H7.44082C7.37283 14.0502 7.30713 14.0253 7.25627 13.9802L6.54994 13.2598C6.49795 13.2062 6.46889 13.1344 6.46889 13.0597C6.46889 12.985 6.49795 12.9132 6.54994 12.8596L11.6959 7.6195C11.7215 7.59335 11.7522 7.57257 11.786 7.55839C11.8197 7.54421 11.856 7.53691 11.8927 7.53691C11.9293 7.53691 11.9656 7.54421 11.9994 7.55839C12.0331 7.57257 12.0638 7.59335 12.0894 7.6195L13.0804 8.62749C13.1329 8.68133 13.1622 8.75354 13.1622 8.82872C13.1622 8.9039 13.1321 8.97611 13.0796 9.02995Z" fill="#2AB14C"/>
</g>
</svg>
