<svg width="24" height="24" viewBox="0 0 24 24" fill="none" xmlns="http://www.w3.org/2000/svg">
<mask id="mask0_186_645" style="mask-type:alpha" maskUnits="userSpaceOnUse" x="0" y="0" width="24" height="24">
<rect width="24" height="24" fill="#D9D9D9"/>
</mask>
<g mask="url(#mask0_186_645)">
<path d="M7.6192 6.17413C9.39243 7.50536 11.2997 10.2045 12 11.6531C12.7003 10.2046 14.6075 7.50533 16.3808 6.17413C17.6603 5.21357 19.7333 4.47035 19.7333 6.83533C19.7333 7.30765 19.4625 10.8031 19.3037 11.3705C18.7516 13.3434 16.7399 13.8466 14.9504 13.5421C18.0784 14.0745 18.8741 15.8379 17.1556 17.6013C13.8919 20.9503 12.4647 16.761 12.0988 15.6875C12.0318 15.4907 12.0004 15.3987 12 15.4769C11.9995 15.3987 11.9681 15.4907 11.9011 15.6875C11.5354 16.761 10.1082 20.9505 6.84429 17.6013C5.12578 15.8379 5.92149 14.0743 9.04954 13.5421C7.25999 13.8466 5.24821 13.3434 4.69621 11.3705C4.53737 10.803 4.26658 7.3076 4.26658 6.83533C4.26658 4.47035 6.3397 5.21357 7.61911 6.17413H7.6192Z" fill="#D0D0D1"/>
</g>
</svg>
