<svg width="24" height="24" viewBox="0 0 24 24" fill="none" xmlns="http://www.w3.org/2000/svg">
<mask id="mask0_186_694" style="mask-type:alpha" maskUnits="userSpaceOnUse" x="0" y="0" width="24" height="24">
<rect width="24" height="24" fill="#D9D9D9"/>
</mask>
<g mask="url(#mask0_186_694)">
<path d="M11.1 16.7533C10.6727 17.0036 10.1868 17.1365 9.69166 17.1387C9.19648 17.1408 8.7095 17.0122 8.27994 16.7656C7.85038 16.5191 7.49345 16.1634 7.24524 15.7346C6.99702 15.3058 6.86632 14.819 6.86632 14.3234C6.86632 13.8278 6.99702 13.341 7.24524 12.9122C7.49345 12.4833 7.85038 12.1277 8.27994 11.8811C8.7095 11.6346 9.19648 11.5059 9.69166 11.5081C10.1868 11.5102 10.6727 11.6432 11.1 11.8935V8.84368C10.262 8.62423 9.38483 8.60001 8.53598 8.7729C7.68712 8.94579 6.88918 9.31117 6.20349 9.84097C5.51779 10.3708 4.96261 11.0509 4.58062 11.829C4.19862 12.6071 4 13.4625 4 14.3295C4 15.1965 4.19862 16.0519 4.58062 16.83C4.96261 17.6081 5.51779 18.2882 6.20349 18.818C6.88918 19.3478 7.68712 19.7132 8.53598 19.8861C9.38483 20.059 10.262 20.0348 11.1 19.8153V16.7533ZM19.5897 8.65977V13.1134C19.5897 13.8646 19.2915 14.5849 18.7608 15.1161C18.2301 15.6472 17.5103 15.9456 16.7598 15.9456V8.6659H15.3448V14.3364C15.3449 15.3306 15.0834 16.3072 14.5867 17.1681C14.0899 18.029 13.3754 18.7438 12.515 19.2406V14.3364V5.83218C12.515 5.08104 12.8131 4.36066 13.3438 3.82953C13.8745 3.29839 14.5943 3 15.3448 3V3V5.83218H16.7598C17.1315 5.83218 17.4996 5.90549 17.8431 6.04792C18.1865 6.19034 18.4985 6.3991 18.7613 6.66225C19.0241 6.92541 19.2326 7.23781 19.3747 7.5816C19.5168 7.92539 19.5899 8.29384 19.5897 8.6659V8.65977Z" fill="#D0D0D1"/>
</g>
</svg>
