<svg width="24" height="24" viewBox="0 0 24 24" fill="none" xmlns="http://www.w3.org/2000/svg">
<mask id="mask0_275_209" style="mask-type:alpha" maskUnits="userSpaceOnUse" x="0" y="0" width="24" height="24">
<rect width="24" height="24" fill="#06C655"/>
</mask>
<g mask="url(#mask0_275_209)">
<path d="M5.875 17.6C5.62708 17.6 5.41927 17.5233 5.25156 17.37C5.08385 17.2167 5 17.0267 5 16.8C5 16.5733 5.08385 16.3833 5.25156 16.23C5.41927 16.0767 5.62708 16 5.875 16H6.75V10.4C6.75 9.29333 7.11458 8.31 7.84375 7.45C8.57292 6.59 9.52083 6.02667 10.6875 5.76V5.2C10.6875 4.86667 10.8151 4.58333 11.0703 4.35C11.3255 4.11667 11.6354 4 12 4C12.3646 4 12.6745 4.11667 12.9297 4.35C13.1849 4.58333 13.3125 4.86667 13.3125 5.2V5.76C14.4792 6.02667 15.4271 6.59 16.1562 7.45C16.8854 8.31 17.25 9.29333 17.25 10.4V16H18.125C18.3729 16 18.5807 16.0767 18.7484 16.23C18.9161 16.3833 19 16.5733 19 16.8C19 17.0267 18.9161 17.2167 18.7484 17.37C18.5807 17.5233 18.3729 17.6 18.125 17.6H5.875ZM12 20C11.5187 20 11.1068 19.8433 10.7641 19.53C10.4214 19.2167 10.25 18.84 10.25 18.4H13.75C13.75 18.84 13.5786 19.2167 13.2359 19.53C12.8932 19.8433 12.4813 20 12 20Z" fill="#06C655"/>
</g>
</svg>
