<svg width="142" height="46" viewBox="0 0 142 46" fill="none" xmlns="http://www.w3.org/2000/svg">
<path d="M129.456 45.1997C127.279 45.1997 125.657 44.5382 124.59 43.215C123.566 41.8919 123.053 40.1419 123.053 37.9652C123.053 36.8554 123.182 35.7244 123.438 34.572L127.535 15.3652H125.422L125.934 12.8043H128.047L129.968 3.96918L139.443 2.68872C139.059 4.31063 138.846 5.27097 138.803 5.56974C138.504 6.76483 137.992 9.17634 137.266 12.8043H141.108L140.596 15.3652H136.754L132.657 34.572C132.443 35.511 132.337 36.2579 132.337 36.8128C132.337 38.3493 133.084 39.1176 134.578 39.1176C135.346 39.1176 135.901 39.0536 136.242 38.9255C135.388 41.4011 134.385 43.0656 133.233 43.9193C132.081 44.7729 130.822 45.1997 129.456 45.1997Z" fill="#050317"/>
<path d="M97.452 45.1999C95.4033 45.1999 93.7387 44.5596 92.4582 43.2792C91.2205 41.9987 90.6016 40.0781 90.6016 37.5172C90.6016 36.4501 90.7723 35.063 91.1137 33.3557L95.4673 12.8044H104.687L100.077 34.5721C99.9489 35.2123 99.8848 35.8099 99.8848 36.3648C99.8848 38.1147 100.525 38.9897 101.806 38.9897C103.001 38.9897 104.025 38.4988 104.879 37.5172C105.732 36.4928 106.415 35.1056 106.927 33.3557L111.281 12.8044H120.5L115.89 34.5721C115.72 35.2123 115.634 35.8953 115.634 36.6208C115.634 37.4745 115.826 38.0934 116.211 38.4775C116.637 38.819 117.32 38.9897 118.259 38.9897C119.454 38.9897 120.479 38.4775 121.332 37.4531C122.229 36.4288 122.933 35.063 123.445 33.3557H126.134C124.555 37.9653 122.592 41.1024 120.244 42.767C117.939 44.3889 115.613 45.1999 113.266 45.1999C111.43 45.1999 109.958 44.6877 108.848 43.6633C107.781 42.639 107.141 41.1238 106.927 39.1177C105.476 41.4652 103.94 43.0658 102.318 43.9194C100.738 44.7731 99.1166 45.1999 97.452 45.1999Z" fill="#050317"/>
<path d="M72.3269 45.0716C69.1684 45.0716 66.6715 44.2607 64.8362 42.6388C63.0009 41.0169 62.0833 38.4559 62.0833 34.956C62.0833 32.0537 62.6808 28.8312 63.8759 25.2886C65.071 21.7461 66.9916 18.6943 69.6379 16.1334C72.2842 13.5298 75.6134 12.228 79.6254 12.228C85.0887 12.228 87.8203 15.6426 87.8203 22.4716V22.5357C87.9484 22.5783 88.1831 22.5997 88.5246 22.5997C89.9331 22.5997 91.555 22.2369 93.3903 21.5113C95.2256 20.743 96.8902 19.8254 98.3841 18.7583L98.9603 20.4869C97.7225 21.8101 96.1006 22.9411 94.0946 23.8801C92.1312 24.7765 89.9758 25.4167 87.6283 25.8008C87.2868 29.6849 86.4118 33.0781 85.0033 35.9804C83.5948 38.8828 81.7809 41.1236 79.5614 42.7028C77.342 44.282 74.9305 45.0716 72.3269 45.0716ZM74.8878 39.3096C75.9121 39.3096 76.9365 38.7334 77.9609 37.581C78.9852 36.3859 79.8815 34.7853 80.6498 32.7793C81.4181 30.7306 81.9729 28.4684 82.3144 25.9929C81.162 25.7368 80.5858 24.8405 80.5858 23.3039C80.5858 21.554 81.2473 20.4016 82.5705 19.8467C82.4851 18.4382 82.2717 17.4779 81.9303 16.9657C81.5888 16.4108 80.9913 16.1334 80.1376 16.1334C78.7291 16.1334 77.3633 17.1578 76.0402 19.2065C74.717 21.2552 73.65 23.7094 72.839 26.5691C72.0281 29.4288 71.6226 31.947 71.6226 34.1238C71.6226 36.1725 71.8574 37.5596 72.3269 38.2852C72.7964 38.9681 73.65 39.3096 74.8878 39.3096Z" fill="#050317"/>
<path d="M43.0467 45.2C40.1443 45.2 37.9249 44.4957 36.3883 43.0872C34.8518 41.636 34.0835 39.6086 34.0835 37.0051C34.0835 35.7246 34.2329 34.5082 34.5317 33.3558L41.3821 1.28045L50.8574 0L47.7843 14.4051C48.9794 13.6795 49.9611 13.21 50.7294 12.9966C51.4976 12.7405 52.2659 12.6125 53.0342 12.6125C58.0706 12.6125 60.5889 16.2617 60.5889 23.5603C60.5889 26.5054 60.0126 29.6638 58.8602 33.0357C57.7505 36.3648 55.8725 39.2245 53.2263 41.6147C50.6227 44.0049 47.2295 45.2 43.0467 45.2ZM46.6319 38.9898C47.9551 38.9898 49.1928 38.1788 50.3452 36.5569C51.4976 34.8923 52.4153 32.8436 53.0982 30.4107C53.7811 27.9352 54.1226 25.5664 54.1226 23.3042C54.1226 21.597 53.8238 20.1458 53.2263 18.9507C52.6287 17.7556 51.7964 17.1581 50.7294 17.1581C50.0891 17.1581 49.3636 17.2648 48.5526 17.4782C47.7843 17.6489 47.2508 17.9263 46.952 18.3105L43.4308 34.5722C43.3028 35.0844 43.2387 35.5752 43.2387 36.0447C43.2387 38.0081 44.3698 38.9898 46.6319 38.9898Z" fill="#050317"/>
<path d="M8.515 45.1997C6.08215 45.1997 4.05476 44.3674 2.43286 42.7028C0.810953 41.0382 0 38.4346 0 34.892C0 31.7336 0.618885 28.4258 1.85666 24.9685C3.13711 21.4686 5.0151 18.5236 7.49064 16.1334C10.0089 13.7006 12.9966 12.4841 16.4538 12.4841C18.2038 12.4841 19.5056 12.7829 20.3592 13.3804C21.2128 13.978 21.6396 14.7676 21.6396 15.7493V16.1974L22.3439 12.8042H31.5631L26.9535 34.5719C26.7828 35.2121 26.6974 35.8951 26.6974 36.6206C26.6974 38.456 27.5724 39.3736 29.3223 39.3736C30.5174 39.3736 31.5418 38.8188 32.3954 37.709C33.2917 36.5993 33.996 35.1481 34.5082 33.3555H37.1971C35.6179 37.9651 33.6545 41.1022 31.307 42.7668C29.0022 44.3887 26.6761 45.1997 24.3286 45.1997C22.536 45.1997 21.0848 44.7088 19.9751 43.7272C18.908 42.7028 18.2678 41.2303 18.0544 39.3096C16.8166 41.0595 15.4294 42.4894 13.8929 43.5991C12.399 44.6662 10.6064 45.1997 8.515 45.1997ZM12.6765 38.9895C13.7435 38.9895 14.7892 38.4986 15.8136 37.517C16.8806 36.4926 17.6062 35.1054 17.9903 33.3555L21.0634 18.8864C21.0634 18.3315 20.85 17.798 20.4232 17.2858C19.9964 16.731 19.3348 16.4535 18.4385 16.4535C16.7312 16.4535 15.1947 17.4566 13.8289 19.4626C12.4631 21.426 11.396 23.8161 10.6278 26.6331C9.85948 29.4074 9.47534 31.8616 9.47534 33.9957C9.47534 36.1298 9.77412 37.4956 10.3717 38.0932C11.0119 38.6907 11.7802 38.9895 12.6765 38.9895Z" fill="#050317"/>
</svg>
