<svg width="24" height="24" viewBox="0 0 24 24" fill="none" xmlns="http://www.w3.org/2000/svg">
<mask id="mask0_112_285" style="mask-type:alpha" maskUnits="userSpaceOnUse" x="0" y="0" width="24" height="24">
<rect width="24" height="24" fill="#D9D9D9"/>
</mask>
<g mask="url(#mask0_112_285)">
<path d="M7.84941 13.0005L10.6994 15.8505C10.8994 16.0505 10.9952 16.2838 10.9869 16.5505C10.9786 16.8172 10.8827 17.0505 10.6994 17.2505C10.4994 17.4505 10.2619 17.5547 9.98691 17.563C9.71191 17.5713 9.47441 17.4755 9.27441 17.2755L4.69941 12.7005C4.49941 12.5005 4.39941 12.2672 4.39941 12.0005C4.39941 11.7338 4.49941 11.5005 4.69941 11.3005L9.27441 6.7255C9.47441 6.5255 9.71191 6.42967 9.98691 6.438C10.2619 6.44633 10.4994 6.5505 10.6994 6.7505C10.8827 6.9505 10.9786 7.18383 10.9869 7.4505C10.9952 7.71717 10.8994 7.9505 10.6994 8.1505L7.84941 11.0005H18.9994C19.2827 11.0005 19.5202 11.0963 19.7119 11.288C19.9036 11.4797 19.9994 11.7172 19.9994 12.0005C19.9994 12.2838 19.9036 12.5213 19.7119 12.713C19.5202 12.9047 19.2827 13.0005 18.9994 13.0005H7.84941Z" fill="#050317"/>
</g>
</svg>
