<svg width="32" height="32" viewBox="0 0 32 32" fill="none" xmlns="http://www.w3.org/2000/svg">
<mask id="mask0_84_384" style="mask-type:alpha" maskUnits="userSpaceOnUse" x="0" y="0" width="32" height="32">
<rect width="32" height="32" fill="#D9D9D9"/>
</mask>
<g mask="url(#mask0_84_384)">
<path d="M12.0003 19.0003C11.5337 19.0003 11.1392 18.8392 10.817 18.517C10.4948 18.1948 10.3337 17.8003 10.3337 17.3337C10.3337 16.867 10.4948 16.4725 10.817 16.1503C11.1392 15.8281 11.5337 15.667 12.0003 15.667C12.467 15.667 12.8614 15.8281 13.1837 16.1503C13.5059 16.4725 13.667 16.867 13.667 17.3337C13.667 17.8003 13.5059 18.1948 13.1837 18.517C12.8614 18.8392 12.467 19.0003 12.0003 19.0003ZM20.0003 19.0003C19.5337 19.0003 19.1392 18.8392 18.817 18.517C18.4948 18.1948 18.3337 17.8003 18.3337 17.3337C18.3337 16.867 18.4948 16.4725 18.817 16.1503C19.1392 15.8281 19.5337 15.667 20.0003 15.667C20.467 15.667 20.8614 15.8281 21.1837 16.1503C21.5059 16.4725 21.667 16.867 21.667 17.3337C21.667 17.8003 21.5059 18.1948 21.1837 18.517C20.8614 18.8392 20.467 19.0003 20.0003 19.0003ZM16.0003 26.667C18.9781 26.667 21.5003 25.6337 23.567 23.567C25.6337 21.5003 26.667 18.9781 26.667 16.0003C26.667 15.467 26.6337 14.9503 26.567 14.4503C26.5003 13.9503 26.3781 13.467 26.2003 13.0003C25.7337 13.1114 25.267 13.1948 24.8003 13.2503C24.3337 13.3059 23.8448 13.3337 23.3337 13.3337C21.3114 13.3337 19.4003 12.9003 17.6003 12.0337C15.8003 11.167 14.267 9.95588 13.0003 8.40033C12.2892 10.1337 11.2725 11.6392 9.95033 12.917C8.6281 14.1948 7.08921 15.1559 5.33366 15.8003V16.0003C5.33366 18.9781 6.36699 21.5003 8.43366 23.567C10.5003 25.6337 13.0225 26.667 16.0003 26.667ZM16.0003 29.3337C14.1559 29.3337 12.4225 28.9837 10.8003 28.2837C9.1781 27.5837 7.76699 26.6337 6.56699 25.4337C5.36699 24.2337 4.41699 22.8225 3.71699 21.2003C3.01699 19.5781 2.66699 17.8448 2.66699 16.0003C2.66699 14.1559 3.01699 12.4225 3.71699 10.8003C4.41699 9.1781 5.36699 7.76699 6.56699 6.56699C7.76699 5.36699 9.1781 4.41699 10.8003 3.71699C12.4225 3.01699 14.1559 2.66699 16.0003 2.66699C17.8448 2.66699 19.5781 3.01699 21.2003 3.71699C22.8225 4.41699 24.2337 5.36699 25.4337 6.56699C26.6337 7.76699 27.5837 9.1781 28.2837 10.8003C28.9837 12.4225 29.3337 14.1559 29.3337 16.0003C29.3337 17.8448 28.9837 19.5781 28.2837 21.2003C27.5837 22.8225 26.6337 24.2337 25.4337 25.4337C24.2337 26.6337 22.8225 27.5837 21.2003 28.2837C19.5781 28.9837 17.8448 29.3337 16.0003 29.3337ZM14.2003 5.50033C15.1337 7.05588 16.4003 8.30588 18.0003 9.25033C19.6003 10.1948 21.3781 10.667 23.3337 10.667C23.6448 10.667 23.9448 10.6503 24.2337 10.617C24.5225 10.5837 24.8225 10.5448 25.1337 10.5003C24.2003 8.94477 22.9337 7.69477 21.3337 6.75033C19.7337 5.80588 17.9559 5.33366 16.0003 5.33366C15.6892 5.33366 15.3892 5.35033 15.1003 5.38366C14.8114 5.41699 14.5114 5.45588 14.2003 5.50033ZM5.90033 12.6337C7.03366 11.9892 8.02255 11.1559 8.86699 10.1337C9.71144 9.11144 10.3448 7.96699 10.767 6.70033C9.63366 7.34477 8.64477 8.1781 7.80033 9.20033C6.95588 10.2225 6.32255 11.367 5.90033 12.6337Z" fill="#939394"/>
</g>
</svg>
