<svg width="32" height="32" viewBox="0 0 32 32" fill="none" xmlns="http://www.w3.org/2000/svg">
<mask id="mask0_84_393" style="mask-type:alpha" maskUnits="userSpaceOnUse" x="0" y="0" width="32" height="32">
<rect width="32" height="32" fill="#D9D9D9"/>
</mask>
<g mask="url(#mask0_84_393)">
<path d="M7.99967 25.3337H11.9997V18.667C11.9997 18.2892 12.1275 17.9725 12.383 17.717C12.6386 17.4614 12.9552 17.3337 13.333 17.3337H18.6663C19.0441 17.3337 19.3608 17.4614 19.6163 17.717C19.8719 17.9725 19.9997 18.2892 19.9997 18.667V25.3337H23.9997V13.3337L15.9997 7.33366L7.99967 13.3337V25.3337ZM5.33301 25.3337V13.3337C5.33301 12.9114 5.42745 12.5114 5.61634 12.1337C5.80523 11.7559 6.06634 11.4448 6.39967 11.2003L14.3997 5.20033C14.8663 4.84477 15.3997 4.66699 15.9997 4.66699C16.5997 4.66699 17.133 4.84477 17.5997 5.20033L25.5997 11.2003C25.933 11.4448 26.1941 11.7559 26.383 12.1337C26.5719 12.5114 26.6663 12.9114 26.6663 13.3337V25.3337C26.6663 26.067 26.4052 26.6948 25.883 27.217C25.3608 27.7392 24.733 28.0003 23.9997 28.0003H18.6663C18.2886 28.0003 17.9719 27.8725 17.7163 27.617C17.4608 27.3614 17.333 27.0448 17.333 26.667V20.0003H14.6663V26.667C14.6663 27.0448 14.5386 27.3614 14.283 27.617C14.0275 27.8725 13.7108 28.0003 13.333 28.0003H7.99967C7.26634 28.0003 6.63856 27.7392 6.11634 27.217C5.59412 26.6948 5.33301 26.067 5.33301 25.3337Z" fill="#939394"/>
</g>
</svg>
