<svg width="32" height="32" viewBox="0 0 32 32" fill="none" xmlns="http://www.w3.org/2000/svg">
<mask id="mask0_84_372" style="mask-type:alpha" maskUnits="userSpaceOnUse" x="0" y="0" width="32" height="32">
<rect width="32" height="32" fill="#D9D9D9"/>
</mask>
<g mask="url(#mask0_84_372)">
<path d="M9.9 12.6337L14.8667 4.53372C15 4.3115 15.1667 4.15039 15.3667 4.05039C15.5667 3.95039 15.7778 3.90039 16 3.90039C16.2222 3.90039 16.4333 3.95039 16.6333 4.05039C16.8333 4.15039 17 4.3115 17.1333 4.53372L22.1 12.6337C22.2333 12.8559 22.3 13.0893 22.3 13.3337C22.3 13.5782 22.2444 13.8004 22.1333 14.0004C22.0222 14.2004 21.8667 14.3615 21.6667 14.4837C21.4667 14.6059 21.2333 14.6671 20.9667 14.6671H11.0333C10.7667 14.6671 10.5333 14.6059 10.3333 14.4837C10.1333 14.3615 9.97778 14.2004 9.86667 14.0004C9.75556 13.8004 9.7 13.5782 9.7 13.3337C9.7 13.0893 9.76667 12.8559 9.9 12.6337ZM23.3333 29.3337C21.6667 29.3337 20.25 28.7504 19.0833 27.5837C17.9167 26.4171 17.3333 25.0004 17.3333 23.3337C17.3333 21.6671 17.9167 20.2504 19.0833 19.0837C20.25 17.9171 21.6667 17.3337 23.3333 17.3337C25 17.3337 26.4167 17.9171 27.5833 19.0837C28.75 20.2504 29.3333 21.6671 29.3333 23.3337C29.3333 25.0004 28.75 26.4171 27.5833 27.5837C26.4167 28.7504 25 29.3337 23.3333 29.3337ZM4 27.3337V19.3337C4 18.9559 4.12778 18.6393 4.38333 18.3837C4.63889 18.1282 4.95556 18.0004 5.33333 18.0004H13.3333C13.7111 18.0004 14.0278 18.1282 14.2833 18.3837C14.5389 18.6393 14.6667 18.9559 14.6667 19.3337V27.3337C14.6667 27.7115 14.5389 28.0282 14.2833 28.2837C14.0278 28.5393 13.7111 28.6671 13.3333 28.6671H5.33333C4.95556 28.6671 4.63889 28.5393 4.38333 28.2837C4.12778 28.0282 4 27.7115 4 27.3337ZM23.3333 26.6671C24.2667 26.6671 25.0556 26.3448 25.7 25.7004C26.3444 25.0559 26.6667 24.2671 26.6667 23.3337C26.6667 22.4004 26.3444 21.6115 25.7 20.9671C25.0556 20.3226 24.2667 20.0004 23.3333 20.0004C22.4 20.0004 21.6111 20.3226 20.9667 20.9671C20.3222 21.6115 20 22.4004 20 23.3337C20 24.2671 20.3222 25.0559 20.9667 25.7004C21.6111 26.3448 22.4 26.6671 23.3333 26.6671ZM6.66667 26.0004H12V20.6671H6.66667V26.0004ZM13.4 12.0004H18.6L16 7.80039L13.4 12.0004Z" fill="#939394"/>
</g>
</svg>
