<svg width="32" height="32" viewBox="0 0 32 32" fill="none" xmlns="http://www.w3.org/2000/svg">
<mask id="mask0_84_412" style="mask-type:alpha" maskUnits="userSpaceOnUse" x="0" y="0" width="32" height="32">
<rect width="32" height="32" fill="#D9D9D9"/>
</mask>
<g mask="url(#mask0_84_412)">
<path d="M16.3667 20.7003C17.9222 20.7003 19.2444 20.2003 20.3333 19.2003C21.4222 18.2003 21.9667 16.9892 21.9667 15.567C21.9667 14.3003 21.5611 13.2281 20.75 12.3503C19.9389 11.4725 18.9556 11.0337 17.8 11.0337C16.7556 11.0337 15.8722 11.367 15.15 12.0337C14.4278 12.7003 14.0667 13.5225 14.0667 14.5003C14.0667 14.9225 14.1389 15.3392 14.2833 15.7503C14.4278 16.1614 14.6778 16.5225 15.0333 16.8337C15.3889 17.1448 15.7444 17.2725 16.1 17.217C16.4556 17.1614 16.7444 17.0114 16.9667 16.767C17.1889 16.5225 17.3167 16.2281 17.35 15.8837C17.3833 15.5392 17.2444 15.2225 16.9333 14.9337C16.8889 14.8892 16.8444 14.8337 16.8 14.767C16.7556 14.7003 16.7333 14.6225 16.7333 14.5337C16.7333 14.2892 16.8333 14.0948 17.0333 13.9503C17.2333 13.8059 17.4889 13.7337 17.8 13.7337C18.2444 13.7337 18.6111 13.917 18.9 14.2837C19.1889 14.6503 19.3333 15.0892 19.3333 15.6003C19.3333 16.2892 19.05 16.8725 18.4833 17.3503C17.9167 17.8281 17.2222 18.067 16.4 18.067C15.3556 18.067 14.4722 17.6448 13.75 16.8003C13.0278 15.9559 12.6667 14.9225 12.6667 13.7003C12.6667 13.2781 12.7167 12.867 12.8167 12.467C12.9167 12.067 13.0667 11.6892 13.2667 11.3337C13.4444 11.0003 13.5333 10.6503 13.5333 10.2837C13.5333 9.91699 13.4 9.60033 13.1333 9.33366C12.8667 9.06699 12.5444 8.93921 12.1667 8.95033C11.7889 8.96144 11.5 9.12255 11.3 9.43366C10.8556 10.0559 10.5222 10.7225 10.3 11.4337C10.0778 12.1448 9.96667 12.8892 9.96667 13.667C9.96667 15.6225 10.5889 17.2837 11.8333 18.6503C13.0778 20.017 14.5889 20.7003 16.3667 20.7003ZM9.33333 29.3337C8.95556 29.3337 8.63889 29.2059 8.38333 28.9503C8.12778 28.6948 8 28.3781 8 28.0003V23.6003C6.73333 22.4448 5.75 21.0948 5.05 19.5503C4.35 18.0059 4 16.3781 4 14.667C4 11.3337 5.16667 8.50033 7.5 6.16699C9.83333 3.83366 12.6667 2.66699 16 2.66699C18.7778 2.66699 21.2389 3.48366 23.3833 5.11699C25.5278 6.75033 26.9222 8.8781 27.5667 11.5003L29.3 18.3337C29.4111 18.7559 29.3333 19.1392 29.0667 19.4837C28.8 19.8281 28.4444 20.0003 28 20.0003H25.3333V24.0003C25.3333 24.7337 25.0722 25.3614 24.55 25.8837C24.0278 26.4059 23.4 26.667 22.6667 26.667H20V28.0003C20 28.3781 19.8722 28.6948 19.6167 28.9503C19.3611 29.2059 19.0444 29.3337 18.6667 29.3337H9.33333Z" fill="#1C1B1F"/>
</g>
</svg>
