<svg width="24" height="24" viewBox="0 0 24 24" fill="none" xmlns="http://www.w3.org/2000/svg">
<mask id="mask0_23_325" style="mask-type:alpha" maskUnits="userSpaceOnUse" x="0" y="0" width="24" height="24">
<rect width="24" height="24" fill="#D9D9D9"/>
</mask>
<g mask="url(#mask0_23_325)">
<path d="M14.8286 16.2426L12.0002 19.0711C11.022 20.0492 9.84348 20.5383 8.46462 20.5383C7.08576 20.5383 5.90725 20.0492 4.92909 19.0711C3.95092 18.0929 3.46184 16.9144 3.46184 15.5355C3.46184 14.1567 3.95092 12.9782 4.92909 12L7.75752 9.17156L9.17173 10.5858L6.3433 13.4142C5.75405 14.0035 5.45942 14.7106 5.45942 15.5355C5.45942 16.3605 5.75405 17.0676 6.3433 17.6568C6.93256 18.2461 7.63966 18.5407 8.46462 18.5407C9.28958 18.5407 9.99669 18.2461 10.5859 17.6568L13.4144 14.8284L14.8286 16.2426ZM9.87884 15.5355L8.46462 14.1213L14.1215 8.46445L15.5357 9.87867L9.87884 15.5355ZM16.2428 14.8284L14.8286 13.4142L17.657 10.5858C18.2463 9.99652 18.5409 9.28941 18.5409 8.46445C18.5409 7.6395 18.2463 6.93239 17.657 6.34313C17.0678 5.75388 16.3606 5.45925 15.5357 5.45925C14.7107 5.45925 14.0036 5.75388 13.4144 6.34313L10.5859 9.17156L9.17173 7.75735L12.0002 4.92892C12.9783 3.95076 14.1568 3.46167 15.5357 3.46167C16.9145 3.46167 18.0931 3.95076 19.0712 4.92892C20.0494 5.90709 20.5385 7.0856 20.5385 8.46445C20.5385 9.84331 20.0494 11.0218 19.0712 12L16.2428 14.8284Z" fill="#050317"/>
</g>
</svg>
