<svg width="312" height="35" viewBox="0 0 312 35" fill="none" xmlns="http://www.w3.org/2000/svg">
<path d="M304.886 34.3842C302.625 34.3842 300.982 33.7015 299.958 32.3362C298.934 30.9708 298.422 29.2428 298.422 27.1522C298.422 26.2562 298.529 25.2535 298.742 24.1442C298.956 22.9922 299.169 21.8828 299.382 20.8162C299.638 19.7495 299.809 19.0668 299.894 18.7682C300.236 17.2748 300.556 15.8028 300.854 14.3522C301.153 12.9015 301.302 11.7282 301.302 10.8322C301.302 8.65618 300.534 7.56818 298.998 7.56818C297.889 7.56818 296.908 8.12284 296.054 9.23217C295.201 10.2988 294.518 11.7068 294.006 13.4562L289.654 34.0002H280.438L285.11 11.9202C285.238 11.4082 285.302 10.8748 285.302 10.3202C285.302 8.44284 284.662 7.50417 283.382 7.50417C282.188 7.50417 281.142 8.05884 280.246 9.16817C279.393 10.2348 278.71 11.6642 278.198 13.4562L273.846 34.0002H264.63L271.414 2.00018H280.63L279.926 5.32817C282.102 2.89618 284.705 1.68018 287.734 1.68018C291.489 1.68018 293.686 3.51484 294.326 7.18417C296.673 3.55751 299.638 1.74417 303.222 1.74417C305.398 1.74417 307.126 2.34151 308.406 3.53617C309.686 4.73084 310.326 6.54417 310.326 8.97617C310.326 10.2135 310.177 11.6002 309.878 13.1362C309.58 14.6295 309.153 16.4642 308.598 18.6402C308.257 19.9628 307.937 21.2642 307.638 22.5442C307.382 23.7815 307.254 24.7628 307.254 25.4882C307.254 26.3415 307.446 27.0028 307.83 27.4722C308.214 27.9415 308.876 28.1762 309.814 28.1762C310.838 28.1762 311.542 28.0482 311.926 27.7922C311.67 29.9682 310.881 31.6108 309.558 32.7202C308.278 33.8295 306.721 34.3842 304.886 34.3842Z" fill="#050317"/>
<path d="M248.281 34.2561C245.124 34.2561 242.628 33.4454 240.794 31.8241C238.959 30.2027 238.042 27.6427 238.042 24.1441C238.042 21.2427 238.639 18.0214 239.833 14.4801C241.028 10.9387 242.948 7.88807 245.594 5.32807C248.239 2.72541 251.567 1.42407 255.577 1.42407C261.039 1.42407 263.77 4.83741 263.77 11.6641V11.7281C263.898 11.7707 264.132 11.7921 264.474 11.7921C265.882 11.7921 267.503 11.4294 269.337 10.7041C271.172 9.93607 272.836 9.01874 274.329 7.95207L274.906 9.68007C273.668 11.0027 272.047 12.1334 270.042 13.0721C268.079 13.9681 265.924 14.6081 263.578 14.9921C263.236 18.8747 262.361 22.2667 260.953 25.1681C259.545 28.0694 257.732 30.3094 255.514 31.8881C253.295 33.4667 250.884 34.2561 248.281 34.2561ZM250.842 28.4961C251.866 28.4961 252.889 27.9201 253.913 26.7681C254.937 25.5734 255.834 23.9734 256.602 21.9681C257.37 19.9201 257.924 17.6587 258.266 15.1841C257.114 14.9281 256.538 14.0321 256.538 12.4961C256.538 10.7467 257.199 9.59474 258.522 9.04007C258.436 7.63207 258.223 6.67207 257.882 6.16007C257.54 5.6054 256.943 5.32807 256.09 5.32807C254.682 5.32807 253.316 6.35207 251.993 8.40007C250.671 10.4481 249.604 12.9014 248.794 15.7601C247.983 18.6187 247.577 21.1361 247.577 23.3121C247.577 25.3601 247.812 26.7467 248.281 27.4721C248.751 28.1547 249.604 28.4961 250.842 28.4961Z" fill="#050317"/>
<path d="M223.527 34.3841C220.37 34.3841 217.916 33.5734 216.167 31.9521C214.418 30.2881 213.543 27.7067 213.543 24.2081C213.543 21.2641 214.119 18.0214 215.271 14.4801C216.466 10.9387 218.343 7.88807 220.903 5.32807C223.506 2.72541 226.791 1.42407 230.759 1.42407C233.319 1.42407 235.132 1.97874 236.199 3.08807C237.308 4.1974 237.863 5.6054 237.863 7.31207C237.863 8.8054 237.543 9.9574 236.903 10.7681C236.263 11.5787 235.452 11.9841 234.471 11.9841C233.746 11.9841 232.999 11.7281 232.231 11.2161C232.743 9.80807 232.999 8.5494 232.999 7.44007C232.999 6.6294 232.85 5.9894 232.551 5.52007C232.252 5.05074 231.804 4.81607 231.207 4.81607C229.927 4.81607 228.647 5.8614 227.367 7.95207C226.087 10.0427 225.042 12.5814 224.231 15.5681C223.42 18.5547 223.015 21.2427 223.015 23.6321C223.015 25.7227 223.378 27.1521 224.103 27.9201C224.828 28.6454 226.002 29.0081 227.623 29.0081C229.927 29.0081 231.89 28.4747 233.511 27.4081C235.175 26.3414 236.988 24.7201 238.951 22.5441H241.127C236.391 30.4374 230.524 34.3841 223.527 34.3841Z" fill="#050317"/>
<path d="M204.602 34.2561C203.194 34.2561 202 33.7654 201.018 32.7841C200.037 31.8027 199.546 30.6081 199.546 29.2001C199.546 27.7921 200.037 26.5974 201.018 25.6161C202 24.5921 203.194 24.0801 204.602 24.0801C206.01 24.0801 207.205 24.5921 208.186 25.6161C209.21 26.5974 209.722 27.7921 209.722 29.2001C209.722 30.6081 209.21 31.8027 208.186 32.7841C207.205 33.7654 206.01 34.2561 204.602 34.2561Z" fill="#050317"/>
<path d="M184.609 34.3841C182.561 34.3841 180.833 34.0001 179.425 33.2321C178.017 32.4214 176.971 31.3974 176.289 30.1601C175.606 28.8801 175.265 27.5574 175.265 26.1921C175.265 24.7841 175.606 23.5681 176.289 22.5441C176.929 21.4774 177.718 20.7094 178.657 20.2401C180.321 17.2534 181.771 14.2454 183.009 11.2161C184.246 8.14411 185.419 4.83745 186.529 1.29611L196.001 0.0161133C196.214 5.47745 196.577 11.3868 197.089 17.7441C197.302 20.3041 197.409 22.1601 197.409 23.3121C197.409 25.9148 196.747 28.0481 195.425 29.7121C194.102 31.3761 192.459 32.5708 190.497 33.2961C188.577 34.0214 186.614 34.3841 184.609 34.3841ZM182.561 29.3281C184.139 29.3281 185.462 28.8588 186.529 27.9201C187.595 26.9814 188.129 25.4668 188.129 23.3761C188.129 22.0961 188.001 20.3041 187.745 18.0001C187.318 13.1361 187.041 9.87211 186.913 8.20811C185.889 11.5788 184.161 15.6108 181.729 20.3041C182.71 20.8161 183.201 21.5628 183.201 22.5441C183.201 23.3548 182.923 24.0801 182.369 24.7201C181.857 25.3601 181.195 25.6801 180.385 25.6801C179.489 25.6801 178.913 25.4028 178.657 24.8481C178.657 26.3841 178.955 27.5148 179.553 28.2401C180.193 28.9654 181.195 29.3281 182.561 29.3281Z" fill="#050317"/>
<path d="M168.099 34.3842C165.497 34.3842 163.577 33.7015 162.339 32.3362C161.145 30.9282 160.547 29.2002 160.547 27.1522C160.547 26.2562 160.654 25.2535 160.867 24.1442C161.081 22.9922 161.294 21.8828 161.507 20.8162C161.763 19.7495 161.934 19.0668 162.019 18.7682C162.361 17.2748 162.681 15.8028 162.979 14.3522C163.278 12.9015 163.427 11.7282 163.427 10.8322C163.427 8.65618 162.659 7.56818 161.123 7.56818C160.014 7.56818 159.033 8.12284 158.179 9.23217C157.326 10.2988 156.643 11.7068 156.131 13.4562L151.779 34.0002H142.563L147.235 11.9202C147.363 11.4082 147.427 10.8748 147.427 10.3202C147.427 8.44284 146.787 7.50417 145.507 7.50417C144.313 7.50417 143.267 8.05884 142.371 9.16817C141.518 10.2348 140.835 11.6642 140.323 13.4562L135.971 34.0002H126.755L133.539 2.00018H142.755L142.051 5.32817C144.227 2.89618 146.83 1.68018 149.859 1.68018C153.614 1.68018 155.811 3.51484 156.451 7.18417C158.798 3.55751 161.763 1.74417 165.347 1.74417C167.523 1.74417 169.251 2.34151 170.531 3.53617C171.811 4.73084 172.451 6.54417 172.451 8.97617C172.451 10.2135 172.302 11.6002 172.003 13.1362C171.705 14.6295 171.278 16.4642 170.723 18.6402C170.382 19.9628 170.062 21.2642 169.763 22.5442C169.507 23.7815 169.379 24.7628 169.379 25.4882C169.379 26.3415 169.571 27.0028 169.955 27.4722C170.339 27.9415 171.001 28.1762 171.939 28.1762C173.219 28.1762 174.243 27.7282 175.011 26.8322C175.779 25.8935 176.547 24.4642 177.315 22.5442H180.003C178.425 27.2375 176.59 30.3948 174.499 32.0162C172.451 33.5948 170.318 34.3842 168.099 34.3842Z" fill="#050317"/>
<path d="M110.407 34.2561C107.249 34.2561 104.753 33.4454 102.919 31.8241C101.084 30.2027 100.167 27.6427 100.167 24.1441C100.167 21.2427 100.764 18.0214 101.959 14.4801C103.153 10.9387 105.073 7.88807 107.719 5.32807C110.364 2.72541 113.692 1.42407 117.703 1.42407C123.164 1.42407 125.895 4.83741 125.895 11.6641V11.7281C126.023 11.7707 126.257 11.7921 126.599 11.7921C128.007 11.7921 129.628 11.4294 131.463 10.7041C133.297 9.93607 134.961 9.01874 136.455 7.95207L137.031 9.68007C135.793 11.0027 134.172 12.1334 132.167 13.0721C130.204 13.9681 128.049 14.6081 125.703 14.9921C125.361 18.8747 124.487 22.2667 123.079 25.1681C121.671 28.0694 119.857 30.3094 117.639 31.8881C115.42 33.4667 113.009 34.2561 110.407 34.2561ZM112.967 28.4961C113.991 28.4961 115.015 27.9201 116.039 26.7681C117.063 25.5734 117.959 23.9734 118.727 21.9681C119.495 19.9201 120.049 17.6587 120.391 15.1841C119.239 14.9281 118.663 14.0321 118.663 12.4961C118.663 10.7467 119.324 9.59474 120.647 9.04007C120.561 7.63207 120.348 6.67207 120.007 6.16007C119.665 5.6054 119.068 5.32807 118.215 5.32807C116.807 5.32807 115.441 6.35207 114.119 8.40007C112.796 10.4481 111.729 12.9014 110.919 15.7601C110.108 18.6187 109.703 21.1361 109.703 23.3121C109.703 25.3601 109.937 26.7467 110.407 27.4721C110.876 28.1547 111.729 28.4961 112.967 28.4961Z" fill="#050317"/>
<path d="M81.3519 2H90.5679L89.7359 5.968C91.1865 4.688 92.4879 3.70667 93.6399 3.024C94.8345 2.34133 96.1145 2 97.4799 2C98.8452 2 99.9119 2.46933 100.68 3.408C101.491 4.34666 101.896 5.47733 101.896 6.8C101.896 8.03733 101.491 9.12533 100.68 10.064C99.8692 11.0027 98.7385 11.472 97.2879 11.472C96.3492 11.472 95.7092 11.2587 95.3679 10.832C95.0692 10.3627 94.8345 9.70133 94.6639 8.848C94.5359 8.29333 94.4079 7.888 94.2799 7.632C94.1519 7.376 93.9172 7.248 93.5759 7.248C92.6799 7.248 91.9119 7.44 91.2719 7.824C90.6745 8.16533 89.8852 8.784 88.9039 9.68L83.7839 34H74.5679L81.3519 2Z" fill="#050317"/>
<path d="M61.5895 34.3841C58.4321 34.3841 55.9788 33.5734 54.2295 31.9521C52.4801 30.2881 51.6055 27.7067 51.6055 24.2081C51.6055 21.2641 52.1815 18.0214 53.3335 14.4801C54.4855 10.9387 56.3628 7.88807 58.9655 5.32807C61.5681 2.72541 64.8748 1.42407 68.8855 1.42407C73.5788 1.42407 75.9255 3.47207 75.9255 7.56807C75.9255 9.95741 75.2428 12.1547 73.8775 14.1601C72.5121 16.1654 70.6988 17.7867 68.4375 19.0241C66.1761 20.2187 63.7655 20.9014 61.2055 21.0721C61.1201 22.3521 61.0775 23.2054 61.0775 23.6321C61.0775 25.7227 61.4401 27.1521 62.1655 27.9201C62.8908 28.6454 64.0641 29.0081 65.6855 29.0081C67.9895 29.0081 69.9521 28.4747 71.5735 27.4081C73.2375 26.3414 75.0508 24.7201 77.0135 22.5441H79.1895C74.4535 30.4374 68.5868 34.3841 61.5895 34.3841ZM61.7175 18.0001C63.2961 17.9147 64.7895 17.3601 66.1975 16.3361C67.6481 15.3121 68.8001 14.0107 69.6535 12.4321C70.5495 10.8534 70.9975 9.1894 70.9975 7.44007C70.9975 5.69074 70.4641 4.81607 69.3975 4.81607C67.8615 4.81607 66.3468 6.16007 64.8535 8.84807C63.4028 11.5361 62.3575 14.5867 61.7175 18.0001Z" fill="#050317"/>
<path d="M10.64 34.3841C7.5253 34.3841 5.0933 33.5734 3.34397 31.9521C1.59464 30.2881 0.719971 27.7067 0.719971 24.2081C0.719971 21.2641 1.29597 18.0214 2.44797 14.4801C3.59997 10.9387 5.4773 7.88807 8.07997 5.32807C10.6826 2.72541 13.9893 1.42407 18 1.42407C22.6933 1.42407 25.04 3.47207 25.04 7.56807C25.04 9.95741 24.3573 12.1547 22.992 14.1601C21.6266 16.1654 19.8133 17.7867 17.552 19.0241C15.2906 20.2187 12.88 20.9014 10.32 21.0721C10.2346 22.0107 10.192 22.6507 10.192 22.9921C10.192 26.5334 11.5146 28.3041 14.16 28.3041C15.3546 28.3041 16.6346 27.9841 18 27.3441C19.3653 26.7041 20.6026 25.8934 21.712 24.9121C20.56 31.2267 16.8693 34.3841 10.64 34.3841ZM41.36 5.45607H37.776C36.5813 5.45607 35.6853 5.52007 35.088 5.64807C34.5333 5.77607 34.256 6.0534 34.256 6.48007C34.256 6.5654 34.3626 6.67207 34.576 6.80007C34.832 6.88541 34.96 7.24807 34.96 7.88807C34.96 8.99741 34.6186 9.85074 33.936 10.4481C33.2533 11.0027 32.4426 11.2801 31.504 11.2801C30.6933 11.2801 29.9893 11.0454 29.392 10.5761C28.8373 10.0641 28.56 9.36007 28.56 8.46407C28.56 7.56807 28.8586 6.60807 29.456 5.58407C30.096 4.56007 30.9706 3.70674 32.08 3.02407C33.232 2.34141 34.5333 2.00007 35.984 2.00007H52.432L36.752 29.0721C37.008 29.0721 37.4773 29.1147 38.16 29.2001C39.6106 29.3707 40.7626 29.4561 41.616 29.4561C43.4506 29.4561 44.4533 29.0294 44.624 28.1761C44.24 28.1334 43.9413 28.0054 43.728 27.7921C43.5146 27.5361 43.408 27.2161 43.408 26.8321C43.408 26.1494 43.728 25.5307 44.368 24.9761C45.008 24.3787 45.8826 24.0801 46.992 24.0801C47.9306 24.0801 48.6346 24.3574 49.104 24.9121C49.5733 25.4667 49.808 26.2134 49.808 27.1521C49.808 28.1761 49.488 29.2214 48.848 30.2881C48.208 31.3547 47.2906 32.2507 46.096 32.9761C44.9013 33.6587 43.536 34.0001 42 34.0001H25.04L41.36 5.45607ZM10.768 18.0001C12.3893 17.9574 13.904 17.4241 15.312 16.4001C16.7626 15.3761 17.9146 14.0747 18.768 12.4961C19.664 10.8747 20.112 9.1894 20.112 7.44007C20.112 5.69074 19.5786 4.81607 18.512 4.81607C17.0186 4.81607 15.5253 6.1814 14.032 8.91207C12.5813 11.6001 11.4933 14.6294 10.768 18.0001Z" fill="#050317"/>
</svg>
