<svg width="566" height="76" viewBox="0 0 566 76" fill="none" xmlns="http://www.w3.org/2000/svg">
<path d="M553.162 59.8324C551.114 59.8324 549.386 59.4484 547.978 58.6804C546.57 57.8697 545.525 56.8457 544.842 55.6084C544.159 54.3284 543.818 53.0057 543.818 51.6404C543.818 50.2324 544.159 49.0164 544.842 47.9924C545.482 46.9257 546.271 46.1577 547.21 45.6884C548.874 42.7017 550.325 39.6937 551.562 36.6644C552.799 33.5924 553.973 30.2857 555.082 26.7444L564.554 25.4644C564.767 30.9257 565.13 36.835 565.642 43.1924C565.855 45.7524 565.962 47.6084 565.962 48.7604C565.962 51.363 565.301 53.4964 563.978 55.1604C562.655 56.8244 561.013 58.019 559.05 58.7444C557.13 59.4697 555.167 59.8324 553.162 59.8324ZM551.114 54.7764C552.693 54.7764 554.015 54.307 555.082 53.3684C556.149 52.4297 556.682 50.915 556.682 48.8244C556.682 47.5444 556.554 45.7524 556.298 43.4484C555.871 38.5844 555.594 35.3204 555.466 33.6564C554.442 37.027 552.714 41.059 550.282 45.7524C551.263 46.2644 551.754 47.011 551.754 47.9924C551.754 48.803 551.477 49.5284 550.922 50.1684C550.41 50.8084 549.749 51.1284 548.938 51.1284C548.042 51.1284 547.466 50.851 547.21 50.2964C547.21 51.8324 547.509 52.963 548.106 53.6884C548.746 54.4137 549.749 54.7764 551.114 54.7764Z" fill="#050317"/>
<path d="M535.14 59.8324C533.092 59.8324 531.428 59.1924 530.148 57.9124C528.91 56.6324 528.292 54.7124 528.292 52.1524C528.292 51.0858 528.462 49.6991 528.804 47.9924L532.644 30.0084H530.532L531.044 27.4484H533.156L535.076 18.6164L544.548 17.3364L542.372 27.4484H546.212L545.7 30.0084H541.86L537.764 49.2084C537.593 49.8484 537.508 50.5311 537.508 51.2564C537.508 52.1098 537.7 52.7284 538.084 53.1124C538.51 53.4538 539.193 53.6244 540.132 53.6244C541.369 53.6244 542.521 53.1124 543.588 52.0884C544.654 51.0218 545.422 49.6564 545.892 47.9924H548.58C547.001 52.6004 544.974 55.7364 542.5 57.4004C540.025 59.0218 537.572 59.8324 535.14 59.8324Z" fill="#050317"/>
<path d="M519.595 59.8324C516.992 59.8324 515.072 59.1497 513.835 57.7844C512.64 56.3764 512.043 54.6484 512.043 52.6004C512.043 51.7044 512.15 50.7017 512.363 49.5924C512.576 48.4404 512.79 47.331 513.003 46.2644C513.259 45.1977 513.429 44.515 513.515 44.2164C513.856 42.723 514.176 41.251 514.475 39.8004C514.774 38.3497 514.923 37.1764 514.923 36.2804C514.923 34.1044 514.155 33.0164 512.619 33.0164C511.51 33.0164 510.528 33.571 509.675 34.6804C508.822 35.747 508.139 37.1551 507.627 38.9044L503.275 59.4484H494.059L500.843 27.4484H510.059L509.355 30.7764C511.488 28.387 513.984 27.1924 516.843 27.1924C519.019 27.1924 520.747 27.7897 522.027 28.9844C523.307 30.179 523.947 31.9924 523.947 34.4244C523.947 35.6617 523.798 37.0484 523.499 38.5844C523.2 40.0777 522.774 41.9124 522.219 44.0884C521.878 45.411 521.558 46.7124 521.259 47.9924C521.003 49.2297 520.875 50.211 520.875 50.9364C520.875 51.7897 521.067 52.4511 521.451 52.9204C521.835 53.3897 522.496 53.6244 523.435 53.6244C524.715 53.6244 525.739 53.1764 526.507 52.2804C527.275 51.3417 528.043 49.9124 528.811 47.9924H531.499C529.92 52.6857 528.086 55.843 525.995 57.4644C523.947 59.043 521.814 59.8324 519.595 59.8324Z" fill="#050317"/>
<path d="M470.483 59.8324C468.051 59.8324 466.025 59.0004 464.403 57.3364C462.782 55.6724 461.971 53.0698 461.971 49.5284C461.971 46.3711 462.59 43.0644 463.827 39.6084C465.107 36.1098 466.985 33.1657 469.459 30.7764C471.977 28.3444 474.963 27.1284 478.419 27.1284C480.169 27.1284 481.47 27.4271 482.323 28.0244C483.177 28.6217 483.603 29.4111 483.603 30.3924V30.8404L484.307 27.4484H493.523L488.915 49.2084C488.745 49.8484 488.659 50.5311 488.659 51.2564C488.659 53.0911 489.534 54.0084 491.283 54.0084C492.478 54.0084 493.502 53.4538 494.355 52.3444C495.251 51.2351 495.955 49.7844 496.467 47.9924H499.155C497.577 52.6004 495.614 55.7364 493.267 57.4004C490.963 59.0218 488.638 59.8324 486.291 59.8324C484.499 59.8324 483.049 59.3417 481.939 58.3604C480.873 57.3364 480.233 55.8644 480.019 53.9444C478.782 55.6937 477.395 57.1231 475.859 58.2324C474.366 59.2991 472.574 59.8324 470.483 59.8324ZM474.643 53.6244C475.71 53.6244 476.755 53.1337 477.779 52.1524C478.846 51.1284 479.571 49.7417 479.955 47.9924L483.027 33.5284C483.027 32.9737 482.814 32.4404 482.387 31.9284C481.961 31.3738 481.299 31.0964 480.403 31.0964C478.697 31.0964 477.161 32.0991 475.795 34.1044C474.43 36.0671 473.363 38.4564 472.595 41.2724C471.827 44.0457 471.443 46.4991 471.443 48.6324C471.443 50.7657 471.742 52.1311 472.339 52.7284C472.979 53.3257 473.747 53.6244 474.643 53.6244Z" fill="#050317"/>
<path d="M456.429 23.9924C455.021 23.9924 453.826 23.5017 452.845 22.5204C451.864 21.5391 451.373 20.3444 451.373 18.9364C451.373 17.5284 451.864 16.3337 452.845 15.3524C453.826 14.3284 455.021 13.8164 456.429 13.8164C457.837 13.8164 459.032 14.3284 460.013 15.3524C461.037 16.3337 461.549 17.5284 461.549 18.9364C461.549 20.3444 461.037 21.5391 460.013 22.5204C459.032 23.5017 457.837 23.9924 456.429 23.9924ZM452.077 59.8324C450.029 59.8324 448.365 59.1924 447.085 57.9124C445.848 56.6324 445.229 54.7124 445.229 52.1524C445.229 51.0857 445.4 49.6991 445.741 47.9924L450.093 27.4484H459.309L454.701 49.2084C454.53 49.8484 454.445 50.5311 454.445 51.2564C454.445 52.1097 454.637 52.7284 455.021 53.1124C455.448 53.4537 456.13 53.6244 457.069 53.6244C458.306 53.6244 459.458 53.1124 460.525 52.0884C461.592 51.0217 462.36 49.6564 462.829 47.9924H465.517C463.938 52.6004 461.912 55.7364 459.437 57.4004C456.962 59.0217 454.509 59.8324 452.077 59.8324Z" fill="#050317"/>
<path d="M423.525 72.696C420.41 72.696 417.893 71.8853 415.973 70.264C414.096 68.6853 413.157 66.5947 413.157 63.992C413.157 62.3707 413.541 60.8773 414.309 59.512C415.077 58.1467 416.122 57.08 417.445 56.312C418.768 55.5013 420.218 55.096 421.797 55.096C423.418 55.096 424.72 55.5013 425.701 56.312C426.725 57.1227 427.237 58.1893 427.237 59.512C427.237 60.536 427.002 61.3467 426.533 61.944C426.149 61.432 425.616 61.0267 424.933 60.728C424.293 60.4293 423.61 60.28 422.885 60.28C421.605 60.28 420.56 60.7067 419.749 61.56C418.938 62.4133 418.533 63.5227 418.533 64.888C418.533 66.2533 418.917 67.3627 419.685 68.216C420.496 69.0693 421.498 69.496 422.693 69.496C424.186 69.496 425.466 68.8347 426.533 67.512C427.6 66.1893 428.41 64.2267 428.965 61.624L432.165 47.48H431.909C430.757 49.1013 429.349 50.3387 427.685 51.192C426.064 52.0453 424.272 52.472 422.309 52.472C419.834 52.472 417.658 51.8107 415.781 50.488C413.904 49.1653 412.453 47.288 411.429 44.856C410.448 42.3813 409.957 39.5227 409.957 36.28C409.957 31.5867 410.981 27.32 413.029 23.48C415.077 19.5973 417.893 16.5467 421.477 14.328C425.061 12.1093 429.008 11 433.317 11C436.944 11 439.802 11.7893 441.893 13.368C444.026 14.9467 445.093 17.1013 445.093 19.832C445.093 21.6667 444.645 23.1387 443.749 24.248C442.853 25.3573 441.68 25.912 440.229 25.912C439.418 25.912 438.65 25.7413 437.925 25.4C437.242 25.0587 436.666 24.568 436.197 23.928C436.965 23.416 437.605 22.6053 438.117 21.496C438.672 20.344 438.949 19.192 438.949 18.04C438.949 16.76 438.565 15.7787 437.797 15.096C437.072 14.3707 436.026 14.008 434.661 14.008C432.186 14.008 429.797 15.1173 427.493 17.336C425.189 19.512 423.333 22.3707 421.925 25.912C420.517 29.4533 419.813 33.1653 419.813 37.048C419.813 40.248 420.325 42.7013 421.349 44.408C422.373 46.072 423.845 46.904 425.765 46.904C428.069 46.904 430.096 45.688 431.845 43.256C433.637 40.824 435.066 37.2827 436.133 32.632L443.685 32.696L439.013 54.2C437.648 60.5573 435.706 65.2293 433.189 68.216C430.714 71.2027 427.493 72.696 423.525 72.696Z" fill="#050317"/>
<path d="M372.043 75.4482C370.038 75.4482 368.289 74.7869 366.795 73.4642C365.259 72.1842 364.491 70.5415 364.491 68.5362C364.491 66.7015 364.961 65.1869 365.899 63.9922C366.838 62.7975 368.054 61.8375 369.547 61.1122C371.041 60.4295 373.025 59.7042 375.499 58.9362L383.243 22.3922C384.097 18.2962 385.59 15.4589 387.723 13.8802C389.899 12.3015 392.289 11.5122 394.891 11.5122C396.897 11.5122 398.646 12.1735 400.139 13.4962C401.675 14.7762 402.443 16.4189 402.443 18.4242C402.443 19.4055 402.379 20.2802 402.251 21.0482H399.243C399.329 20.1095 399.371 19.5335 399.371 19.3202C399.371 18.6375 399.137 18.1042 398.667 17.7202C398.198 17.3362 397.622 17.1442 396.939 17.1442C396.043 17.1442 395.169 17.5495 394.315 18.3602C393.462 19.1282 392.843 20.4722 392.459 22.3922L391.371 27.4482H396.043L395.595 30.0082H390.859L383.499 64.5682C382.646 68.7069 381.174 71.5442 379.083 73.0802C376.993 74.6589 374.646 75.4482 372.043 75.4482ZM370.571 69.7522C372.278 69.7522 373.494 68.0882 374.219 64.7602L375.051 61.0482C372.79 61.8162 371.062 62.6909 369.867 63.6722C368.63 64.6962 368.011 66.0189 368.011 67.6402C368.011 68.1522 368.267 68.6215 368.779 69.0482C369.291 69.5175 369.889 69.7522 370.571 69.7522Z" fill="#050317"/>
<path d="M359.022 59.7041C355.865 59.7041 353.369 58.8934 351.534 57.2721C349.7 55.6507 348.782 53.0907 348.782 49.5921C348.782 46.6907 349.38 43.4694 350.574 39.9281C351.769 36.3867 353.689 33.3361 356.334 30.7761C358.98 28.1734 362.308 26.8721 366.318 26.8721C371.78 26.8721 374.51 30.2854 374.51 37.1121V37.1761C374.638 37.2187 374.873 37.2401 375.214 37.2401C376.622 37.2401 378.244 36.8774 380.078 36.1521C381.913 35.3841 383.577 34.4667 385.07 33.4001L385.646 35.1281C384.409 36.4507 382.788 37.5814 380.782 38.5201C378.82 39.4161 376.665 40.0561 374.318 40.4401C373.977 44.3227 373.102 47.7147 371.694 50.6161C370.286 53.5174 368.473 55.7574 366.254 57.3361C364.036 58.9147 361.625 59.7041 359.022 59.7041ZM361.582 53.9441C362.606 53.9441 363.63 53.3681 364.654 52.2161C365.678 51.0214 366.574 49.4214 367.342 47.4161C368.11 45.3681 368.665 43.1067 369.006 40.6321C367.854 40.3761 367.278 39.4801 367.278 37.9441C367.278 36.1947 367.94 35.0427 369.262 34.4881C369.177 33.0801 368.964 32.1201 368.622 31.6081C368.281 31.0534 367.684 30.7761 366.83 30.7761C365.422 30.7761 364.057 31.8001 362.734 33.8481C361.412 35.8961 360.345 38.3494 359.534 41.2081C358.724 44.0667 358.318 46.5841 358.318 48.7601C358.318 50.8081 358.553 52.1947 359.022 52.9201C359.492 53.6027 360.345 53.9441 361.582 53.9441Z" fill="#050317"/>
<path d="M322.849 59.8324C320.801 59.8324 319.073 59.4484 317.665 58.6804C316.257 57.8697 315.212 56.8457 314.529 55.6084C313.847 54.3284 313.505 53.0057 313.505 51.6404C313.505 50.2324 313.847 49.0164 314.529 47.9924C315.169 46.9257 315.959 46.1577 316.897 45.6884C318.561 42.7017 320.012 39.6937 321.249 36.6644C322.487 33.5924 323.66 30.2857 324.769 26.7444L334.241 25.4644C334.455 30.9257 334.817 36.835 335.329 43.1924C335.543 45.7524 335.649 47.6084 335.649 48.7604C335.649 51.363 334.988 53.4964 333.665 55.1604C332.343 56.8244 330.7 58.019 328.737 58.7444C326.817 59.4697 324.855 59.8324 322.849 59.8324ZM320.801 54.7764C322.38 54.7764 323.703 54.307 324.769 53.3684C325.836 52.4297 326.369 50.915 326.369 48.8244C326.369 47.5444 326.241 45.7524 325.985 43.4484C325.559 38.5844 325.281 35.3204 325.153 33.6564C324.129 37.027 322.401 41.059 319.969 45.7524C320.951 46.2644 321.441 47.011 321.441 47.9924C321.441 48.803 321.164 49.5284 320.609 50.1684C320.097 50.8084 319.436 51.1284 318.625 51.1284C317.729 51.1284 317.153 50.851 316.897 50.2964C316.897 51.8324 317.196 52.963 317.793 53.6884C318.433 54.4137 319.436 54.7764 320.801 54.7764Z" fill="#050317"/>
<path d="M295.843 27.4482H305.059L304.227 31.4162C305.678 30.1362 306.979 29.1549 308.131 28.4722C309.326 27.7896 310.606 27.4482 311.971 27.4482C313.336 27.4482 314.403 27.9176 315.171 28.8562C315.982 29.7949 316.387 30.9256 316.387 32.2482C316.387 33.4856 315.982 34.5736 315.171 35.5122C314.36 36.4509 313.23 36.9202 311.779 36.9202C310.84 36.9202 310.2 36.7069 309.859 36.2802C309.56 35.8109 309.326 35.1496 309.155 34.2962C309.027 33.7416 308.899 33.3362 308.771 33.0802C308.643 32.8242 308.408 32.6962 308.067 32.6962C307.171 32.6962 306.403 32.8882 305.763 33.2722C305.166 33.6136 304.376 34.2322 303.395 35.1282L298.275 59.4482H289.059L295.843 27.4482Z" fill="#050317"/>
<path d="M276.08 59.8321C272.923 59.8321 270.47 59.0214 268.72 57.4001C266.971 55.7361 266.096 53.1547 266.096 49.6561C266.096 46.7121 266.672 43.4694 267.824 39.9281C268.976 36.3867 270.854 33.3361 273.456 30.7761C276.059 28.1734 279.366 26.8721 283.376 26.8721C288.07 26.8721 290.416 28.9201 290.416 33.0161C290.416 35.4054 289.734 37.6027 288.368 39.6081C287.003 41.6134 285.19 43.2347 282.928 44.4721C280.667 45.6667 278.256 46.3494 275.696 46.5201C275.611 47.8001 275.568 48.6534 275.568 49.0801C275.568 51.1707 275.931 52.6001 276.656 53.3681C277.382 54.0934 278.555 54.4561 280.176 54.4561C282.48 54.4561 284.443 53.9227 286.064 52.8561C287.728 51.7894 289.542 50.1681 291.504 47.9921H293.68C288.944 55.8854 283.078 59.8321 276.08 59.8321ZM276.208 43.4481C277.787 43.3627 279.28 42.8081 280.688 41.7841C282.139 40.7601 283.291 39.4587 284.144 37.8801C285.04 36.3014 285.488 34.6374 285.488 32.8881C285.488 31.1387 284.955 30.2641 283.888 30.2641C282.352 30.2641 280.838 31.6081 279.344 34.2961C277.894 36.9841 276.848 40.0347 276.208 43.4481Z" fill="#050317"/>
<path d="M240.983 59.8324C238.551 59.8324 236.525 59.0004 234.903 57.3364C233.282 55.6724 232.471 53.0698 232.471 49.5284C232.471 46.3711 233.09 43.0644 234.327 39.6084C235.607 36.1098 237.485 33.1658 239.959 30.7764C242.477 28.3444 245.463 27.1284 248.919 27.1284C250.669 27.1284 251.97 27.4271 252.823 28.0244C253.677 28.6218 254.103 29.4111 254.103 30.3924V30.6484L257.239 15.9284L266.711 14.6484L259.351 49.2084C259.181 49.8484 259.095 50.5311 259.095 51.2564C259.095 52.1098 259.287 52.7284 259.671 53.1124C260.098 53.4538 260.781 53.6244 261.719 53.6244C262.914 53.6244 263.938 53.1124 264.791 52.0884C265.687 51.0644 266.391 49.6991 266.903 47.9924H269.591C266.989 55.6298 262.701 59.4484 256.727 59.4484C254.978 59.4484 253.549 58.9791 252.439 58.0404C251.373 57.1018 250.711 55.7364 250.455 53.9444C249.346 55.6511 248.002 57.0591 246.423 58.1684C244.887 59.2778 243.074 59.8324 240.983 59.8324ZM245.143 53.6244C246.167 53.6244 247.191 53.1551 248.215 52.2164C249.282 51.2778 250.007 49.9764 250.391 48.3124V47.9924L253.527 33.3364C253.143 31.8431 252.269 31.0964 250.903 31.0964C249.197 31.0964 247.661 32.0991 246.295 34.1044C244.93 36.0671 243.863 38.4564 243.095 41.2724C242.327 44.0458 241.943 46.4991 241.943 48.6324C241.943 50.7658 242.242 52.1311 242.839 52.7284C243.479 53.3258 244.247 53.6244 245.143 53.6244Z" fill="#050317"/>
<path d="M222.577 59.8324C220.529 59.8324 218.865 59.1924 217.585 57.9124C216.348 56.6324 215.729 54.7124 215.729 52.1524C215.729 51.0858 215.9 49.6991 216.241 47.9924L223.089 15.9284L232.561 14.6484L225.201 49.2084C225.03 49.8484 224.945 50.5311 224.945 51.2564C224.945 52.1098 225.137 52.7284 225.521 53.1124C225.948 53.4538 226.63 53.6244 227.569 53.6244C228.806 53.6244 229.958 53.1124 231.025 52.0884C232.092 51.0218 232.86 49.6564 233.329 47.9924H236.017C234.438 52.6004 232.412 55.7364 229.937 57.4004C227.462 59.0218 225.009 59.8324 222.577 59.8324Z" fill="#050317"/>
<path d="M190.264 59.8322C188.216 59.8322 186.552 59.1922 185.272 57.9122C184.035 56.6322 183.417 54.7122 183.417 52.1522C183.417 51.0856 183.587 49.6989 183.928 47.9922L188.281 27.4482H197.496L192.889 49.2082C192.761 49.8482 192.697 50.4456 192.697 51.0002C192.697 52.7496 193.337 53.6242 194.617 53.6242C195.811 53.6242 196.835 53.1336 197.688 52.1522C198.542 51.1282 199.224 49.7416 199.736 47.9922L204.089 27.4482H213.305L208.697 49.2082C208.526 49.8482 208.44 50.5309 208.44 51.2562C208.44 52.1096 208.632 52.7282 209.016 53.1122C209.443 53.4536 210.126 53.6242 211.064 53.6242C212.259 53.6242 213.283 53.1122 214.137 52.0882C215.033 51.0642 215.737 49.6989 216.249 47.9922H218.936C217.358 52.6002 215.395 55.7362 213.048 57.4002C210.744 59.0216 208.419 59.8322 206.072 59.8322C204.238 59.8322 202.766 59.3202 201.656 58.2962C200.59 57.2722 199.95 55.7576 199.736 53.7522C198.286 56.0989 196.75 57.6989 195.128 58.5522C193.55 59.4056 191.928 59.8322 190.264 59.8322Z" fill="#050317"/>
<path d="M165.147 59.7041C161.99 59.7041 159.494 58.8934 157.659 57.2721C155.825 55.6507 154.907 53.0907 154.907 49.5921C154.907 46.6907 155.505 43.4694 156.699 39.9281C157.894 36.3867 159.814 33.3361 162.459 30.7761C165.105 28.1734 168.433 26.8721 172.443 26.8721C177.905 26.8721 180.635 30.2854 180.635 37.1121V37.1761C180.763 37.2187 180.998 37.2401 181.339 37.2401C182.747 37.2401 184.369 36.8774 186.203 36.1521C188.038 35.3841 189.702 34.4667 191.195 33.4001L191.771 35.1281C190.534 36.4507 188.913 37.5814 186.907 38.5201C184.945 39.4161 182.79 40.0561 180.443 40.4401C180.102 44.3227 179.227 47.7147 177.819 50.6161C176.411 53.5174 174.598 55.7574 172.379 57.3361C170.161 58.9147 167.75 59.7041 165.147 59.7041ZM167.707 53.9441C168.731 53.9441 169.755 53.3681 170.779 52.2161C171.803 51.0214 172.699 49.4214 173.467 47.4161C174.235 45.3681 174.79 43.1067 175.131 40.6321C173.979 40.3761 173.403 39.4801 173.403 37.9441C173.403 36.1947 174.065 35.0427 175.387 34.4881C175.302 33.0801 175.089 32.1201 174.747 31.6081C174.406 31.0534 173.809 30.7761 172.955 30.7761C171.547 30.7761 170.182 31.8001 168.859 33.8481C167.537 35.8961 166.47 38.3494 165.659 41.2081C164.849 44.0667 164.443 46.5841 164.443 48.7601C164.443 50.8081 164.678 52.1947 165.147 52.9201C165.617 53.6027 166.47 53.9441 167.707 53.9441Z" fill="#050317"/>
<path d="M146.595 59.8324C143.992 59.8324 142.072 59.1498 140.835 57.7844C139.64 56.3764 139.043 54.6484 139.043 52.6004C139.043 51.7044 139.15 50.7018 139.363 49.5924C139.576 48.4404 139.79 47.3311 140.003 46.2644C140.259 45.1978 140.43 44.5151 140.515 44.2164C140.856 42.7231 141.176 41.2511 141.475 39.8004C141.774 38.3498 141.923 37.1764 141.923 36.2804C141.923 34.1044 141.155 33.0164 139.619 33.0164C138.51 33.0164 137.528 33.5711 136.675 34.6804C135.822 35.7471 135.139 37.1551 134.627 38.9044L130.275 59.4484H121.059L130.339 15.9284L139.811 14.6484L136.355 30.7764C138.488 28.3871 140.984 27.1924 143.843 27.1924C146.019 27.1924 147.747 27.7898 149.027 28.9844C150.307 30.1791 150.947 31.9924 150.947 34.4244C150.947 35.6618 150.798 37.0484 150.499 38.5844C150.2 40.0778 149.774 41.9124 149.219 44.0884C148.878 45.4111 148.558 46.7124 148.259 47.9924C148.003 49.2298 147.875 50.2111 147.875 50.9364C147.875 51.7898 148.067 52.4511 148.451 52.9204C148.835 53.3898 149.496 53.6244 150.435 53.6244C151.715 53.6244 152.739 53.1764 153.507 52.2804C154.275 51.3418 155.043 49.9124 155.811 47.9924H158.499C156.92 52.6858 155.086 55.8431 152.995 57.4644C150.947 59.0431 148.814 59.8324 146.595 59.8324Z" fill="#050317"/>
<path d="M106.349 59.8324C104.301 59.8324 102.573 59.4484 101.165 58.6804C99.7574 57.8697 98.712 56.8457 98.0294 55.6084C97.3467 54.3284 97.0054 53.0057 97.0054 51.6404C97.0054 50.2324 97.3467 49.0164 98.0294 47.9924C98.6694 46.9257 99.4587 46.1577 100.397 45.6884C102.061 42.7017 103.512 39.6937 104.749 36.6644C105.987 33.5924 107.16 30.2857 108.269 26.7444L117.741 25.4644C117.955 30.9257 118.317 36.835 118.829 43.1924C119.043 45.7524 119.149 47.6084 119.149 48.7604C119.149 49.7417 119.064 50.5524 118.893 51.1924C120.899 50.0404 122.435 48.9737 123.501 47.9924H126.189C123.459 51.1497 120.195 53.8164 116.397 55.9924C115.16 57.315 113.624 58.2964 111.789 58.9364C109.997 59.5337 108.184 59.8324 106.349 59.8324ZM104.301 54.7764C105.88 54.7764 107.203 54.307 108.269 53.3684C109.336 52.4297 109.869 50.915 109.869 48.8244C109.869 47.5444 109.741 45.7524 109.485 43.4484C109.059 38.5844 108.781 35.3204 108.653 33.6564C107.629 37.027 105.901 41.059 103.469 45.7524C104.451 46.2644 104.941 47.011 104.941 47.9924C104.941 48.803 104.664 49.5284 104.109 50.1684C103.597 50.8084 102.936 51.1284 102.125 51.1284C101.229 51.1284 100.653 50.851 100.397 50.2964C100.397 51.8324 100.696 52.963 101.293 53.6884C101.933 54.4137 102.936 54.7764 104.301 54.7764Z" fill="#050317"/>
<path d="M70.765 59.8321C67.6503 59.8321 65.2183 59.0214 63.469 57.4001C61.7196 55.7361 60.845 53.1547 60.845 49.6561C60.845 46.7121 61.421 43.4694 62.573 39.9281C63.725 36.3867 65.6023 33.3361 68.205 30.7761C70.8076 28.1734 74.1143 26.8721 78.125 26.8721C82.8183 26.8721 85.165 28.9201 85.165 33.0161C85.165 35.4054 84.4823 37.6027 83.117 39.6081C81.7516 41.6134 79.9383 43.2347 77.677 44.4721C75.4156 45.6667 73.005 46.3494 70.445 46.5201C70.3596 47.4587 70.317 48.0987 70.317 48.4401C70.317 51.9814 71.6396 53.7521 74.285 53.7521C75.4796 53.7521 76.7596 53.4321 78.125 52.7921C79.4903 52.1521 80.7276 51.3414 81.837 50.3601C80.685 56.6747 76.9943 59.8321 70.765 59.8321ZM70.893 43.4481C72.5143 43.4054 74.029 42.8721 75.437 41.8481C76.8876 40.8241 78.0396 39.5227 78.893 37.9441C79.789 36.3227 80.237 34.6374 80.237 32.8881C80.237 31.1387 79.7036 30.2641 78.637 30.2641C77.1436 30.2641 75.6503 31.6294 74.157 34.3601C72.7063 37.0481 71.6183 40.0774 70.893 43.4481Z" fill="#050317"/>
<path d="M52.544 59.8322C49.9413 59.8322 48.0213 59.1495 46.784 57.7842C45.5893 56.3762 44.992 54.6482 44.992 52.6002C44.992 51.7042 45.0987 50.7015 45.312 49.5922C45.5253 48.4402 45.7387 47.3309 45.952 46.2642C46.208 45.1975 46.3787 44.5149 46.464 44.2162C46.8053 42.7229 47.1253 41.2509 47.424 39.8002C47.7227 38.3495 47.872 37.1762 47.872 36.2802C47.872 34.1042 47.104 33.0162 45.568 33.0162C44.5013 33.0162 43.5413 33.5282 42.688 34.5522C41.8773 35.5762 41.216 36.8989 40.704 38.5202C39.424 45.2189 38.1227 52.1949 36.8 59.4482H27.584L36.352 18.6162C34.8587 18.4882 32.0427 18.1255 27.904 17.5282L18.88 59.4482H9.664L18.816 16.9522C14.7627 17.1229 11.6053 18.1682 9.344 20.0882C7.08267 22.0082 5.952 25.3149 5.952 30.0082C5.952 31.5869 6.10133 32.6962 6.4 33.3362C6.69867 33.9335 6.848 34.2749 6.848 34.3602C4.544 34.3602 2.816 33.8909 1.664 32.9522C0.554667 31.9709 0 30.3709 0 28.1522C0 25.1655 0.810667 22.4135 2.432 19.8962C4.05333 17.3789 6.54933 15.3522 9.92 13.8162C13.2907 12.2802 17.4933 11.5122 22.528 11.5122C23.3813 11.5122 25.1947 11.7042 27.968 12.0882C33.0453 12.8135 36.992 13.1762 39.808 13.1762C43.4773 13.1762 46.0587 12.6642 47.552 11.6402C46.912 12.8349 46.3787 13.9655 45.952 15.0322C45.568 16.0989 45.0773 17.8482 44.48 20.2802C43.8827 22.6695 43.1147 26.2109 42.176 30.9042C44.352 28.4295 46.8907 27.1922 49.792 27.1922C51.968 27.1922 53.696 27.7895 54.976 28.9842C56.256 30.1789 56.896 31.9922 56.896 34.4242C56.896 35.6615 56.7467 37.0482 56.448 38.5842C56.1493 40.0775 55.7227 41.9122 55.168 44.0882C54.8267 45.4109 54.5067 46.7122 54.208 47.9922C53.952 49.2295 53.824 50.2109 53.824 50.9362C53.824 51.7895 54.016 52.4509 54.4 52.9202C54.784 53.3895 55.4453 53.6242 56.384 53.6242C57.664 53.6242 58.688 53.1762 59.456 52.2802C60.224 51.3415 60.992 49.9122 61.76 47.9922H64.448C62.8693 52.6855 61.0347 55.8429 58.944 57.4642C56.896 59.0429 54.7627 59.8322 52.544 59.8322Z" fill="#050317"/>
</svg>
