<svg width="345" height="73" viewBox="0 0 345 73" fill="none" xmlns="http://www.w3.org/2000/svg">
<path d="M323.843 24.634H333.06L332.228 28.6025C333.679 27.3224 334.981 26.3409 336.133 25.6582C337.328 24.9754 338.608 24.634 339.973 24.634C341.339 24.634 342.406 25.1034 343.174 26.0422C343.985 26.981 344.39 28.1118 344.39 29.4347C344.39 30.6721 343.985 31.7603 343.174 32.6991C342.363 33.6379 341.232 34.1073 339.781 34.1073C338.843 34.1073 338.202 33.8939 337.861 33.4672C337.562 32.9978 337.328 32.3364 337.157 31.4829C337.029 30.9282 336.901 30.5228 336.773 30.2668C336.645 30.0107 336.41 29.8827 336.069 29.8827C335.173 29.8827 334.405 30.0747 333.765 30.4588C333.167 30.8002 332.378 31.4189 331.396 32.315L326.276 56.6382H317.058L323.843 24.634Z" fill="#050317"/>
<path d="M304.079 57.0221C300.921 57.0221 298.467 56.2114 296.718 54.5898C294.968 52.9256 294.093 50.3439 294.093 46.8448C294.093 43.9004 294.669 40.6573 295.821 37.1156C296.974 33.5738 298.851 30.5227 301.454 27.9624C304.057 25.3594 307.364 24.0579 311.376 24.0579C316.069 24.0579 318.416 26.1061 318.416 30.2027C318.416 32.5923 317.734 34.7899 316.368 36.7955C315.003 38.8011 313.189 40.4226 310.927 41.6601C308.666 42.855 306.255 43.5377 303.695 43.7084C303.609 44.9886 303.567 45.842 303.567 46.2687C303.567 48.3597 303.929 49.7892 304.655 50.5573C305.38 51.2827 306.554 51.6454 308.175 51.6454C310.479 51.6454 312.442 51.112 314.064 50.0452C315.728 48.9784 317.542 47.3569 319.505 45.1806H321.681C316.944 53.075 311.077 57.0221 304.079 57.0221ZM304.207 40.636C305.785 40.5507 307.279 39.9959 308.687 38.9718C310.138 37.9477 311.29 36.6462 312.144 35.0673C313.04 33.4884 313.488 31.8242 313.488 30.0746C313.488 28.3251 312.954 27.4503 311.888 27.4503C310.351 27.4503 308.837 28.7945 307.343 31.4828C305.892 34.1712 304.847 37.2222 304.207 40.636Z" fill="#050317"/>
<path d="M285.715 57.0221C283.112 57.0221 281.192 56.3394 279.955 54.9739C278.76 53.5657 278.162 51.8375 278.162 49.7892C278.162 48.8931 278.269 47.8903 278.482 46.7808C278.696 45.6287 278.909 44.5192 279.122 43.4524C279.379 42.3856 279.549 41.7028 279.635 41.4041C279.976 39.9106 280.296 38.4384 280.595 36.9875C280.893 35.5367 281.043 34.3632 281.043 33.4671C281.043 31.2908 280.275 30.2027 278.738 30.2027C277.629 30.2027 276.647 30.7574 275.794 31.8669C274.941 32.9337 274.258 34.3419 273.746 36.0914L269.393 56.6381H260.176L269.457 13.1124L278.93 11.8323L275.474 27.9624C277.608 25.5727 280.104 24.3779 282.963 24.3779C285.139 24.3779 286.868 24.9753 288.148 26.1701C289.428 27.365 290.068 29.1785 290.068 31.6108C290.068 32.8483 289.919 34.2352 289.62 35.7714C289.321 37.2649 288.894 39.0998 288.34 41.2761C287.998 42.5989 287.678 43.9004 287.38 45.1806C287.124 46.4181 286.996 47.3996 286.996 48.125C286.996 48.9784 287.188 49.6398 287.572 50.1092C287.956 50.5786 288.617 50.8133 289.556 50.8133C290.836 50.8133 291.86 50.3653 292.628 49.4692C293.396 48.5304 294.164 47.1009 294.933 45.1806H297.621C296.042 49.8745 294.207 53.0323 292.116 54.6538C290.068 56.2327 287.934 57.0221 285.715 57.0221Z" fill="#050317"/>
<path d="M251.881 57.022C249.833 57.022 248.168 56.3819 246.888 55.1018C245.651 53.8216 245.032 51.9014 245.032 49.341C245.032 48.2742 245.203 46.8874 245.544 45.1805L249.385 27.1942H247.272L247.784 24.6338H249.897L251.817 15.8007L261.29 14.5205L259.114 24.6338H262.954L262.442 27.1942H258.602L254.505 46.3966C254.335 47.0367 254.249 47.7195 254.249 48.4449C254.249 49.2983 254.441 49.9171 254.825 50.3011C255.252 50.6425 255.935 50.8132 256.874 50.8132C258.111 50.8132 259.263 50.3011 260.33 49.277C261.397 48.2102 262.165 46.8447 262.634 45.1805H265.323C263.744 49.7891 261.717 52.9255 259.242 54.5897C256.767 56.2112 254.313 57.022 251.881 57.022Z" fill="#050317"/>
<path d="M230.131 57.0221C226.974 57.0221 224.52 56.2114 222.77 54.5898C221.021 52.9256 220.146 50.3439 220.146 46.8448C220.146 43.9004 220.722 40.6573 221.874 37.1156C223.026 33.5738 224.904 30.5227 227.507 27.9624C230.11 25.3594 233.417 24.0579 237.428 24.0579C242.122 24.0579 244.469 26.1061 244.469 30.2027C244.469 32.5923 243.786 34.7899 242.421 36.7955C241.055 38.8011 239.242 40.4226 236.98 41.6601C234.719 42.855 232.308 43.5377 229.747 43.7084C229.662 44.9886 229.619 45.842 229.619 46.2687C229.619 48.3597 229.982 49.7892 230.707 50.5573C231.433 51.2827 232.606 51.6454 234.228 51.6454C236.532 51.6454 238.495 51.112 240.117 50.0452C241.781 48.9784 243.594 47.3569 245.557 45.1806H247.734C242.997 53.075 237.13 57.0221 230.131 57.0221ZM230.259 40.636C231.838 40.5507 233.332 39.9959 234.74 38.9718C236.191 37.9477 237.343 36.6462 238.196 35.0673C239.092 33.4884 239.541 31.8242 239.541 30.0746C239.541 28.3251 239.007 27.4503 237.94 27.4503C236.404 27.4503 234.889 28.7945 233.396 31.4828C231.945 34.1712 230.899 37.2222 230.259 40.636Z" fill="#050317"/>
<path d="M199.866 72.64C197.818 72.64 196.111 72.1066 194.745 71.0398C193.38 69.973 192.697 68.4368 192.697 66.4312C192.697 63.9989 193.678 62.0359 195.641 60.5424C197.604 59.0916 200.101 57.8754 203.13 56.8939L203.898 53.5015C201.722 55.8485 199.162 57.022 196.217 57.022C193.785 57.022 191.758 56.1899 190.137 54.5256C188.515 52.8614 187.704 50.2584 187.704 46.7166C187.704 43.5589 188.323 40.2518 189.561 36.7953C190.841 33.2962 192.718 30.3518 195.193 27.9622C197.711 25.5299 200.698 24.3137 204.154 24.3137C205.904 24.3137 207.206 24.6124 208.059 25.2098C208.912 25.8072 209.339 26.5967 209.339 27.5781V27.9622L210.043 24.6338H219.26L212.924 54.3336C214.972 53.6509 216.615 52.6267 217.852 51.2612C219.09 49.8957 220.135 47.8688 220.989 45.1804H223.677C222.525 48.9782 220.967 51.7733 219.004 53.5655C217.041 55.3151 214.823 56.5099 212.348 57.15L211.387 61.7586C210.534 65.8978 209.062 68.7355 206.971 70.2717C204.88 71.8505 202.512 72.64 199.866 72.64ZM200.378 50.8132C201.359 50.8132 202.362 50.3651 203.386 49.469C204.411 48.5729 205.115 47.3567 205.499 45.8205L208.763 30.6505C208.763 30.1385 208.55 29.6264 208.123 29.1143C207.696 28.5596 207.035 28.2822 206.139 28.2822C204.432 28.2822 202.896 29.285 201.53 31.2906C200.165 33.2535 199.098 35.6432 198.33 38.4596C197.562 41.2332 197.178 43.6869 197.178 45.8205C197.178 47.9541 197.476 49.3196 198.074 49.917C198.714 50.5144 199.482 50.8132 200.378 50.8132ZM198.394 67.6473C199.119 67.6473 199.823 67.1566 200.506 66.1751C201.189 65.1937 201.722 63.7855 202.106 61.9506L202.49 60.0944C198.308 61.6306 196.217 63.4441 196.217 65.5351C196.217 66.0898 196.409 66.5805 196.794 67.0072C197.178 67.434 197.711 67.6473 198.394 67.6473Z" fill="#050317"/>
<path d="M169.753 56.8941C166.595 56.8941 164.099 56.0833 162.264 54.4618C160.429 52.8403 159.512 50.2799 159.512 46.7808C159.512 43.8791 160.109 40.6573 161.304 37.1156C162.499 33.5738 164.419 30.5227 167.065 27.9624C169.71 25.3594 173.039 24.0579 177.05 24.0579C182.512 24.0579 185.243 27.4716 185.243 34.2992V34.3632C185.371 34.4059 185.606 34.4272 185.947 34.4272C187.355 34.4272 188.977 34.0645 190.812 33.3391C192.647 32.571 194.311 31.6535 195.804 30.5867L196.38 32.3149C195.143 33.6378 193.521 34.7686 191.516 35.7074C189.553 36.6035 187.398 37.2436 185.051 37.6276C184.71 41.5108 183.835 44.9032 182.427 47.8049C181.019 50.7066 179.205 52.9469 176.986 54.5258C174.767 56.1047 172.356 56.8941 169.753 56.8941ZM172.313 51.1334C173.338 51.1334 174.362 50.5573 175.386 49.4051C176.41 48.2103 177.306 46.6101 178.074 44.6045C178.842 42.5563 179.397 40.2946 179.738 37.8196C178.586 37.5636 178.01 36.6675 178.01 35.1313C178.01 33.3817 178.672 32.2296 179.994 31.6748C179.909 30.2667 179.696 29.3065 179.354 28.7945C179.013 28.2397 178.416 27.9624 177.562 27.9624C176.154 27.9624 174.788 28.9865 173.466 31.0348C172.143 33.083 171.076 35.5367 170.265 38.3957C169.454 41.2548 169.049 43.7724 169.049 45.9487C169.049 47.997 169.284 49.3838 169.753 50.1092C170.222 50.792 171.076 51.1334 172.313 51.1334Z" fill="#050317"/>
<path d="M149.68 57.022C147.631 57.022 145.967 56.3819 144.687 55.1018C143.45 53.8216 142.831 51.9014 142.831 49.341C142.831 48.2742 143.001 46.8874 143.343 45.1805L147.183 27.1942H145.071L145.583 24.6338H147.695L149.616 15.8007L159.089 14.5205L156.913 24.6338H160.753L160.241 27.1942H156.401L152.304 46.3966C152.133 47.0367 152.048 47.7195 152.048 48.4449C152.048 49.2983 152.24 49.9171 152.624 50.3011C153.051 50.6425 153.734 50.8132 154.672 50.8132C155.91 50.8132 157.062 50.3011 158.129 49.277C159.196 48.2102 159.964 46.8447 160.433 45.1805H163.121C161.543 49.7891 159.516 52.9255 157.041 54.5897C154.566 56.2112 152.112 57.022 149.68 57.022Z" fill="#050317"/>
<path d="M123.342 57.0221C120.697 57.0221 118.691 56.4034 117.325 55.1659C115.96 53.8857 115.277 52.0722 115.277 49.7252C115.277 48.7011 115.405 47.5916 115.661 46.3968L116.173 43.9004C116.344 43.175 116.429 42.3856 116.429 41.5321C116.429 39.4839 115.661 38.4597 114.125 38.4597C113.442 38.4597 112.717 38.6518 111.949 39.0358C111.223 39.4199 110.37 40.0173 109.388 40.828L106.06 56.6381H96.8428L106.124 13.1124L115.597 11.8323L110.797 34.3632L123.15 24.6339H129.487L116.685 33.5311C117.325 33.3604 118.03 33.2751 118.798 33.2751C121.102 33.2751 122.851 33.9791 124.046 35.3873C125.241 36.7955 125.839 38.5877 125.839 40.764C125.839 41.6601 125.753 42.4709 125.582 43.1963L124.878 46.3968C124.665 47.1649 124.558 47.8476 124.558 48.445C124.558 50.0239 125.39 50.8133 127.055 50.8133C127.993 50.8133 128.591 50.7493 128.847 50.6213C129.103 50.4933 129.252 50.4293 129.295 50.4293C129.21 51.8375 128.804 53.0323 128.079 54.0137C127.396 54.9952 126.585 55.742 125.647 56.254C124.75 56.7661 123.982 57.0221 123.342 57.0221Z" fill="#050317"/>
<path d="M90.0654 57.0219C87.4624 57.0219 85.5422 56.3392 84.3047 54.9736C83.1099 53.5655 82.5125 51.8372 82.5125 49.789C82.5125 48.8929 82.6191 47.8901 82.8325 46.7806C83.0459 45.6284 83.2592 44.519 83.4726 43.4522C83.7286 42.3854 83.8993 41.7026 83.9846 41.4039C84.326 39.9104 84.6461 38.4382 84.9448 36.9873C85.2435 35.5365 85.3928 34.363 85.3928 33.4669C85.3928 31.2906 84.6247 30.2024 83.0885 30.2024C81.9791 30.2024 80.9976 30.7572 80.1441 31.8667C79.2907 32.9335 78.6079 34.3416 78.0959 36.0912L73.7433 56.6379H64.5261L71.311 24.6337H80.5282L79.8241 27.9621C81.9577 25.5725 84.454 24.3777 87.3131 24.3777C89.4894 24.3777 91.2176 24.9751 92.4978 26.1699C93.7779 27.3647 94.418 29.1783 94.418 31.6106C94.418 32.8481 94.2686 34.235 93.9699 35.7712C93.6712 37.2647 93.2445 39.0996 92.6898 41.2759C92.3484 42.5987 92.0284 43.9002 91.7297 45.1804C91.4736 46.4179 91.3456 47.3993 91.3456 48.1248C91.3456 48.9782 91.5376 49.6396 91.9217 50.109C92.3057 50.5784 92.9671 50.8131 93.9059 50.8131C95.1861 50.8131 96.2102 50.3651 96.9783 49.4689C97.7464 48.5301 98.5145 47.1006 99.2826 45.1804H101.971C100.392 49.8743 98.5572 53.0321 96.4663 54.6536C94.418 56.2325 92.2844 57.0219 90.0654 57.0219Z" fill="#050317"/>
<path d="M60.583 21.1773C59.1749 21.1773 57.98 20.6866 56.9986 19.7051C56.0171 18.7237 55.5264 17.5288 55.5264 16.1207C55.5264 14.7125 56.0171 13.5177 56.9986 12.5362C57.98 11.5121 59.1749 11 60.583 11C61.9912 11 63.186 11.5121 64.1675 12.5362C65.1916 13.5177 65.7037 14.7125 65.7037 16.1207C65.7037 17.5288 65.1916 18.7237 64.1675 19.7051C63.186 20.6866 61.9912 21.1773 60.583 21.1773ZM56.2305 57.022C54.1822 57.022 52.518 56.3819 51.2378 55.1017C50.0003 53.8216 49.3816 51.9013 49.3816 49.341C49.3816 48.2742 49.5523 46.8873 49.8937 45.1804L54.2462 24.6338H63.4634L58.8548 46.3966C58.6841 47.0367 58.5988 47.7194 58.5988 48.4449C58.5988 49.2983 58.7908 49.9171 59.1749 50.3011C59.6016 50.6425 60.2843 50.8132 61.2231 50.8132C62.4606 50.8132 63.6128 50.3011 64.6796 49.277C65.7464 48.2102 66.5145 46.8447 66.9839 45.1804H69.6722C68.0934 49.789 66.0664 52.9254 63.5914 54.5897C61.1164 56.2112 58.6628 57.022 56.2305 57.022Z" fill="#050317"/>
<path d="M40.6838 57.0221C38.0808 57.0221 36.1606 56.3394 34.9231 54.9739C33.7283 53.5657 33.1309 51.8375 33.1309 49.7892C33.1309 48.8931 33.2375 47.8903 33.4509 46.7808C33.6643 45.6287 33.8776 44.5192 34.091 43.4524C34.347 42.3856 34.5177 41.7028 34.6031 41.4041C34.9444 39.9106 35.2645 38.4384 35.5632 36.9875C35.8619 35.5367 36.0112 34.3632 36.0112 33.4671C36.0112 31.2908 35.2431 30.2027 33.7069 30.2027C32.5975 30.2027 31.616 30.7574 30.7626 31.8669C29.9091 32.9337 29.2264 34.3419 28.7143 36.0914L24.3617 56.6381H15.1445L24.4257 13.1124L33.899 11.8323L30.4425 27.9624C32.5761 25.5727 35.0724 24.3779 37.9315 24.3779C40.1078 24.3779 41.836 24.9753 43.1162 26.1701C44.3963 27.365 45.0364 29.1785 45.0364 31.6108C45.0364 32.8483 44.8871 34.2352 44.5884 35.7714C44.2896 37.2649 43.8629 39.0998 43.3082 41.2761C42.9668 42.5989 42.6468 43.9004 42.3481 45.1806C42.092 46.4181 41.964 47.3996 41.964 48.125C41.964 48.9784 42.156 49.6398 42.5401 50.1092C42.9241 50.5786 43.5856 50.8133 44.5243 50.8133C45.8045 50.8133 46.8286 50.3653 47.5967 49.4692C48.3648 48.5304 49.1329 47.1009 49.901 45.1806H52.5894C51.0105 49.8745 49.1756 53.0323 47.0847 54.6538C45.0364 56.2327 42.9028 57.0221 40.6838 57.0221Z" fill="#050317"/>
<path d="M6.84889 57.022C4.80062 57.022 3.13641 56.3819 1.85624 55.1018C0.618747 53.8216 0 51.9014 0 49.341C0 48.2742 0.170689 46.8874 0.512066 45.1805L4.35256 27.1942H2.24029L2.75236 24.6338H4.86463L6.78488 15.8007L16.2581 14.5205L14.0818 24.6338H17.9223L17.4103 27.1942H13.5698L9.47323 46.3966C9.30254 47.0367 9.2172 47.7195 9.2172 48.4449C9.2172 49.2983 9.40922 49.9171 9.79327 50.3011C10.22 50.6425 10.9027 50.8132 11.8415 50.8132C13.079 50.8132 14.2312 50.3011 15.298 49.277C16.3648 48.2102 17.1329 46.8447 17.6023 45.1805H20.2906C18.7118 49.7891 16.6848 52.9255 14.2098 54.5897C11.7349 56.2112 9.2812 57.022 6.84889 57.022Z" fill="#050317"/>
</svg>
