<svg width="24" height="24" viewBox="0 0 24 24" fill="none" xmlns="http://www.w3.org/2000/svg">
<mask id="mask0_186_391" style="mask-type:alpha" maskUnits="userSpaceOnUse" x="0" y="0" width="24" height="24">
<rect width="24" height="24" fill="#D9D9D9"/>
</mask>
<g mask="url(#mask0_186_391)">
<path fill-rule="evenodd" clip-rule="evenodd" d="M4 11.7598C4 7.30191 7.4939 4 11.9998 4C16.5057 4 19.9996 7.30391 19.9996 11.7618C19.9996 16.2197 16.5057 19.5216 11.9998 19.5216C11.1898 19.5216 10.4138 19.4136 9.68384 19.2136C9.54185 19.1756 9.38985 19.1856 9.25586 19.2456L7.6679 19.9456C7.57199 19.9879 7.46716 20.006 7.36263 19.9983C7.25809 19.9906 7.15704 19.9573 7.06836 19.9014C6.97968 19.8455 6.90609 19.7687 6.85405 19.6777C6.80202 19.5867 6.77313 19.4844 6.76992 19.3796L6.72593 17.9556C6.72193 17.7796 6.64193 17.6156 6.51193 17.4996C4.95597 16.1077 4 14.0917 4 11.7598ZM9.5457 10.3019L7.19576 14.0298C6.96977 14.3878 7.40976 14.7898 7.74575 14.5338L10.2697 12.6178C10.3527 12.5547 10.4541 12.5204 10.5583 12.5201C10.6626 12.5197 10.7642 12.5533 10.8477 12.6158L12.7176 14.0178C12.8502 14.1174 13.0021 14.1884 13.1636 14.2264C13.325 14.2643 13.4926 14.2684 13.6557 14.2383C13.8189 14.2083 13.974 14.1447 14.1113 14.0517C14.2486 13.9586 14.3652 13.8381 14.4536 13.6978L16.8055 9.97188C17.0295 9.61389 16.5895 9.2099 16.2535 9.4659L13.7296 11.3818C13.6465 11.4449 13.5452 11.4792 13.4409 11.4796C13.3366 11.48 13.2351 11.4463 13.1516 11.3838L11.2816 9.98188C11.149 9.88227 10.9972 9.81124 10.8357 9.77328C10.6742 9.73531 10.5066 9.73124 10.3435 9.76131C10.1804 9.79137 10.0253 9.85494 9.88796 9.94798C9.75064 10.041 9.6341 10.1615 9.5457 10.3019Z" fill="url(#paint0_radial_186_391)"/>
</g>
<defs>
<radialGradient id="paint0_radial_186_391" cx="0" cy="0" r="1" gradientUnits="userSpaceOnUse" gradientTransform="translate(6.67993 19.9996) scale(17.5995 17.5995)">
<stop stop-color="#0099FF"/>
<stop offset="0.6" stop-color="#A033FF"/>
<stop offset="0.9" stop-color="#FF5280"/>
<stop offset="1" stop-color="#FF7061"/>
</radialGradient>
</defs>
</svg>
