<svg width="24" height="24" viewBox="0 0 24 24" fill="none" xmlns="http://www.w3.org/2000/svg">
<mask id="mask0_186_564" style="mask-type:alpha" maskUnits="userSpaceOnUse" x="0" y="0" width="24" height="24">
<rect width="24" height="24" fill="#D9D9D9"/>
</mask>
<g mask="url(#mask0_186_564)">
<path d="M10.0523 9.91559V9.23129C9.8148 9.19368 9.57488 9.17307 9.33441 9.16963C7.00631 9.16466 4.94518 10.6733 4.24605 12.894C3.54692 15.1146 4.37217 17.5319 6.28311 18.8615C5.58236 18.1116 5.11366 17.1748 4.93357 16.1644C4.75348 15.1539 4.86971 14.1129 5.26822 13.167C5.66674 12.2212 6.3305 11.4108 7.1794 10.8339C8.02829 10.257 9.02603 9.93805 10.0522 9.91566L10.0523 9.91559Z" fill="#25F4EE"/>
<path d="M10.1814 17.6669C11.4831 17.6651 12.553 16.6397 12.61 15.3393V3.73477H14.73C14.6867 3.49229 14.6661 3.24631 14.6683 3L11.7686 3V14.5933C11.7204 15.9003 10.6479 16.9356 9.34 16.9377C8.94916 16.9344 8.5647 16.8383 8.21827 16.6573C8.4428 16.9684 8.73766 17.222 9.07882 17.3974C9.41997 17.5729 9.79777 17.6652 10.1814 17.6669ZM18.6898 7.67205V7.02705C17.9095 7.02735 17.1466 6.79712 16.4968 6.36527C17.0664 7.02751 17.8362 7.48623 18.6898 7.67205Z" fill="#25F4EE"/>
<path d="M16.4968 6.36526C15.8566 5.63631 15.5037 4.69924 15.504 3.7291H14.73C14.83 4.26548 15.0382 4.77586 15.342 5.2291C15.6457 5.68233 16.0387 6.06892 16.4968 6.36526ZM9.33441 12.0693C8.79153 12.0721 8.26514 12.2563 7.83895 12.5926C7.41276 12.9289 7.11122 13.398 6.98227 13.9253C6.85333 14.4527 6.90438 15.008 7.1273 15.503C7.35023 15.9981 7.73224 16.4043 8.21261 16.6573C7.94997 16.2947 7.79269 15.8665 7.75815 15.4201C7.72361 14.9737 7.81314 14.5264 8.01686 14.1277C8.22058 13.729 8.53056 13.3943 8.91254 13.1607C9.29453 12.9271 9.73365 12.8037 10.1814 12.804C10.4248 12.8072 10.6665 12.8451 10.8992 12.9166V9.96605C10.6616 9.93042 10.4217 9.91169 10.1814 9.90999H10.0523V12.1534C9.81838 12.0907 9.57654 12.0624 9.33441 12.0693Z" fill="#FE2C55"/>
<path d="M18.6898 7.67204V9.91557C17.2454 9.91276 15.8384 9.45555 14.6683 8.60871V14.5035C14.6621 17.4449 12.2758 19.8262 9.33441 19.8262C8.24198 19.8282 7.17586 19.4911 6.28311 18.8615C7.01109 19.6445 7.958 20.1902 9.0005 20.4274C10.043 20.6645 11.1328 20.5823 12.1279 20.1913C13.1229 19.8003 13.9772 19.1187 14.5794 18.2353C15.1816 17.3519 15.5038 16.3076 15.504 15.2384V9.36034C16.6781 10.2016 18.0867 10.6528 19.5311 10.6503V7.76157C19.2483 7.76073 18.9664 7.73073 18.6898 7.67204Z" fill="#FE2C55"/>
<path d="M14.6683 14.5035V8.60872C15.842 9.45074 17.2509 9.90206 18.6954 9.89873V7.65527C17.842 7.47505 17.0704 7.02229 16.4968 6.36526C16.0387 6.06892 15.6457 5.68233 15.3419 5.2291C15.0382 4.77586 14.83 4.26548 14.73 3.7291H12.61V15.3394C12.5893 15.8448 12.4118 16.3312 12.102 16.731C11.7922 17.1308 11.3655 17.4242 10.8813 17.5704C10.3971 17.7166 9.87939 17.7083 9.4001 17.5467C8.92082 17.3851 8.50378 17.0782 8.20694 16.6686C7.72649 16.4157 7.3444 16.0094 7.12141 15.5144C6.89843 15.0193 6.84735 14.464 6.9763 13.9365C7.10526 13.4091 7.40684 12.94 7.83309 12.6037C8.25935 12.2674 8.7858 12.0832 9.32874 12.0805C9.57224 12.0827 9.81411 12.1205 10.0467 12.1927V9.9492C9.015 9.9667 8.01071 10.284 7.15625 10.8624C6.30179 11.4408 5.63407 12.2553 5.23452 13.2066C4.83497 14.1579 4.72084 15.2049 4.90605 16.22C5.09126 17.2351 5.56781 18.1743 6.27759 18.9232C7.17911 19.5321 8.24675 19.8475 9.33441 19.8262C12.2758 19.8262 14.6621 17.4449 14.6683 14.5035Z" fill="black"/>
</g>
</svg>
