<svg width="24" height="24" viewBox="0 0 24 24" fill="none" xmlns="http://www.w3.org/2000/svg">
<mask id="mask0_63_336" style="mask-type:alpha" maskUnits="userSpaceOnUse" x="0" y="0" width="24" height="24">
<rect width="24" height="24" fill="#D9D9D9"/>
</mask>
<g mask="url(#mask0_63_336)">
<path d="M17.3216 10.6393C17.3216 10.6345 17.3197 10.6299 17.3163 10.6265C17.3129 10.6231 17.3083 10.6212 17.3036 10.6212H16.8013C16.7965 10.6212 16.7919 10.6231 16.7885 10.6265C16.7851 10.6299 16.7832 10.6345 16.7832 10.6393V13.3037C16.7832 13.3084 16.7851 13.313 16.7885 13.3164C16.7919 13.3198 16.7965 13.3217 16.8013 13.3217H17.3036C17.3083 13.3217 17.3129 13.3198 17.3163 13.3164C17.3197 13.313 17.3216 13.3084 17.3216 13.3037V10.6393Z" stroke="#050317" stroke-width="2"/>
<path d="M7.54154 11.8365C7.71336 11.6897 7.78154 11.4769 7.74954 11.2487C7.63545 10.4306 6.56832 10.617 5.89284 10.6303C5.87151 10.6303 5.86084 10.6409 5.86084 10.6623V13.2856C5.86084 13.2902 5.86174 13.2948 5.86349 13.2991C5.86524 13.3034 5.8678 13.3074 5.87103 13.3106C5.87426 13.3139 5.87809 13.3166 5.88231 13.3183C5.88653 13.3201 5.89105 13.321 5.89562 13.321C6.37632 13.3238 7.15127 13.401 7.52762 13.2076C8.0431 12.944 8.07023 12.1843 7.5464 11.8859C7.54214 11.8834 7.53852 11.88 7.53585 11.8759C7.53318 11.8717 7.53154 11.867 7.53106 11.8622C7.53058 11.8573 7.53128 11.8525 7.53311 11.848C7.53493 11.8435 7.53782 11.8396 7.54154 11.8365Z" stroke="#050317" stroke-width="2"/>
<path d="M11.0261 12.2957H11.4435C11.4681 12.2957 11.4861 12.3064 11.4977 12.3277L12.0278 13.287C12.0394 13.3088 12.0575 13.3197 12.0821 13.3197L12.5544 13.326C12.5836 13.3264 12.5908 13.3139 12.576 13.2884L11.9583 12.2143C11.9411 12.1842 11.9474 12.1601 11.977 12.142C12.3128 11.9398 12.4427 11.6418 12.3666 11.2481C12.2191 10.4877 11.056 10.6199 10.521 10.6282C10.4978 10.6287 10.4863 10.6403 10.4863 10.663L10.4849 13.2773C10.4849 13.3069 10.4997 13.3218 10.5294 13.3218H10.9391C10.9739 13.3218 10.9913 13.3044 10.9913 13.2696V12.3305C10.9913 12.3073 11.0029 12.2957 11.0261 12.2957Z" stroke="#050317" stroke-width="2"/>
<path d="M8.80064 12.5231L10.0159 12.5176C10.0424 12.5176 10.0568 12.5046 10.0591 12.4786C10.2177 10.8355 7.92899 11.0539 8.23647 12.6254C8.38256 13.3697 9.3036 13.5367 9.90951 13.1944C9.92806 13.1842 9.9334 13.1692 9.92551 13.1492L9.80516 12.8369C9.80294 12.8312 9.79954 12.8261 9.79518 12.8218C9.79083 12.8175 9.78562 12.8143 9.7799 12.8122C9.77419 12.8101 9.76809 12.8092 9.76201 12.8096C9.75593 12.81 9.75001 12.8117 9.74464 12.8146C9.41003 12.9941 8.88482 13.0031 8.7763 12.5537C8.77166 12.5338 8.77977 12.5236 8.80064 12.5231Z" stroke="#050317" stroke-width="2"/>
<path d="M13.3035 12.5273L14.5361 12.5051C14.5598 12.5046 14.5721 12.4923 14.573 12.4682C14.5862 11.8713 14.3393 11.3072 13.6395 11.3552C13.1284 11.3904 12.8313 11.6487 12.7483 12.1301C12.5668 13.1833 13.5838 13.6654 14.4207 13.1958C14.442 13.1838 14.4476 13.1664 14.4374 13.1437L14.3003 12.832C14.2985 12.8277 14.2958 12.8237 14.2923 12.8205C14.2889 12.8172 14.2848 12.8147 14.2803 12.8131C14.2758 12.8114 14.271 12.8107 14.2662 12.811C14.2614 12.8113 14.2567 12.8125 14.2523 12.8146C13.901 12.9906 13.4106 13.0045 13.284 12.5538C13.2789 12.5366 13.2854 12.5278 13.3035 12.5273Z" stroke="#050317" stroke-width="2"/>
<path d="M15.9825 13.0956V13.2779C15.9825 13.3071 15.9968 13.3217 16.0256 13.3217H16.4506C16.4738 13.3217 16.4854 13.3101 16.4854 13.2869C16.4882 12.8751 16.4882 12.463 16.4854 12.0507C16.4785 11.1422 14.9703 11.1485 14.8395 11.9422C14.8353 11.9691 14.8467 11.9826 14.8736 11.9826H15.2694C15.2931 11.9826 15.3105 11.9721 15.3216 11.9513C15.4997 11.6194 16.0562 11.7161 15.972 12.1377C15.9683 12.1581 15.956 12.169 15.9352 12.1704C15.6451 12.1871 15.2875 12.1732 15.0225 12.3172C14.228 12.7485 15.2388 13.8893 15.9512 13.0845C15.972 13.0604 15.9825 13.0641 15.9825 13.0956Z" stroke="#050317" stroke-width="2"/>
<path d="M18.1097 12.8152C18.1097 12.8119 18.1091 12.8087 18.1079 12.8056C18.1066 12.8026 18.1048 12.7998 18.1025 12.7975C18.1002 12.7951 18.0975 12.7932 18.0945 12.7919C18.0914 12.7907 18.0882 12.79 18.0849 12.7899L17.6286 12.7852C17.6219 12.7851 17.6155 12.7877 17.6108 12.7923C17.606 12.797 17.6033 12.8033 17.6033 12.8099L17.5981 13.2983C17.5981 13.3015 17.5987 13.3048 17.6 13.3079C17.6012 13.3109 17.603 13.3137 17.6053 13.316C17.6076 13.3184 17.6103 13.3203 17.6134 13.3216C17.6164 13.3228 17.6196 13.3235 17.6229 13.3236L18.0793 13.3283C18.0859 13.3284 18.0923 13.3258 18.097 13.3212C18.1018 13.3165 18.1045 13.3102 18.1046 13.3036L18.1097 12.8152Z" stroke="#050317" stroke-width="2"/>
<path d="M6.38413 11.0741L6.38135 11.696C6.38135 11.701 6.38333 11.7058 6.38685 11.7093C6.39037 11.7128 6.39515 11.7148 6.40013 11.7148L6.85022 11.7162C6.8981 11.7164 6.94555 11.7083 6.98985 11.6924C7.03416 11.6766 7.07445 11.6532 7.10843 11.6237C7.14241 11.5942 7.16941 11.559 7.18789 11.5204C7.20637 11.4817 7.21597 11.4402 7.21613 11.3983V11.3774C7.21646 11.2927 7.1784 11.2114 7.1103 11.1512C7.0422 11.0911 6.94965 11.0571 6.853 11.0567L6.40291 11.0553C6.39793 11.0553 6.39315 11.0573 6.38963 11.0608C6.38611 11.0643 6.38413 11.0691 6.38413 11.0741Z" stroke="#050317" stroke-width="2"/>
<path d="M6.38281 12.1579V12.8744C6.38281 12.8783 6.38435 12.882 6.38709 12.8848C6.38983 12.8875 6.39355 12.889 6.39742 12.889H6.98942C7.04168 12.889 7.09342 12.8797 7.1417 12.8615C7.18997 12.8433 7.23384 12.8167 7.27079 12.7831C7.30774 12.7495 7.33705 12.7096 7.35704 12.6657C7.37704 12.6219 7.38733 12.5748 7.38733 12.5273V12.5051C7.38733 12.4575 7.37704 12.4105 7.35704 12.3666C7.33705 12.3227 7.30774 12.2829 7.27079 12.2493C7.23384 12.2157 7.18997 12.189 7.1417 12.1708C7.09342 12.1527 7.04168 12.1433 6.98942 12.1433H6.39742C6.39355 12.1433 6.38983 12.1448 6.38709 12.1476C6.38435 12.1503 6.38281 12.154 6.38281 12.1579Z" stroke="#050317" stroke-width="2"/>
<path d="M10.9907 11.072L10.9921 11.8609C10.9921 11.8651 10.9938 11.8692 10.9968 11.8722C10.9998 11.8752 11.0039 11.8769 11.0081 11.8769L11.3608 11.8762C11.4888 11.8759 11.6115 11.8363 11.7019 11.766C11.7923 11.6957 11.843 11.6004 11.8429 11.5012V11.4289C11.8428 11.3797 11.8303 11.331 11.8059 11.2857C11.7816 11.2403 11.746 11.1991 11.7011 11.1644C11.6562 11.1297 11.6029 11.1022 11.5443 11.0835C11.4857 11.0648 11.4228 11.0552 11.3594 11.0553L11.0067 11.056C11.0025 11.056 10.9984 11.0577 10.9954 11.0607C10.9924 11.0637 10.9907 11.0678 10.9907 11.072Z" stroke="#050317" stroke-width="2"/>
<path d="M8.7972 12.1565H9.54572C9.54775 12.1565 9.5497 12.1557 9.55114 12.1543C9.55257 12.1529 9.55338 12.1509 9.55338 12.1489V12.1447C9.55338 12.0519 9.51417 11.9629 9.44437 11.8973C9.37457 11.8317 9.27991 11.7948 9.1812 11.7948H9.16172C9.11285 11.7948 9.06445 11.8039 9.0193 11.8214C8.97415 11.839 8.93312 11.8648 8.89856 11.8973C8.864 11.9298 8.83658 11.9684 8.81788 12.0108C8.79918 12.0533 8.78955 12.0988 8.78955 12.1447V12.1489C8.78955 12.1509 8.79036 12.1529 8.79179 12.1543C8.79323 12.1557 8.79517 12.1565 8.7972 12.1565Z" stroke="#050317" stroke-width="2"/>
<path d="M14.0632 12.1378C13.9887 11.6849 13.4482 11.6793 13.2917 12.1002C13.2773 12.1387 13.2908 12.1579 13.3321 12.1579L14.0472 12.1566C14.0597 12.1561 14.065 12.1498 14.0632 12.1378Z" stroke="#050317" stroke-width="2"/>
<path d="M15.2909 12.6643C15.1087 13.0608 16.0555 13.1255 15.9692 12.5259C15.966 12.5041 15.9534 12.4939 15.9316 12.4952C15.7598 12.5036 15.3765 12.4779 15.2909 12.6643Z" stroke="#050317" stroke-width="2"/>
<path d="M8.17948 3.99996H15.76C16.592 3.99648 17.4734 4.10014 18.1864 4.5064C19.0987 5.02535 19.6703 5.83463 19.9012 6.93422C19.9471 7.15312 19.9801 7.59115 20 8.24831V15.8295C19.9736 16.4273 19.9455 16.8085 19.9158 16.9732C19.6937 18.1878 19.0565 19.0606 18.0042 19.5916C17.2779 19.9582 16.5231 19.9568 15.7343 20H8.24C7.7447 19.9851 7.33009 19.9538 6.99617 19.906C5.46991 19.6862 4.336 18.4786 4.08765 16.9725C4.0473 16.7285 4.01809 16.3332 4 15.7864V8.22187C4.0218 7.5944 4.05125 7.18419 4.08835 6.99127C4.31235 5.83463 4.90922 4.99428 5.87896 4.47022C6.56278 4.10083 7.39061 4.00274 8.17948 3.99996ZM17.3217 10.6393C17.3217 10.6345 17.3198 10.6299 17.3164 10.6265C17.313 10.6231 17.3084 10.6212 17.3037 10.6212H16.8014C16.7966 10.6212 16.792 10.6231 16.7886 10.6265C16.7852 10.6299 16.7833 10.6345 16.7833 10.6393V13.3036C16.7833 13.3084 16.7852 13.313 16.7886 13.3164C16.792 13.3198 16.7966 13.3217 16.8014 13.3217H17.3037C17.3084 13.3217 17.313 13.3198 17.3164 13.3164C17.3198 13.313 17.3217 13.3084 17.3217 13.3036V10.6393ZM7.54157 11.8365C7.71339 11.6897 7.78157 11.4768 7.74957 11.2487C7.63548 10.4306 6.56835 10.617 5.89287 10.6302C5.87154 10.6302 5.86087 10.6409 5.86087 10.6622V13.2855C5.86087 13.2902 5.86177 13.2948 5.86352 13.2991C5.86527 13.3034 5.86783 13.3073 5.87106 13.3106C5.87429 13.3139 5.87812 13.3165 5.88234 13.3183C5.88656 13.3201 5.89108 13.321 5.89565 13.321C6.37635 13.3238 7.1513 13.401 7.52765 13.2076C8.04313 12.944 8.07026 12.1843 7.54643 11.8859C7.54217 11.8834 7.53855 11.88 7.53588 11.8758C7.53321 11.8717 7.53157 11.867 7.53109 11.8622C7.53061 11.8573 7.53131 11.8524 7.53314 11.848C7.53496 11.8435 7.53785 11.8396 7.54157 11.8365ZM11.0261 12.2956H11.4435C11.4681 12.2956 11.4861 12.3063 11.4977 12.3276L12.0278 13.2869C12.0394 13.3087 12.0575 13.3196 12.0821 13.3196L12.5544 13.3259C12.5837 13.3263 12.5908 13.3138 12.576 13.2883L11.9583 12.2142C11.9411 12.1841 11.9474 12.16 11.977 12.1419C12.3128 11.9397 12.4427 11.6417 12.3666 11.248C12.2191 10.4876 11.056 10.6198 10.521 10.6281C10.4979 10.6286 10.4863 10.6402 10.4863 10.6629L10.4849 13.2772C10.4849 13.3069 10.4997 13.3217 10.5294 13.3217H10.9391C10.9739 13.3217 10.9913 13.3043 10.9913 13.2695V12.3304C10.9913 12.3072 11.0029 12.2956 11.0261 12.2956ZM8.8007 12.5231L10.016 12.5175C10.0424 12.5175 10.0568 12.5045 10.0591 12.4786C10.2177 10.8354 7.92904 11.0539 8.23652 12.6254C8.38261 13.3697 9.30365 13.5367 9.90956 13.1944C9.92812 13.1842 9.93345 13.1691 9.92556 13.1492L9.80522 12.8368C9.80299 12.8312 9.79959 12.826 9.79524 12.8218C9.79088 12.8175 9.78567 12.8142 9.77996 12.8121C9.77424 12.81 9.76814 12.8091 9.76206 12.8096C9.75598 12.81 9.75007 12.8117 9.7447 12.8146C9.41009 12.994 8.88487 13.0031 8.77635 12.5537C8.77171 12.5338 8.77983 12.5236 8.8007 12.5231ZM13.3037 12.5273L14.5363 12.505C14.56 12.5045 14.5723 12.4923 14.5732 12.4681C14.5864 11.8713 14.3395 11.3071 13.6397 11.3551C13.1286 11.3903 12.8315 11.6487 12.7485 12.13C12.567 13.1833 13.584 13.6654 14.4209 13.1958C14.4422 13.1837 14.4478 13.1663 14.4376 13.1436L14.3005 12.832C14.2987 12.8276 14.296 12.8237 14.2925 12.8204C14.2891 12.8172 14.285 12.8146 14.2805 12.813C14.276 12.8114 14.2712 12.8107 14.2664 12.8109C14.2616 12.8112 14.2569 12.8124 14.2525 12.8146C13.9012 12.9906 13.4108 13.0045 13.2842 12.5537C13.2791 12.5365 13.2856 12.5277 13.3037 12.5273ZM15.9826 13.0956V13.2779C15.9826 13.3071 15.997 13.3217 16.0257 13.3217H16.4508C16.474 13.3217 16.4856 13.3101 16.4856 13.2869C16.4883 12.8751 16.4883 12.463 16.4856 12.0507C16.4786 11.1422 14.9704 11.1485 14.8397 11.9422C14.8355 11.9691 14.8468 11.9826 14.8737 11.9826H15.2696C15.2932 11.9826 15.3106 11.9721 15.3217 11.9513C15.4998 11.6194 16.0563 11.7161 15.9722 12.1377C15.9685 12.1581 15.9562 12.169 15.9353 12.1704C15.6452 12.1871 15.2877 12.1732 15.0226 12.3172C14.2282 12.7485 15.239 13.8894 15.9513 13.0845C15.9722 13.0604 15.9826 13.0641 15.9826 13.0956ZM18.1097 12.8151C18.1097 12.8119 18.1091 12.8086 18.1079 12.8055C18.1066 12.8025 18.1048 12.7997 18.1025 12.7974C18.1002 12.795 18.0975 12.7931 18.0945 12.7919C18.0914 12.7906 18.0882 12.7899 18.0849 12.7898L17.6286 12.7851C17.6219 12.785 17.6155 12.7876 17.6108 12.7922C17.606 12.7969 17.6033 12.8032 17.6033 12.8098L17.5981 13.2982C17.5981 13.3015 17.5987 13.3047 17.6 13.3078C17.6012 13.3108 17.603 13.3136 17.6053 13.316C17.6076 13.3183 17.6103 13.3202 17.6134 13.3215C17.6164 13.3228 17.6196 13.3234 17.6229 13.3235L18.0793 13.3282C18.0859 13.3283 18.0923 13.3257 18.097 13.3211C18.1018 13.3164 18.1045 13.3101 18.1046 13.3035L18.1097 12.8151Z" fill="#050317"/>
<path d="M17.3036 10.6212H16.8013C16.7913 10.6212 16.7832 10.6293 16.7832 10.6393V13.3037C16.7832 13.3136 16.7913 13.3217 16.8013 13.3217H17.3036C17.3135 13.3217 17.3216 13.3136 17.3216 13.3037V10.6393C17.3216 10.6293 17.3135 10.6212 17.3036 10.6212Z" fill="white"/>
<path d="M7.54154 11.8365C7.53782 11.8396 7.53493 11.8435 7.53311 11.848C7.53128 11.8525 7.53058 11.8573 7.53106 11.8622C7.53154 11.867 7.53318 11.8717 7.53585 11.8759C7.53852 11.88 7.54214 11.8834 7.5464 11.8859C8.07023 12.1843 8.0431 12.944 7.52762 13.2076C7.15127 13.401 6.37632 13.3238 5.89562 13.321C5.89105 13.321 5.88653 13.3201 5.88231 13.3183C5.87809 13.3166 5.87426 13.3139 5.87103 13.3106C5.8678 13.3074 5.86524 13.3034 5.86349 13.2991C5.86174 13.2948 5.86084 13.2902 5.86084 13.2856V10.6623C5.86084 10.6409 5.87151 10.6303 5.89284 10.6303C6.56832 10.617 7.63545 10.4306 7.74954 11.2487C7.78154 11.4769 7.71336 11.6897 7.54154 11.8365ZM6.38397 11.0741L6.38119 11.696C6.38119 11.701 6.38317 11.7058 6.38669 11.7093C6.39021 11.7128 6.39499 11.7148 6.39997 11.7148L6.85006 11.7162C6.89794 11.7164 6.94539 11.7083 6.98969 11.6924C7.034 11.6766 7.07429 11.6532 7.10827 11.6237C7.14225 11.5942 7.16925 11.5591 7.18773 11.5204C7.20621 11.4817 7.21581 11.4402 7.21597 11.3983V11.3774C7.2163 11.2927 7.17824 11.2114 7.11014 11.1512C7.04204 11.0911 6.94949 11.0571 6.85284 11.0567L6.40275 11.0553C6.39777 11.0553 6.39299 11.0573 6.38947 11.0608C6.38595 11.0643 6.38397 11.0691 6.38397 11.0741ZM6.38258 12.1579V12.8744C6.38258 12.8783 6.38412 12.882 6.38686 12.8848C6.3896 12.8875 6.39331 12.889 6.39719 12.889H6.98919C7.04144 12.889 7.09319 12.8797 7.14146 12.8615C7.18974 12.8433 7.23361 12.8167 7.27055 12.7831C7.3075 12.7495 7.33681 12.7096 7.35681 12.6657C7.37681 12.6218 7.3871 12.5748 7.3871 12.5273V12.505C7.3871 12.4575 7.37681 12.4105 7.35681 12.3666C7.33681 12.3227 7.3075 12.2828 7.27055 12.2493C7.23361 12.2157 7.18974 12.189 7.14146 12.1708C7.09319 12.1527 7.04144 12.1433 6.98919 12.1433H6.39719C6.39331 12.1433 6.3896 12.1448 6.38686 12.1476C6.38412 12.1503 6.38258 12.154 6.38258 12.1579Z" fill="white"/>
<path d="M10.9913 12.3305V13.2696C10.9913 13.3044 10.9739 13.3218 10.9391 13.3218H10.5294C10.4997 13.3218 10.4849 13.3069 10.4849 13.2773L10.4863 10.663C10.4863 10.6403 10.4978 10.6287 10.521 10.6282C11.056 10.6199 12.2191 10.4877 12.3666 11.2481C12.4427 11.6418 12.3128 11.9398 11.977 12.142C11.9474 12.1601 11.9411 12.1842 11.9583 12.2143L12.576 13.2884C12.5908 13.3139 12.5836 13.3264 12.5544 13.326L12.0821 13.3197C12.0575 13.3197 12.0394 13.3088 12.0278 13.287L11.4977 12.3277C11.4861 12.3064 11.4681 12.2957 11.4435 12.2957H11.0261C11.0029 12.2957 10.9913 12.3073 10.9913 12.3305ZM10.9906 11.0721L10.992 11.8609C10.992 11.8652 10.9937 11.8692 10.9967 11.8722C10.9997 11.8752 11.0038 11.8769 11.008 11.8769L11.3607 11.8762C11.4887 11.876 11.6114 11.8364 11.7018 11.7661C11.7922 11.6957 11.8429 11.6005 11.8428 11.5013V11.4289C11.8427 11.3798 11.8302 11.3311 11.8058 11.2857C11.7815 11.2403 11.7459 11.1991 11.701 11.1644C11.6561 11.1297 11.6028 11.1022 11.5442 11.0835C11.4855 11.0648 11.4227 11.0552 11.3593 11.0554L11.0066 11.056C11.0024 11.056 10.9983 11.0577 10.9953 11.0607C10.9923 11.0637 10.9906 11.0678 10.9906 11.0721Z" fill="white"/>
<path d="M10.9907 11.072C10.9907 11.0678 10.9924 11.0637 10.9954 11.0607C10.9984 11.0577 11.0025 11.056 11.0067 11.056L11.3594 11.0553C11.4228 11.0552 11.4857 11.0648 11.5443 11.0835C11.6029 11.1022 11.6562 11.1297 11.7011 11.1644C11.746 11.1991 11.7816 11.2403 11.8059 11.2857C11.8303 11.331 11.8428 11.3797 11.8429 11.4289V11.5012C11.843 11.6004 11.7923 11.6957 11.7019 11.766C11.6115 11.8363 11.4888 11.8759 11.3608 11.8762L11.0081 11.8769C11.0039 11.8769 10.9998 11.8752 10.9968 11.8722C10.9938 11.8692 10.9921 11.8651 10.9921 11.8609L10.9907 11.072Z" fill="#050317"/>
<path d="M6.38413 11.0741C6.38413 11.0691 6.38611 11.0643 6.38963 11.0608C6.39315 11.0573 6.39793 11.0553 6.40291 11.0553L6.853 11.0567C6.94965 11.0571 7.0422 11.0911 7.1103 11.1512C7.1784 11.2114 7.21646 11.2927 7.21613 11.3774V11.3983C7.21597 11.4402 7.20637 11.4817 7.18789 11.5204C7.16941 11.559 7.14241 11.5942 7.10843 11.6237C7.07445 11.6532 7.03416 11.6766 6.98985 11.6924C6.94555 11.7083 6.8981 11.7164 6.85022 11.7162L6.40013 11.7148C6.39515 11.7148 6.39037 11.7128 6.38685 11.7093C6.38333 11.7058 6.38135 11.701 6.38135 11.696L6.38413 11.0741Z" fill="#050317"/>
<path d="M8.7763 12.5537C8.88482 13.0031 9.41003 12.9941 9.74464 12.8146C9.75001 12.8117 9.75593 12.81 9.76201 12.8096C9.76809 12.8092 9.77419 12.8101 9.7799 12.8122C9.78562 12.8143 9.79083 12.8175 9.79518 12.8218C9.79954 12.8261 9.80294 12.8312 9.80516 12.8369L9.92551 13.1492C9.9334 13.1692 9.92806 13.1842 9.90951 13.1944C9.3036 13.5367 8.38256 13.3697 8.23647 12.6254C7.92899 11.0539 10.2177 10.8355 10.0591 12.4786C10.0568 12.5046 10.0424 12.5176 10.0159 12.5176L8.80064 12.5231C8.77977 12.5236 8.77166 12.5338 8.7763 12.5537ZM8.79717 12.1565H9.54569C9.54772 12.1565 9.54966 12.1557 9.5511 12.1543C9.55253 12.1529 9.55334 12.1509 9.55334 12.1489V12.1447C9.55334 12.0519 9.51413 11.9629 9.44433 11.8973C9.37454 11.8317 9.27987 11.7948 9.18117 11.7948H9.16169C9.11281 11.7948 9.06442 11.8038 9.01926 11.8214C8.97411 11.839 8.93308 11.8648 8.89852 11.8973C8.86396 11.9298 8.83655 11.9683 8.81784 12.0108C8.79914 12.0533 8.78951 12.0988 8.78951 12.1447V12.1489C8.78951 12.1509 8.79032 12.1529 8.79175 12.1543C8.79319 12.1557 8.79514 12.1565 8.79717 12.1565Z" fill="white"/>
<path d="M13.284 12.5538C13.4106 13.0045 13.901 12.9906 14.2523 12.8146C14.2567 12.8125 14.2614 12.8113 14.2662 12.811C14.271 12.8107 14.2758 12.8114 14.2803 12.8131C14.2848 12.8147 14.2889 12.8172 14.2923 12.8205C14.2958 12.8237 14.2985 12.8277 14.3003 12.832L14.4374 13.1437C14.4476 13.1664 14.442 13.1838 14.4207 13.1958C13.5838 13.6654 12.5668 13.1833 12.7483 12.1301C12.8313 11.6487 13.1284 11.3904 13.6395 11.3552C14.3393 11.3072 14.5862 11.8713 14.573 12.4682C14.5721 12.4923 14.5598 12.5046 14.5361 12.5051L13.3035 12.5273C13.2854 12.5278 13.2789 12.5366 13.284 12.5538ZM14.0631 12.1378C13.9887 11.6849 13.4481 11.6793 13.2916 12.1002C13.2772 12.1387 13.2907 12.1579 13.332 12.1579L14.0471 12.1565C14.0596 12.1561 14.065 12.1498 14.0631 12.1378Z" fill="white"/>
<path d="M15.9512 13.0845C15.2388 13.8893 14.228 12.7485 15.0225 12.3172C15.2875 12.1732 15.6451 12.1871 15.9352 12.1704C15.956 12.169 15.9683 12.1581 15.972 12.1377C16.0562 11.7161 15.4997 11.6194 15.3216 11.9513C15.3105 11.9721 15.2931 11.9826 15.2694 11.9826H14.8736C14.8467 11.9826 14.8353 11.9691 14.8395 11.9422C14.9703 11.1485 16.4785 11.1422 16.4854 12.0507C16.4882 12.463 16.4882 12.8751 16.4854 13.2869C16.4854 13.3101 16.4738 13.3217 16.4506 13.3217H16.0256C15.9968 13.3217 15.9825 13.3071 15.9825 13.2779V13.0956C15.9825 13.0641 15.972 13.0604 15.9512 13.0845ZM15.291 12.6643C15.1087 13.0608 16.0555 13.1255 15.9693 12.5259C15.966 12.5041 15.9535 12.4939 15.9317 12.4953C15.7599 12.5036 15.3766 12.4779 15.291 12.6643Z" fill="white"/>
<path d="M8.7972 12.1565C8.79517 12.1565 8.79323 12.1557 8.79179 12.1543C8.79036 12.1529 8.78955 12.1509 8.78955 12.1489V12.1447C8.78955 12.0988 8.79918 12.0533 8.81788 12.0108C8.83658 11.9684 8.864 11.9298 8.89856 11.8973C8.93312 11.8648 8.97415 11.839 9.0193 11.8214C9.06445 11.8039 9.11285 11.7948 9.16172 11.7948H9.1812C9.27991 11.7948 9.37457 11.8317 9.44437 11.8973C9.51417 11.9629 9.55338 12.0519 9.55338 12.1447V12.1489C9.55338 12.1509 9.55257 12.1529 9.55114 12.1543C9.5497 12.1557 9.54775 12.1565 9.54572 12.1565H8.7972Z" fill="#050317"/>
<path d="M13.2917 12.1002C13.4482 11.6793 13.9887 11.6849 14.0632 12.1378C14.065 12.1498 14.0597 12.1561 14.0472 12.1566L13.3321 12.1579C13.2908 12.1579 13.2773 12.1387 13.2917 12.1002Z" fill="#050317"/>
<path d="M6.38281 12.1579C6.38281 12.154 6.38435 12.1503 6.38709 12.1476C6.38983 12.1448 6.39355 12.1433 6.39742 12.1433H6.98942C7.04168 12.1433 7.09342 12.1527 7.1417 12.1708C7.18997 12.189 7.23384 12.2157 7.27079 12.2493C7.30774 12.2829 7.33705 12.3227 7.35704 12.3666C7.37704 12.4105 7.38733 12.4575 7.38733 12.5051V12.5273C7.38733 12.5748 7.37704 12.6219 7.35704 12.6657C7.33705 12.7096 7.30774 12.7495 7.27079 12.7831C7.23384 12.8167 7.18997 12.8433 7.1417 12.8615C7.09342 12.8797 7.04168 12.889 6.98942 12.889H6.39742C6.39355 12.889 6.38983 12.8875 6.38709 12.8848C6.38435 12.882 6.38281 12.8783 6.38281 12.8744V12.1579Z" fill="#050317"/>
<path d="M15.9692 12.526C16.0555 13.1256 15.1087 13.0609 15.2909 12.6644C15.3765 12.478 15.7598 12.5037 15.9316 12.4954C15.9534 12.494 15.966 12.5042 15.9692 12.526Z" fill="#050317"/>
<path d="M18.0849 12.7898L17.6286 12.7851C17.6147 12.7849 17.6034 12.796 17.6033 12.8098L17.5981 13.2982C17.598 13.312 17.6091 13.3233 17.6229 13.3235L18.0792 13.3282C18.0931 13.3284 18.1044 13.3173 18.1045 13.3035L18.1097 12.8151C18.1098 12.8013 18.0987 12.79 18.0849 12.7898Z" fill="white"/>
</g>
</svg>
