<svg width="24" height="24" viewBox="0 0 24 24" fill="none" xmlns="http://www.w3.org/2000/svg">
<mask id="mask0_61_301" style="mask-type:alpha" maskUnits="userSpaceOnUse" x="0" y="0" width="24" height="24">
<rect width="24" height="24" fill="#D9D9D9"/>
</mask>
<g mask="url(#mask0_61_301)">
<path d="M4 20L5.12467 15.8913C4.43067 14.6887 4.066 13.3253 4.06667 11.9273C4.06867 7.55667 7.62533 4 11.9953 4C14.116 4.00067 16.1067 4.82667 17.604 6.32533C19.1007 7.824 19.9247 9.816 19.924 11.9347C19.922 16.306 16.3653 19.8627 11.9953 19.8627C10.6687 19.862 9.36133 19.5293 8.20333 18.8973L4 20ZM8.398 17.462C9.51533 18.1253 10.582 18.5227 11.9927 18.5233C15.6247 18.5233 18.5833 15.5673 18.5853 11.9333C18.5867 8.292 15.642 5.34 11.998 5.33867C8.36333 5.33867 5.40667 8.29467 5.40533 11.928C5.40467 13.4113 5.83933 14.522 6.56933 15.684L5.90333 18.116L8.398 17.462ZM15.9893 13.8193C15.94 13.7367 15.808 13.6873 15.6093 13.588C15.4113 13.4887 14.4373 13.0093 14.2553 12.9433C14.074 12.8773 13.942 12.844 13.8093 13.0427C13.6773 13.2407 13.2973 13.6873 13.182 13.8193C13.0667 13.9513 12.9507 13.968 12.7527 13.8687C12.5547 13.7693 11.916 13.5607 11.1593 12.8853C10.5707 12.36 10.1727 11.7113 10.0573 11.5127C9.942 11.3147 10.0453 11.2073 10.144 11.1087C10.2333 11.02 10.342 10.8773 10.4413 10.7613C10.542 10.6467 10.5747 10.564 10.6413 10.4313C10.7073 10.2993 10.6747 10.1833 10.6247 10.084C10.5747 9.98533 10.1787 9.01 10.014 8.61333C9.85267 8.22733 9.68933 8.27933 9.568 8.27333L9.188 8.26667C9.056 8.26667 8.84133 8.316 8.66 8.51467C8.47867 8.71333 7.96667 9.192 7.96667 10.1673C7.96667 11.1427 8.67667 12.0847 8.77533 12.2167C8.87467 12.3487 10.172 14.35 12.1593 15.208C12.632 15.412 13.0013 15.534 13.2887 15.6253C13.7633 15.776 14.1953 15.7547 14.5367 15.704C14.9173 15.6473 15.7087 15.2247 15.874 14.762C16.0393 14.2987 16.0393 13.902 15.9893 13.8193Z" fill="#050317"/>
</g>
</svg>
