<svg width="24" height="24" viewBox="0 0 24 24" fill="none" xmlns="http://www.w3.org/2000/svg">
<mask id="mask0_186_261" style="mask-type:alpha" maskUnits="userSpaceOnUse" x="0" y="0" width="24" height="24">
<rect width="24" height="24" fill="#D9D9D9"/>
</mask>
<g mask="url(#mask0_186_261)">
<path fill-rule="evenodd" clip-rule="evenodd" d="M11.9991 10.8567V13.6007H16.5364C16.3521 14.7786 15.1642 17.0507 11.9991 17.0507C9.26808 17.0507 7.0399 14.7886 7.0399 12.0006C7.0399 9.21287 9.26808 6.95072 11.9991 6.95072C13.5523 6.95072 14.5932 7.61362 15.1873 8.1847L17.3593 6.09382C15.9656 4.7881 14.1594 4 12.0003 4C7.5782 4 4 7.5782 4 12.0003C4 16.4224 7.5782 20.0006 12.0003 20.0006C16.6164 20.0006 19.6817 16.7537 19.6817 12.1843C19.6817 11.6593 19.6256 11.2594 19.5565 10.8593L12.0003 10.8561L11.9991 10.8567V10.8567Z" fill="#050317"/>
<path d="M19.68 12.1818C19.68 11.6145 19.6291 11.0691 19.5345 10.5455H12V13.6436H16.3055C16.1164 14.64 15.5491 15.4836 14.6982 16.0509V18.0655H17.2945C18.8073 16.6691 19.68 14.6182 19.68 12.1818Z" fill="#4285F4"/>
<path d="M12 20C14.16 20 15.9709 19.2873 17.2945 18.0654L14.6982 16.0509C13.9855 16.5309 13.0764 16.8218 12 16.8218C9.92 16.8218 8.15273 15.4182 7.52 13.5273H4.85818V15.5927C6.17454 18.2036 8.87273 20 12 20Z" fill="#34A853"/>
<path d="M7.52 13.52C7.36 13.04 7.26545 12.5309 7.26545 12C7.26545 11.4691 7.36 10.96 7.52 10.48V8.41455H4.85818C4.31273 9.49091 4 10.7055 4 12C4 13.2946 4.31273 14.5091 4.85818 15.5855L6.93091 13.9709L7.52 13.52Z" fill="#FBBC05"/>
<path d="M12 7.18545C13.1782 7.18545 14.2255 7.59273 15.0618 8.37818L17.3527 6.08727C15.9636 4.79273 14.16 4 12 4C8.87273 4 6.17454 5.79636 4.85818 8.41455L7.52 10.48C8.15273 8.58909 9.92 7.18545 12 7.18545Z" fill="#EA4335"/>
</g>
</svg>
