<svg width="24" height="24" viewBox="0 0 24 24" fill="none" xmlns="http://www.w3.org/2000/svg">
<mask id="mask0_61_298" style="mask-type:alpha" maskUnits="userSpaceOnUse" x="0" y="0" width="24" height="24">
<rect width="24" height="24" fill="#D9D9D9"/>
</mask>
<g mask="url(#mask0_61_298)">
<path d="M10.0794 4.23355L10.259 4.96087C9.55128 5.13578 8.87394 5.41621 8.24973 5.79275L7.86561 5.14952C8.55269 4.73344 9.2992 4.42456 10.0794 4.23355V4.23355ZM13.9206 4.23355L13.741 4.96087C14.4487 5.13578 15.1261 5.41621 15.7503 5.79275L16.1389 5.14952C15.45 4.7338 14.7021 4.42496 13.9206 4.23355V4.23355ZM5.14951 7.86335C4.73381 8.55144 4.42497 9.29864 4.23354 10.0794L4.96086 10.259C5.13577 9.55128 5.4162 8.87395 5.79274 8.24974L5.14951 7.86335ZM4.74948 12C4.74943 11.6363 4.77678 11.2731 4.83131 10.9136L4.09035 10.7999C3.96988 11.5947 3.96988 12.4031 4.09035 13.1978L4.83131 13.0865C4.77687 12.7269 4.74951 12.3637 4.74948 12V12ZM16.1344 18.8482L15.7503 18.2073C15.127 18.5842 14.4504 18.8646 13.7433 19.0391L13.9229 19.7665C14.7021 19.5736 15.4477 19.264 16.1344 18.8482ZM19.2505 12C19.2505 12.3637 19.2231 12.7269 19.1687 13.0865L19.9097 13.1978C20.0301 12.4031 20.0301 11.5947 19.9097 10.7999L19.1687 10.9136C19.2232 11.2731 19.2506 11.6363 19.2505 12V12ZM19.7665 13.9183L19.0391 13.7388C18.8646 14.4473 18.5842 15.1255 18.2073 15.7503L18.8505 16.1367C19.2666 15.448 19.5754 14.7 19.7665 13.9183V13.9183ZM13.0864 19.1687C12.3663 19.2778 11.6337 19.2778 10.9136 19.1687L10.8022 19.9097C11.5962 20.0301 12.4038 20.0301 13.1978 19.9097L13.0864 19.1687ZM17.8368 16.3003C17.4048 16.8861 16.8868 17.4034 16.3003 17.8345L16.7458 18.4391C17.3918 17.9636 17.9632 17.3944 18.4414 16.7503L17.8368 16.3003ZM16.3003 6.16323C16.8868 6.5952 17.4048 7.11318 17.8368 7.6997L18.4414 7.24967C17.9649 6.60504 17.395 6.03509 16.7503 5.55864L16.3003 6.16323ZM6.16322 7.6997C6.59519 7.11318 7.11317 6.5952 7.69969 6.16323L7.24966 5.55864C6.60503 6.03509 6.03508 6.60504 5.55863 7.24967L6.16322 7.6997ZM18.8505 7.86335L18.2073 8.24974C18.5841 8.87296 18.8646 9.5496 19.0391 10.2567L19.7665 10.0771C19.575 9.29708 19.2662 8.55064 18.8505 7.86335V7.86335ZM10.9136 4.83132C11.6337 4.72221 12.3663 4.72221 13.0864 4.83132L13.1978 4.09036C12.4038 3.96988 11.5962 3.96988 10.8022 4.09036L10.9136 4.83132ZM6.54734 18.6391L4.9995 18.9982L5.36089 17.4504L4.63129 17.2799L4.2699 18.8278C4.24729 18.9237 4.24382 19.0232 4.25969 19.1205C4.27556 19.2178 4.31046 19.3111 4.36239 19.3949C4.41432 19.4787 4.48227 19.5514 4.56234 19.6089C4.64241 19.6665 4.73304 19.7076 4.82904 19.7301C4.9413 19.7551 5.0577 19.7551 5.16997 19.7301L6.71781 19.3733L6.54734 18.6391ZM4.78585 16.6117L5.51772 16.7799L5.76774 15.7071C5.40263 15.0946 5.13069 14.4313 4.96086 13.7388L4.23354 13.9183C4.39714 14.5812 4.6446 15.2205 4.96995 15.8207L4.78585 16.6117ZM8.2861 18.2345L7.2133 18.4846L7.38376 19.2164L8.17245 19.0323C8.77225 19.3587 9.41167 19.6062 10.0749 19.7687L10.2544 19.0414C9.56408 18.8694 8.90306 18.5959 8.29292 18.23L8.2861 18.2345ZM12 5.49955C8.40884 5.50182 5.50181 8.41339 5.50181 12.0023C5.50379 13.2247 5.84955 14.4219 6.49961 15.4571L5.87456 18.1254L8.54066 17.5004C11.5795 19.4119 15.5934 18.5005 17.5049 15.4639C19.4164 12.4273 18.5073 8.41339 15.4707 6.49962C14.4311 5.84589 13.228 5.49921 12 5.49955" fill="#050317"/>
</g>
</svg>
