<svg width="24" height="24" viewBox="0 0 24 24" fill="none" xmlns="http://www.w3.org/2000/svg">
<mask id="mask0_186_795" style="mask-type:alpha" maskUnits="userSpaceOnUse" x="0" y="0" width="24" height="24">
<rect width="24" height="24" fill="#D9D9D9"/>
</mask>
<g mask="url(#mask0_186_795)">
<path fill-rule="evenodd" clip-rule="evenodd" d="M11.9991 10.8567V13.6007H16.5364C16.3521 14.7786 15.1642 17.0507 11.9991 17.0507C9.26808 17.0507 7.0399 14.7886 7.0399 12.0006C7.0399 9.21287 9.26808 6.95072 11.9991 6.95072C13.5523 6.95072 14.5932 7.61362 15.1873 8.1847L17.3593 6.09382C15.9656 4.7881 14.1594 4 12.0003 4C7.5782 4 4 7.5782 4 12.0003C4 16.4224 7.5782 20.0006 12.0003 20.0006C16.6164 20.0006 19.6817 16.7537 19.6817 12.1843C19.6817 11.6593 19.6256 11.2594 19.5565 10.8593L12.0003 10.8561L11.9991 10.8567V10.8567Z" fill="#D0D0D1"/>
</g>
</svg>
