<svg width="24" height="24" viewBox="0 0 24 24" fill="none" xmlns="http://www.w3.org/2000/svg">
<mask id="mask0_61_292" style="mask-type:alpha" maskUnits="userSpaceOnUse" x="0" y="0" width="24" height="24">
<rect width="24" height="24" fill="#D9D9D9"/>
</mask>
<g mask="url(#mask0_61_292)">
</g>
<g clip-path="url(#clip0_61_292)">
<path fill-rule="evenodd" clip-rule="evenodd" d="M12.1583 10.8564V13.6005H16.6956C16.5113 14.7783 15.3234 17.0505 12.1583 17.0505C9.42726 17.0505 7.19908 14.7884 7.19908 12.0004C7.19908 9.21263 9.42726 6.95048 12.1583 6.95048C13.7115 6.95048 14.7523 7.61338 15.3464 8.18446L17.5185 6.09358C16.1248 4.78786 14.3186 3.99976 12.1595 3.99976C7.73738 3.99976 4.15918 7.57796 4.15918 12.0001C4.15918 16.4222 7.73738 20.0004 12.1595 20.0004C16.7756 20.0004 19.8409 16.7535 19.8409 12.184C19.8409 11.659 19.7848 11.2592 19.7157 10.8591L12.1595 10.8559L12.1583 10.8565V10.8564Z" fill="#050317"/>
</g>
<defs>
<clipPath id="clip0_61_292">
<rect width="16" height="16" fill="white" transform="translate(4 4)"/>
</clipPath>
</defs>
</svg>
