<svg width="24" height="24" viewBox="0 0 24 24" fill="none" xmlns="http://www.w3.org/2000/svg">
<mask id="mask0_275_288" style="mask-type:alpha" maskUnits="userSpaceOnUse" x="0" y="0" width="24" height="24">
<rect width="24" height="24" fill="#D9D9D9"/>
</mask>
<g mask="url(#mask0_275_288)">
</g>
<g clip-path="url(#clip0_275_288)">
<path d="M16.741 4H7.25902C5.45911 4 4 5.45911 4 7.25902V16.741C4 18.5409 5.45911 20 7.25902 20H16.741C18.5409 20 20 18.5409 20 16.741V7.25902C20 5.45911 18.5409 4 16.741 4Z" fill="#009DDB"/>
<path d="M12.9015 12.2594C12.6113 11.9351 12.2092 11.7535 11.6919 11.7146C12.1524 11.5898 12.4864 11.4066 12.6972 11.1617C12.908 10.9201 13.0118 10.5926 13.0118 10.1792C13.0118 9.85163 12.9404 9.56302 12.8026 9.31333C12.6599 9.06525 12.4572 8.86582 12.1881 8.71665C11.953 8.58694 11.6741 8.49614 11.3498 8.44263C11.0239 8.39075 10.4516 8.36481 9.63114 8.36481H7.63681V15.6384H9.69113C10.5164 15.6384 11.1115 15.6092 11.4763 15.5541C11.8395 15.4974 12.1443 15.4001 12.3924 15.2687C12.6972 15.1082 12.9307 14.878 13.0928 14.5829C13.2566 14.2878 13.3377 13.9457 13.3377 13.5565C13.3377 13.0166 13.1917 12.5837 12.9015 12.261V12.2594ZM9.4771 9.97648H9.90353C10.3948 9.97648 10.7256 10.0316 10.8958 10.1419C11.0645 10.2537 11.1504 10.4451 11.1504 10.7175C11.1504 10.9899 11.0596 11.165 10.878 11.2736C10.6948 11.3806 10.3608 11.4341 9.87272 11.4341H9.4771V9.97486V9.97648ZM11.165 14.1467C10.972 14.2651 10.638 14.3235 10.1694 14.3235H9.4771V12.7345H10.2002C10.6818 12.7345 11.0142 12.7945 11.1909 12.9161C11.3709 13.0377 11.4585 13.2501 11.4585 13.5565C11.4585 13.8306 11.3612 14.0284 11.1666 14.1467H11.165Z" fill="white"/>
<path d="M15.4422 13.7949C14.9331 13.7949 14.5213 14.2067 14.5213 14.7158C14.5213 15.225 14.9331 15.6368 15.4422 15.6368C15.9514 15.6368 16.3632 15.225 16.3632 14.7158C16.3632 14.2067 15.9497 13.7949 15.4422 13.7949Z" fill="white"/>
<path d="M16.2432 8.36319H14.6429V13.2112H16.2432V8.36319Z" fill="white"/>
</g>
<defs>
<clipPath id="clip0_275_288">
<rect width="16" height="16" fill="white" transform="translate(4 4)"/>
</clipPath>
</defs>
</svg>
