<svg width="24" height="24" viewBox="0 0 24 24" fill="none" xmlns="http://www.w3.org/2000/svg">
<mask id="mask0_186_801" style="mask-type:alpha" maskUnits="userSpaceOnUse" x="0" y="0" width="24" height="24">
<rect width="24" height="24" fill="#D9D9D9"/>
</mask>
<g mask="url(#mask0_186_801)">
</g>
<g clip-path="url(#clip0_186_801)">
<path fill-rule="evenodd" clip-rule="evenodd" d="M20 12C20 16.4183 16.4183 20 12 20C7.58172 20 4 16.4183 4 12C4 7.58172 7.58172 4 12 4C16.4183 4 20 7.58172 20 12ZM11.9943 7.19995C14.9388 7.19995 17.3348 9.14395 17.3348 11.534L17.3358 11.5345C17.3358 12.491 16.9648 13.352 16.1908 14.201C15.0703 15.4905 12.5648 17.0615 11.9948 17.3015C11.44 17.5351 11.5048 17.1689 11.5303 17.0248C11.531 17.0208 11.5317 17.017 11.5323 17.0135C11.5458 16.9335 11.6083 16.5565 11.6083 16.5565C11.6258 16.42 11.6448 16.2085 11.5908 16.0735C11.5308 15.9245 11.2943 15.8475 11.1203 15.81C8.55381 15.4705 6.65381 13.6765 6.65381 11.534C6.65381 9.14445 9.04981 7.19995 11.9943 7.19995Z" fill="#D0D0D1"/>
<path d="M15.5585 12.914C15.615 12.914 15.6605 12.8685 15.6605 12.812V12.433C15.6605 12.377 15.6145 12.331 15.5585 12.331H14.539V11.9375H15.5585C15.615 11.9375 15.6605 11.892 15.6605 11.8355V11.457C15.6605 11.401 15.6145 11.355 15.5585 11.355H14.539V10.9615H15.5585C15.615 10.9615 15.6605 10.916 15.6605 10.8595V10.481C15.6605 10.425 15.6145 10.379 15.5585 10.379H14.058C14.0015 10.379 13.956 10.4245 13.956 10.481V10.483V12.81V12.812C13.956 12.8685 14.0015 12.914 14.058 12.914H15.5585Z" fill="#D0D0D1"/>
<path d="M10.0085 12.914C10.065 12.914 10.1105 12.8685 10.1105 12.812V12.433C10.1105 12.377 10.0645 12.331 10.0085 12.331H8.989V10.481C8.989 10.425 8.943 10.379 8.887 10.379H8.508C8.4515 10.379 8.406 10.4245 8.406 10.481V12.81V12.812C8.406 12.8685 8.4515 12.914 8.508 12.914H10.0085Z" fill="#D0D0D1"/>
<path d="M10.9115 10.379H10.533C10.4767 10.379 10.431 10.4247 10.431 10.481V12.8115C10.431 12.8678 10.4767 12.9135 10.533 12.9135H10.9115C10.9678 12.9135 11.0135 12.8678 11.0135 12.8115V10.481C11.0135 10.4247 10.9678 10.379 10.9115 10.379Z" fill="#D0D0D1"/>
<path d="M13.49 10.379H13.111C13.0545 10.379 13.009 10.4245 13.009 10.481V11.8655L11.9425 10.4255C11.94 10.422 11.937 10.4185 11.9345 10.415C11.9345 10.415 11.9345 10.415 11.934 10.4145C11.932 10.4125 11.93 10.41 11.928 10.408C11.9275 10.4075 11.9265 10.407 11.926 10.4065C11.924 10.405 11.9225 10.4035 11.9205 10.402C11.9195 10.4015 11.9185 10.4005 11.9175 10.4C11.916 10.3985 11.914 10.3975 11.912 10.3965C11.911 10.396 11.91 10.395 11.909 10.3945C11.907 10.3935 11.9055 10.3925 11.9035 10.3915C11.9025 10.391 11.9015 10.3905 11.9005 10.39C11.8985 10.389 11.8965 10.388 11.8945 10.3875C11.8935 10.3875 11.8925 10.3865 11.891 10.3865C11.889 10.386 11.887 10.385 11.885 10.3845C11.884 10.3845 11.8825 10.384 11.8815 10.3835C11.8795 10.3835 11.8775 10.3825 11.8755 10.382C11.874 10.382 11.8725 10.382 11.871 10.3815C11.869 10.3815 11.8675 10.381 11.8655 10.381C11.8635 10.381 11.862 10.381 11.86 10.381C11.859 10.381 11.8575 10.381 11.8565 10.381H11.48C11.4235 10.381 11.378 10.4265 11.378 10.483V12.814C11.378 12.8705 11.4235 12.916 11.48 12.916H11.859C11.9155 12.916 11.961 12.8705 11.961 12.814V11.43L13.0285 12.872C13.036 12.8825 13.045 12.891 13.055 12.8975C13.055 12.8975 13.056 12.898 13.056 12.8985C13.058 12.9 13.06 12.901 13.0625 12.9025C13.0635 12.903 13.0645 12.9035 13.0655 12.904C13.067 12.905 13.069 12.9055 13.0705 12.9065C13.072 12.9075 13.074 12.908 13.0755 12.9085C13.0765 12.9085 13.0775 12.9095 13.0785 12.9095C13.081 12.9105 13.083 12.911 13.0855 12.9115C13.0855 12.9115 13.0865 12.9115 13.087 12.9115C13.0955 12.9135 13.1045 12.915 13.1135 12.915H13.49C13.5465 12.915 13.592 12.8695 13.592 12.813V10.482C13.592 10.4255 13.5465 10.38 13.49 10.38V10.379Z" fill="#D0D0D1"/>
</g>
<defs>
<clipPath id="clip0_186_801">
<rect width="16" height="16" fill="white" transform="translate(4 4)"/>
</clipPath>
</defs>
</svg>
