<svg width="24" height="24" viewBox="0 0 24 24" fill="none" xmlns="http://www.w3.org/2000/svg">
<mask id="mask0_275_217" style="mask-type:alpha" maskUnits="userSpaceOnUse" x="0" y="0" width="24" height="24">
<rect width="24" height="24" fill="#D9D9D9"/>
</mask>
<g mask="url(#mask0_275_217)">
<path d="M14.0915 15.6364L11.5459 18.182C10.6656 19.0623 9.60493 19.5025 8.36396 19.5025C7.12299 19.5025 6.06233 19.0623 5.18198 18.182C4.30163 17.3016 3.86146 16.241 3.86146 15C3.86146 13.759 4.30163 12.6984 5.18198 11.818L7.72756 9.27244L9.00036 10.5452L6.45477 13.0908C5.92444 13.6211 5.65928 14.2575 5.65928 15C5.65928 15.7425 5.92444 16.3789 6.45477 16.9092C6.9851 17.4395 7.6215 17.7047 8.36396 17.7047C9.10642 17.7047 9.74282 17.4395 10.2731 16.9092L12.8187 14.3636L14.0915 15.6364ZM9.63675 15L8.36396 13.7272L13.4551 8.63604L14.7279 9.90883L9.63675 15ZM15.3643 14.3636L14.0915 13.0908L16.6371 10.5452C17.1674 10.0149 17.4326 9.3785 17.4326 8.63604C17.4326 7.89358 17.1674 7.25718 16.6371 6.72685C16.1068 6.19652 15.4704 5.93136 14.7279 5.93136C13.9855 5.93136 13.3491 6.19652 12.8187 6.72685L10.2731 9.27244L9.00036 7.99964L11.5459 5.45406C12.4263 4.57371 13.4869 4.13354 14.7279 4.13354C15.9689 4.13354 17.0296 4.57371 17.9099 5.45406C18.7902 6.33441 19.2304 7.39507 19.2304 8.63604C19.2304 9.87701 18.7902 10.9377 17.9099 11.818L15.3643 14.3636Z" fill="#050317"/>
</g>
</svg>
